<svg xmlns="http://www.w3.org/2000/svg" xmlns:xlink="http://www.w3.org/1999/xlink" width="1242" height="324" viewBox="0 0 1242 324">
  <defs>
    <clipPath id="clip-path">
      <rect id="Rectángulo_43847" data-name="Rectángulo 43847" width="191.141" height="114.836" fill="none"/>
    </clipPath>
    <clipPath id="clip-path-3">
      <rect id="Rectángulo_43848" data-name="Rectángulo 43848" width="123.213" height="87.2" fill="none"/>
    </clipPath>
    <clipPath id="clip-path-4">
      <rect id="Rectángulo_43861" data-name="Rectángulo 43861" width="138.771" height="78.636" fill="none"/>
    </clipPath>
    <clipPath id="clip-path-5">
      <rect id="Rectángulo_43862" data-name="Rectángulo 43862" width="179.546" height="87.417" fill="none"/>
    </clipPath>
  </defs>
  <g id="Grupo_144945" data-name="Grupo 144945" transform="translate(-178 -8726)">
    <g id="Grupo_144943" data-name="Grupo 144943">
      <path id="Trazado_192666" data-name="Trazado 192666" d="M0,0H1242V324H0Z" transform="translate(178 8726)" fill="#f6f6f6"/>
      <g id="Grupo_144899" data-name="Grupo 144899" transform="translate(892.369 8826.04)">
        <g id="Grupo_144898" data-name="Grupo 144898" transform="translate(12)" clip-path="url(#clip-path)">
          <path id="Trazado_192563" data-name="Trazado 192563" d="M49.071,31.684A10.381,10.381,0,1,0,59.451,42.065,10.381,10.381,0,0,0,49.071,31.684" transform="translate(-15.988 -13.093)" fill="#26a69a"/>
          <path id="Trazado_192564" data-name="Trazado 192564" d="M49.071,126.275a10.381,10.381,0,1,0,10.381,10.381,10.381,10.381,0,0,0-10.381-10.381" transform="translate(-15.988 -52.18)" fill="#26a69a"/>
          <path id="Trazado_192565" data-name="Trazado 192565" d="M155.913,52.444a10.381,10.381,0,1,0-10.381-10.381,10.381,10.381,0,0,0,10.381,10.381" transform="translate(-60.138 -13.092)" fill="#26a69a"/>
          <path id="Trazado_192566" data-name="Trazado 192566" d="M103.2,77.9a10.38,10.38,0,1,0,10.381,10.381A10.381,10.381,0,0,0,103.2,77.9" transform="translate(-38.356 -32.189)" fill="#26a69a"/>
          <path id="Trazado_192567" data-name="Trazado 192567" d="M209.346,77.9a10.38,10.38,0,1,0,10.381,10.381A10.381,10.381,0,0,0,209.346,77.9" transform="translate(-82.217 -32.189)" fill="#26a69a"/>
          <path id="Trazado_192568" data-name="Trazado 192568" d="M155.913,126.275a10.381,10.381,0,1,0,10.381,10.381,10.381,10.381,0,0,0-10.381-10.381" transform="translate(-60.138 -52.18)" fill="#26a69a"/>
          <path id="Trazado_192569" data-name="Trazado 192569" d="M262.755,52.444a10.381,10.381,0,1,0-10.381-10.381,10.381,10.381,0,0,0,10.381,10.381" transform="translate(-104.287 -13.092)" fill="#26a69a"/>
          <path id="Trazado_192570" data-name="Trazado 192570" d="M262.755,126.275a10.381,10.381,0,1,0,10.381,10.381,10.381,10.381,0,0,0-10.381-10.381" transform="translate(-104.287 -52.18)" fill="#26a69a"/>
          <path id="Trazado_192571" data-name="Trazado 192571" d="M80.716,115.739a69.877,69.877,0,0,1,4.362-7.168,13.916,13.916,0,0,1-1.994-3.144,62.7,62.7,0,0,0-5.415,8.615c-1,1.8-1.99,3.572-3.028,5.2a13.9,13.9,0,0,1,2.01,3.286c1.465-2.122,2.773-4.469,4.066-6.792" transform="translate(-30.844 -43.565)" fill="#1a323d"/>
          <path id="Trazado_192572" data-name="Trazado 192572" d="M82.931,75.089A13.843,13.843,0,0,1,84.888,71.7c-.965-1.543-1.889-3.2-2.826-4.885a65.086,65.086,0,0,0-5.218-8.364,13.873,13.873,0,0,1-1.927,3.262,75.073,75.073,0,0,1,4.1,6.8c1.249,2.244,2.513,4.511,3.917,6.575" transform="translate(-30.958 -24.154)" fill="#1a323d"/>
          <path id="Trazado_192573" data-name="Trazado 192573" d="M189.1,75.54a13.865,13.865,0,0,1,1.93-3.419c-.988-1.571-1.932-3.265-2.889-4.985a69.775,69.775,0,0,0-4.869-7.911,13.892,13.892,0,0,1-2.021,3.172c1.344,1.95,2.582,4.171,3.842,6.436,1.276,2.292,2.566,4.608,4.007,6.707" transform="translate(-74.899 -24.473)" fill="#1a323d"/>
          <path id="Trazado_192574" data-name="Trazado 192574" d="M137.066,60.373a77.5,77.5,0,0,0-4.377,7.238c-1.016,1.825-2.018,3.622-3.072,5.273a13.828,13.828,0,0,1,1.854,3.5,79.592,79.592,0,0,0,4.266-7.078c1.149-2.064,2.278-4.092,3.487-5.911a13.952,13.952,0,0,1-2.158-3.023" transform="translate(-53.561 -24.948)" fill="#1a323d"/>
          <path id="Trazado_192575" data-name="Trazado 192575" d="M238.637,67.3c-.995,1.787-1.975,3.546-3,5.167a13.87,13.87,0,0,1,1.882,3.471c1.507-2.161,2.846-4.564,4.17-6.942,1.223-2.2,2.425-4.352,3.723-6.26a13.919,13.919,0,0,1-2.07-3.119,72.2,72.2,0,0,0-4.7,7.682" transform="translate(-97.369 -24.634)" fill="#1a323d"/>
          <path id="Trazado_192576" data-name="Trazado 192576" d="M307.279,80.479a1.73,1.73,0,0,0-.422-.058l-.108,0c-5.888-.781-9.192-6.712-12.675-12.968A74.843,74.843,0,0,0,289.537,60a13.931,13.931,0,0,1-2.111,3.074c1.252,1.863,2.415,3.952,3.6,6.08,2.736,4.915,5.537,9.94,9.759,12.7-4.923,2.53-7.994,8.039-10.988,13.416-.855,1.536-1.7,3.051-2.574,4.475a13.945,13.945,0,0,1,2.2,3.057c1.211-1.86,2.324-3.856,3.426-5.835,3.678-6.606,7.157-12.848,13.69-13.048a14.433,14.433,0,0,0,1.55.083,1.744,1.744,0,0,0,0-3.488c-.275,0-.542-.014-.806-.035" transform="translate(-118.688 -24.794)" fill="#1a323d"/>
          <path id="Trazado_192577" data-name="Trazado 192577" d="M236.2,116.867a65.8,65.8,0,0,0,5.157,8.285,13.8,13.8,0,0,1,1.694-3.6c-1.33-1.937-2.555-4.136-3.8-6.378a80.432,80.432,0,0,0-4.22-7.013,13.948,13.948,0,0,1-2.319,2.792c1.211,1.821,2.341,3.852,3.491,5.917" transform="translate(-96.16 -44.694)" fill="#1a323d"/>
          <path id="Trazado_192578" data-name="Trazado 192578" d="M135.027,124.573a13.827,13.827,0,0,1,1.806-3.5c-1.225-1.837-2.368-3.888-3.53-5.976a79.081,79.081,0,0,0-4.293-7.118,13.965,13.965,0,0,1-2.3,2.815c1.231,1.842,2.378,3.9,3.545,6a71.114,71.114,0,0,0,4.772,7.78" transform="translate(-52.359 -44.619)" fill="#1a323d"/>
          <path id="Trazado_192579" data-name="Trazado 192579" d="M186.782,115.659a68.715,68.715,0,0,1,4.428-7.257,13.932,13.932,0,0,1-1.969-3.167,61.666,61.666,0,0,0-5.507,8.728c-.927,1.665-1.841,3.306-2.794,4.834a13.914,13.914,0,0,1,2.107,3.167c1.332-1.992,2.54-4.158,3.735-6.3" transform="translate(-74.769 -43.486)" fill="#1a323d"/>
          <path id="Trazado_192580" data-name="Trazado 192580" d="M215.563,161.827c-3.738,6.715-7.269,13.057-14.011,13.057s-10.273-6.342-14.011-13.057a72.862,72.862,0,0,0-4.658-7.623,13.925,13.925,0,0,1-2.1,3.079c1.293,1.9,2.49,4.051,3.709,6.241,4.064,7.3,8.266,14.849,17.059,14.849s12.995-7.549,17.059-14.849c1.294-2.325,2.565-4.606,3.951-6.594a13.905,13.905,0,0,1-2.008-3.173,68.058,68.058,0,0,0-4.991,8.07" transform="translate(-74.705 -63.536)" fill="#1a323d"/>
          <path id="Trazado_192581" data-name="Trazado 192581" d="M109.489,161.826c-3.738,6.714-7.269,13.057-14.012,13.057S85.2,168.541,81.465,161.826a68.043,68.043,0,0,0-4.993-8.072,13.9,13.9,0,0,1-2.007,3.173c1.387,1.989,2.658,4.269,3.953,6.6,4.064,7.3,8.267,14.848,17.06,14.848s13-7.549,17.059-14.849c1.218-2.188,2.415-4.335,3.708-6.238a13.894,13.894,0,0,1-2.1-3.078,73,73,0,0,0-4.655,7.619" transform="translate(-30.771 -63.535)" fill="#1a323d"/>
          <path id="Trazado_192582" data-name="Trazado 192582" d="M293.4,16.546c3.738-6.715,7.27-13.057,14.012-13.057a1.744,1.744,0,0,0,0-3.488c-8.793,0-13,7.549-17.06,14.849-.922,1.656-1.833,3.291-2.781,4.812a13.934,13.934,0,0,1,2.138,3.124c1.315-1.973,2.51-4.116,3.691-6.239" transform="translate(-118.83 0)" fill="#1a323d"/>
          <path id="Trazado_192583" data-name="Trazado 192583" d="M307.614,175.513c-6.742,0-10.273-6.342-14.011-13.057a78.185,78.185,0,0,0-4.336-7.178,13.931,13.931,0,0,1-2.192,2.976c1.206,1.817,2.333,3.84,3.48,5.9,4.064,7.3,8.266,14.849,17.059,14.849a1.744,1.744,0,0,0,0-3.488" transform="translate(-118.627 -64.165)" fill="#1a323d"/>
          <path id="Trazado_192584" data-name="Trazado 192584" d="M17.151,162.456c-3.738,6.715-7.27,13.058-14.012,13.058a1.744,1.744,0,0,0,0,3.488c8.793,0,13-7.549,17.06-14.849,1.146-2.058,2.273-4.082,3.479-5.9a13.935,13.935,0,0,1-2.192-2.975,78.314,78.314,0,0,0-4.335,7.176" transform="translate(-0.576 -64.166)" fill="#1a323d"/>
          <path id="Trazado_192585" data-name="Trazado 192585" d="M2.55,84.407a1.73,1.73,0,0,0,.422.058l.108,0c5.888.781,9.192,6.712,12.675,12.968a76.946,76.946,0,0,0,4.406,7.277,13.848,13.848,0,0,1,1.912-3.394c-1.128-1.733-2.19-3.64-3.27-5.58-2.736-4.915-5.537-9.94-9.759-12.7,4.923-2.53,7.994-8.039,10.988-13.416,1.078-1.936,2.139-3.84,3.264-5.571a13.973,13.973,0,0,1-2.241-2.926c-1.467,2.124-2.776,4.474-4.071,6.8-3.678,6.606-7.157,12.848-13.69,13.048a14.433,14.433,0,0,0-1.55-.083,1.744,1.744,0,0,0,0,3.488c.275,0,.542.014.806.035" transform="translate(0 -25.256)" fill="#1a323d"/>
          <path id="Trazado_192586" data-name="Trazado 192586" d="M187.326,16.545c3.738-6.714,7.269-13.057,14.012-13.057s10.274,6.342,14.012,13.057a69.361,69.361,0,0,0,4.9,7.948,13.831,13.831,0,0,1,1.792-3.5c-1.267-1.879-2.445-3.99-3.642-6.142C214.334,7.549,210.131,0,201.338,0s-13,7.549-17.059,14.849c-1,1.791-1.98,3.554-3.012,5.178a13.885,13.885,0,0,1,2.047,3.235c1.444-2.1,2.736-4.422,4.014-6.717" transform="translate(-74.904)" fill="#1a323d"/>
          <path id="Trazado_192587" data-name="Trazado 192587" d="M81.254,16.546C84.992,9.831,88.523,3.488,95.265,3.488s10.273,6.342,14.012,13.057a74.691,74.691,0,0,0,4.53,7.449,13.843,13.843,0,0,1,1.9-3.4c-1.168-1.777-2.264-3.744-3.379-5.746C108.26,7.549,104.057,0,95.265,0S82.27,7.549,78.206,14.849c-1.075,1.931-2.134,3.83-3.255,5.558A13.9,13.9,0,0,1,76.9,23.75a77.948,77.948,0,0,0,4.354-7.2" transform="translate(-30.972)" fill="#1a323d"/>
          <path id="Trazado_192588" data-name="Trazado 192588" d="M2.442,3.488c6.742,0,10.273,6.342,14.011,13.057,1.326,2.382,2.668,4.789,4.178,6.953a13.9,13.9,0,0,1,2-3.287c-1.075-1.675-2.094-3.5-3.129-5.362C15.437,7.549,11.235,0,2.442,0a1.744,1.744,0,0,0,0,3.488" transform="translate(-0.288)" fill="#1a323d"/>
        </g>
        <g id="Grupo_144906" data-name="Grupo 144906" transform="translate(12)" clip-path="url(#clip-path)">
          <path id="Trazado_192595" data-name="Trazado 192595" d="M49.071,31.684A10.381,10.381,0,1,0,59.451,42.065,10.381,10.381,0,0,0,49.071,31.684" transform="translate(-15.988 -13.093)" fill="#4dd0e1"/>
          <path id="Trazado_192596" data-name="Trazado 192596" d="M49.071,126.275a10.381,10.381,0,1,0,10.381,10.381,10.381,10.381,0,0,0-10.381-10.381" transform="translate(-15.988 -52.18)" fill="#4dd0e1"/>
          <path id="Trazado_192597" data-name="Trazado 192597" d="M155.913,52.444a10.381,10.381,0,1,0-10.381-10.381,10.381,10.381,0,0,0,10.381,10.381" transform="translate(-60.138 -13.092)" fill="#4dd0e1"/>
          <path id="Trazado_192598" data-name="Trazado 192598" d="M103.2,77.9a10.38,10.38,0,1,0,10.381,10.381A10.381,10.381,0,0,0,103.2,77.9" transform="translate(-38.356 -32.189)" fill="#4dd0e1"/>
          <path id="Trazado_192599" data-name="Trazado 192599" d="M209.346,77.9a10.38,10.38,0,1,0,10.381,10.381A10.381,10.381,0,0,0,209.346,77.9" transform="translate(-82.217 -32.189)" fill="#4dd0e1"/>
          <path id="Trazado_192600" data-name="Trazado 192600" d="M155.913,126.275a10.381,10.381,0,1,0,10.381,10.381,10.381,10.381,0,0,0-10.381-10.381" transform="translate(-60.138 -52.18)" fill="#4dd0e1"/>
          <path id="Trazado_192601" data-name="Trazado 192601" d="M262.755,52.444a10.381,10.381,0,1,0-10.381-10.381,10.381,10.381,0,0,0,10.381,10.381" transform="translate(-104.287 -13.092)" fill="#4dd0e1"/>
          <path id="Trazado_192602" data-name="Trazado 192602" d="M262.755,126.275a10.381,10.381,0,1,0,10.381,10.381,10.381,10.381,0,0,0-10.381-10.381" transform="translate(-104.287 -52.18)" fill="#4dd0e1"/>
          <path id="Trazado_192603" data-name="Trazado 192603" d="M80.716,115.739a69.877,69.877,0,0,1,4.362-7.168,13.916,13.916,0,0,1-1.994-3.144,62.7,62.7,0,0,0-5.415,8.615c-1,1.8-1.99,3.572-3.028,5.2a13.9,13.9,0,0,1,2.01,3.286c1.465-2.122,2.773-4.469,4.066-6.792" transform="translate(-30.844 -43.565)" fill="#1a323d"/>
          <path id="Trazado_192604" data-name="Trazado 192604" d="M82.931,75.089A13.843,13.843,0,0,1,84.888,71.7c-.965-1.543-1.889-3.2-2.826-4.885a65.086,65.086,0,0,0-5.218-8.364,13.873,13.873,0,0,1-1.927,3.262,75.073,75.073,0,0,1,4.1,6.8c1.249,2.244,2.513,4.511,3.917,6.575" transform="translate(-30.958 -24.154)" fill="#1a323d"/>
          <path id="Trazado_192605" data-name="Trazado 192605" d="M189.1,75.54a13.865,13.865,0,0,1,1.93-3.419c-.988-1.571-1.932-3.265-2.889-4.985a69.775,69.775,0,0,0-4.869-7.911,13.892,13.892,0,0,1-2.021,3.172c1.344,1.95,2.582,4.171,3.842,6.436,1.276,2.292,2.566,4.608,4.007,6.707" transform="translate(-74.899 -24.473)" fill="#1a323d"/>
          <path id="Trazado_192606" data-name="Trazado 192606" d="M137.066,60.373a77.5,77.5,0,0,0-4.377,7.238c-1.016,1.825-2.018,3.622-3.072,5.273a13.828,13.828,0,0,1,1.854,3.5,79.592,79.592,0,0,0,4.266-7.078c1.149-2.064,2.278-4.092,3.487-5.911a13.952,13.952,0,0,1-2.158-3.023" transform="translate(-53.561 -24.948)" fill="#1a323d"/>
          <path id="Trazado_192607" data-name="Trazado 192607" d="M238.637,67.3c-.995,1.787-1.975,3.546-3,5.167a13.87,13.87,0,0,1,1.882,3.471c1.507-2.161,2.846-4.564,4.17-6.942,1.223-2.2,2.425-4.352,3.723-6.26a13.919,13.919,0,0,1-2.07-3.119,72.2,72.2,0,0,0-4.7,7.682" transform="translate(-97.369 -24.634)" fill="#1a323d"/>
          <path id="Trazado_192608" data-name="Trazado 192608" d="M307.279,80.479a1.73,1.73,0,0,0-.422-.058l-.108,0c-5.888-.781-9.192-6.712-12.675-12.968A74.843,74.843,0,0,0,289.537,60a13.931,13.931,0,0,1-2.111,3.074c1.252,1.863,2.415,3.952,3.6,6.08,2.736,4.915,5.537,9.94,9.759,12.7-4.923,2.53-7.994,8.039-10.988,13.416-.855,1.536-1.7,3.051-2.574,4.475a13.945,13.945,0,0,1,2.2,3.057c1.211-1.86,2.324-3.856,3.426-5.835,3.678-6.606,7.157-12.848,13.69-13.048a14.433,14.433,0,0,0,1.55.083,1.744,1.744,0,0,0,0-3.488c-.275,0-.542-.014-.806-.035" transform="translate(-118.688 -24.794)" fill="#1a323d"/>
          <path id="Trazado_192609" data-name="Trazado 192609" d="M236.2,116.867a65.8,65.8,0,0,0,5.157,8.285,13.8,13.8,0,0,1,1.694-3.6c-1.33-1.937-2.555-4.136-3.8-6.378a80.432,80.432,0,0,0-4.22-7.013,13.948,13.948,0,0,1-2.319,2.792c1.211,1.821,2.341,3.852,3.491,5.917" transform="translate(-96.16 -44.694)" fill="#1a323d"/>
          <path id="Trazado_192610" data-name="Trazado 192610" d="M135.027,124.573a13.827,13.827,0,0,1,1.806-3.5c-1.225-1.837-2.368-3.888-3.53-5.976a79.081,79.081,0,0,0-4.293-7.118,13.965,13.965,0,0,1-2.3,2.815c1.231,1.842,2.378,3.9,3.545,6a71.114,71.114,0,0,0,4.772,7.78" transform="translate(-52.359 -44.619)" fill="#1a323d"/>
          <path id="Trazado_192611" data-name="Trazado 192611" d="M186.782,115.659a68.715,68.715,0,0,1,4.428-7.257,13.932,13.932,0,0,1-1.969-3.167,61.666,61.666,0,0,0-5.507,8.728c-.927,1.665-1.841,3.306-2.794,4.834a13.914,13.914,0,0,1,2.107,3.167c1.332-1.992,2.54-4.158,3.735-6.3" transform="translate(-74.769 -43.486)" fill="#1a323d"/>
          <path id="Trazado_192612" data-name="Trazado 192612" d="M215.563,161.827c-3.738,6.715-7.269,13.057-14.011,13.057s-10.273-6.342-14.011-13.057a72.862,72.862,0,0,0-4.658-7.623,13.925,13.925,0,0,1-2.1,3.079c1.293,1.9,2.49,4.051,3.709,6.241,4.064,7.3,8.266,14.849,17.059,14.849s12.995-7.549,17.059-14.849c1.294-2.325,2.565-4.606,3.951-6.594a13.905,13.905,0,0,1-2.008-3.173,68.058,68.058,0,0,0-4.991,8.07" transform="translate(-74.705 -63.536)" fill="#1a323d"/>
          <path id="Trazado_192613" data-name="Trazado 192613" d="M109.489,161.826c-3.738,6.714-7.269,13.057-14.012,13.057S85.2,168.541,81.465,161.826a68.043,68.043,0,0,0-4.993-8.072,13.9,13.9,0,0,1-2.007,3.173c1.387,1.989,2.658,4.269,3.953,6.6,4.064,7.3,8.267,14.848,17.06,14.848s13-7.549,17.059-14.849c1.218-2.188,2.415-4.335,3.708-6.238a13.894,13.894,0,0,1-2.1-3.078,73,73,0,0,0-4.655,7.619" transform="translate(-30.771 -63.535)" fill="#1a323d"/>
          <path id="Trazado_192614" data-name="Trazado 192614" d="M293.4,16.546c3.738-6.715,7.27-13.057,14.012-13.057a1.744,1.744,0,0,0,0-3.488c-8.793,0-13,7.549-17.06,14.849-.922,1.656-1.833,3.291-2.781,4.812a13.934,13.934,0,0,1,2.138,3.124c1.315-1.973,2.51-4.116,3.691-6.239" transform="translate(-118.83 0)" fill="#1a323d"/>
          <path id="Trazado_192615" data-name="Trazado 192615" d="M307.614,175.513c-6.742,0-10.273-6.342-14.011-13.057a78.185,78.185,0,0,0-4.336-7.178,13.931,13.931,0,0,1-2.192,2.976c1.206,1.817,2.333,3.84,3.48,5.9,4.064,7.3,8.266,14.849,17.059,14.849a1.744,1.744,0,0,0,0-3.488" transform="translate(-118.627 -64.165)" fill="#1a323d"/>
          <path id="Trazado_192616" data-name="Trazado 192616" d="M17.151,162.456c-3.738,6.715-7.27,13.058-14.012,13.058a1.744,1.744,0,0,0,0,3.488c8.793,0,13-7.549,17.06-14.849,1.146-2.058,2.273-4.082,3.479-5.9a13.935,13.935,0,0,1-2.192-2.975,78.314,78.314,0,0,0-4.335,7.176" transform="translate(-0.576 -64.166)" fill="#1a323d"/>
          <path id="Trazado_192617" data-name="Trazado 192617" d="M2.55,84.407a1.73,1.73,0,0,0,.422.058l.108,0c5.888.781,9.192,6.712,12.675,12.968a76.946,76.946,0,0,0,4.406,7.277,13.848,13.848,0,0,1,1.912-3.394c-1.128-1.733-2.19-3.64-3.27-5.58-2.736-4.915-5.537-9.94-9.759-12.7,4.923-2.53,7.994-8.039,10.988-13.416,1.078-1.936,2.139-3.84,3.264-5.571a13.973,13.973,0,0,1-2.241-2.926c-1.467,2.124-2.776,4.474-4.071,6.8-3.678,6.606-7.157,12.848-13.69,13.048a14.433,14.433,0,0,0-1.55-.083,1.744,1.744,0,0,0,0,3.488c.275,0,.542.014.806.035" transform="translate(0 -25.256)" fill="#1a323d"/>
          <path id="Trazado_192618" data-name="Trazado 192618" d="M187.326,16.545c3.738-6.714,7.269-13.057,14.012-13.057s10.274,6.342,14.012,13.057a69.361,69.361,0,0,0,4.9,7.948,13.831,13.831,0,0,1,1.792-3.5c-1.267-1.879-2.445-3.99-3.642-6.142C214.334,7.549,210.131,0,201.338,0s-13,7.549-17.059,14.849c-1,1.791-1.98,3.554-3.012,5.178a13.885,13.885,0,0,1,2.047,3.235c1.444-2.1,2.736-4.422,4.014-6.717" transform="translate(-74.904)" fill="#1a323d"/>
          <path id="Trazado_192619" data-name="Trazado 192619" d="M81.254,16.546C84.992,9.831,88.523,3.488,95.265,3.488s10.273,6.342,14.012,13.057a74.691,74.691,0,0,0,4.53,7.449,13.843,13.843,0,0,1,1.9-3.4c-1.168-1.777-2.264-3.744-3.379-5.746C108.26,7.549,104.057,0,95.265,0S82.27,7.549,78.206,14.849c-1.075,1.931-2.134,3.83-3.255,5.558A13.9,13.9,0,0,1,76.9,23.75a77.948,77.948,0,0,0,4.354-7.2" transform="translate(-30.972)" fill="#1a323d"/>
          <path id="Trazado_192620" data-name="Trazado 192620" d="M2.442,3.488c6.742,0,10.273,6.342,14.011,13.057,1.326,2.382,2.668,4.789,4.178,6.953a13.9,13.9,0,0,1,2-3.287c-1.075-1.675-2.094-3.5-3.129-5.362C15.437,7.549,11.235,0,2.442,0a1.744,1.744,0,0,0,0,3.488" transform="translate(-0.288)" fill="#1a323d"/>
        </g>
      </g>
      <g id="Grupo_144901" data-name="Grupo 144901" transform="translate(684.771 8841.858)">
        <g id="Grupo_144900" data-name="Grupo 144900" clip-path="url(#clip-path-3)">
          <path id="Trazado_192589" data-name="Trazado 192589" d="M119.193,52.9a6.93,6.93,0,0,0,1.091-7.939c-2.817.2-6.869,1.04-8.187,4.1a28.106,28.106,0,0,1,1.231,6.339.582.582,0,0,1-.529.63l-.051,0a.582.582,0,0,1-.579-.532c0-.045-.4-4.495-1.226-6.168-.731-1.475-4.423-1.463-5.659-1.343a.582.582,0,0,1-.114-1.158c.495-.049,4.358-.372,6.161,1.161,1.652-2.912,5.375-3.865,8.229-4.15q-.091-.114-.186-.224a6.933,6.933,0,0,0,.381-10.518c-2.7-.424-7.1-.674-7.737,1.321a7.387,7.387,0,0,0-.3,2.62c.039,1.981-.195,3.3-3.757,4.939a.582.582,0,0,1-.486-1.058c3.126-1.437,3.109-2.3,3.078-3.858a9.1,9.1,0,0,1,.224-2.546c-3.688-2.086-5.066-.639-5.106-.6a.582.582,0,0,1-.9-.735c.077-.1,1.893-2.264,6.437.239,1.313-2.059,5.2-1.955,7.809-1.617a6.922,6.922,0,0,0-.966-7.434.575.575,0,0,1-.313.147,13.293,13.293,0,0,1-1.7.108,6.084,6.084,0,0,1-3.669-.927,2.211,2.211,0,0,1-.5-.581,7,7,0,0,1-4.3,1.606,4.142,4.142,0,0,1-1.1-.128.582.582,0,1,1,.331-1.116c.022.007,2.227.624,4.793-1.647.118-1.7.019-4.425-.746-5.167a.48.48,0,0,0-.425-.146.582.582,0,0,1-.136-1.156,1.638,1.638,0,0,1,1.372.467c1.419,1.375,1.137,5.608,1.082,6.284a.947.947,0,0,0,.367.686c1,.825,3.567.686,4.474.563a.578.578,0,0,1,.3.04,6.931,6.931,0,0,0-5.2-9.193A6.935,6.935,0,0,0,105.81,6.28a6.882,6.882,0,0,0-1.1.09,1.581,1.581,0,0,1,.049.444A4.782,4.782,0,0,1,103,9.734a2.282,2.282,0,0,1,.827.846c1.161,2.041-.3,5.974-.474,6.415a.582.582,0,0,1-1.086-.419c.408-1.058,1.3-4.1.547-5.421a1.149,1.149,0,0,0-.873-.587.581.581,0,0,1-.475-.477c-1.119-.3-3.8-.823-5.413.6a.582.582,0,0,1-.77-.873c2.2-1.939,5.654-1.111,6.756-.777,1.51-1.426,1.621-2.223,1.532-2.409a.582.582,0,0,1,.04-.784.646.646,0,0,1,.072-.058A6.935,6.935,0,0,0,91.642,3.524l-.161.207a6.906,6.906,0,0,0-1.358,4.123c0,1.544-.142,3.275,0,4.863l.028,3.191a14.948,14.948,0,0,1,7.5,4.191c2.6-1.923,7.665,1.385,7.894,1.536a.582.582,0,1,1-.643.97,14.124,14.124,0,0,0-1.249-.728l-5.33-.824a1.635,1.635,0,0,0-.209.19c-.446,1.405-1.229,5.022-.038,6.709a.582.582,0,1,1-.951.671c-1.579-2.236-.52-6.382-.173-7.556a13.472,13.472,0,0,0-6.78-3.937v-.49H79.753V7.536a1.34,1.34,0,0,0-1.34-1.34H62.437v.4a7.536,7.536,0,1,0,0,1.872v.4H77.072v9.106a1.34,1.34,0,0,0,1.34,1.34H90.176v-.454l.091,10.47H70.145v-4.8a1.34,1.34,0,0,0-1.34-1.34H40.122a7.536,7.536,0,1,0,0,2.681H67.465v4.8a1.34,1.34,0,0,0,1.34,1.34H90.283v-.7l.014,1.631a.573.573,0,0,1,.292.073c.809.46,7.653,4.458,7.622,8.106,4.081,2.463,2.234,9.462,2.15,9.767a.582.582,0,0,1-.561.43.6.6,0,0,1-.153-.02.582.582,0,0,1-.409-.714c.018-.066,1.7-6.444-1.633-8.467a4.3,4.3,0,0,0-1.783,4.5.583.583,0,0,1-.494.658.633.633,0,0,1-.083.006.581.581,0,0,1-.575-.5,5.485,5.485,0,0,1,2.379-5.678c.022-2.384-4.572-5.615-6.743-6.9l.068,7.831H14.949a7.536,7.536,0,1,0,0,2.681H90.4l.081,9.41c1.7.162,3.894.609,4.795,1.822a8.6,8.6,0,0,1,7.23,3.176.582.582,0,0,1-.931.7,7.518,7.518,0,0,0-6.285-2.707,5.958,5.958,0,0,0-.76,4.819.582.582,0,0,1-.41.713.6.6,0,0,1-.152.02.582.582,0,0,1-.561-.43,7.139,7.139,0,0,1,.866-5.69c-.61-.7-2.205-1.087-3.765-1.251v-.118H69.028a1.341,1.341,0,0,0-1.34,1.34v4.8H40.345a7.536,7.536,0,1,0,0,2.681H69.028a1.341,1.341,0,0,0,1.341-1.34v-4.8H90.507V57.2L90.6,67.878H78.859a1.34,1.34,0,0,0-1.34,1.34v9.106H62.884v.4a7.536,7.536,0,1,0,0,1.872V81H78.859a1.34,1.34,0,0,0,1.34-1.34V70.559H90.622l.043,5a12.63,12.63,0,0,0-.116,3.344,6.939,6.939,0,0,0,8.78,6.69,6.938,6.938,0,0,0,8.348-4.282,14.794,14.794,0,0,1-3.839.571,5.8,5.8,0,0,1-4.284-1.49,4.4,4.4,0,0,1-2.471,1.263,4.291,4.291,0,0,1-.619.044,5.83,5.83,0,0,1-3.234-1.106.582.582,0,0,1,.708-.923,4.5,4.5,0,0,0,2.987.832,3.663,3.663,0,0,0,2.405-1.629c.01-.014.023-.025.034-.038A6.136,6.136,0,0,0,97.2,74.06a.582.582,0,0,1,.8-.841,7.01,7.01,0,0,1,2.431,6.407c2.174,2.164,7.321.441,7.392.416a.572.572,0,0,1,.189-.029v0l.09,0a6.938,6.938,0,0,0,6.87-5.969,6.942,6.942,0,0,0,4.62-7.68,12.756,12.756,0,0,1-4.808.9,14.586,14.586,0,0,1-6.754-1.7,6.03,6.03,0,0,1-4.571,2.92,11.372,11.372,0,0,1-1.856.147,11.551,11.551,0,0,1-1.914-.148.582.582,0,0,1,.21-1.145,11.1,11.1,0,0,0,3.4-.006c2.224-.379,3.608-1.5,4.115-3.319a7.273,7.273,0,0,0-2.164-7.433.582.582,0,0,1,.736-.9,8.433,8.433,0,0,1,2.55,8.646c-.016.056-.035.11-.052.165a12.683,12.683,0,0,0,10.916.689.58.58,0,0,1,.444-.033,6.937,6.937,0,0,0-.654-12.24M54.962,12.39a4.855,4.855,0,1,1,4.855-4.855,4.86,4.86,0,0,1-4.855,4.855m-22.254,17a4.855,4.855,0,1,1,4.855-4.855,4.861,4.861,0,0,1-4.855,4.855M7.536,48.231a4.855,4.855,0,1,1,4.855-4.855,4.86,4.86,0,0,1-4.855,4.855m25.4,19.289a4.855,4.855,0,1,1,4.855-4.855,4.86,4.86,0,0,1-4.855,4.855m22.477,17a4.855,4.855,0,1,1,4.855-4.855,4.861,4.861,0,0,1-4.855,4.855" fill="#1a323d"/>
        </g>
      </g>
      <g id="Grupo_144903" data-name="Grupo 144903" transform="translate(535.615 8848.422)">
        <g id="Grupo_144902" data-name="Grupo 144902" clip-path="url(#clip-path-4)">
          <path id="Trazado_192590" data-name="Trazado 192590" d="M137.251,0H1.519A1.519,1.519,0,0,0,0,1.519v75.6a1.519,1.519,0,0,0,1.519,1.519H137.251a1.52,1.52,0,0,0,1.519-1.519V1.519A1.519,1.519,0,0,0,137.251,0M3.039,3.039H39.5V75.6H3.039ZM135.732,75.6H41.927V3.039h93.805Z" fill="#1a323d"/>
          <rect id="Rectángulo_43849" data-name="Rectángulo 43849" width="23.752" height="2.431" transform="translate(9.086 10.961)" fill="#1a323d"/>
          <rect id="Rectángulo_43850" data-name="Rectángulo 43850" width="23.752" height="2.431" transform="translate(9.086 18.878)" fill="#1a323d"/>
          <rect id="Rectángulo_43851" data-name="Rectángulo 43851" width="23.752" height="2.431" transform="translate(9.086 26.796)" fill="#1a323d"/>
          <rect id="Rectángulo_43852" data-name="Rectángulo 43852" width="23.752" height="2.431" transform="translate(9.086 34.713)" fill="#1a323d"/>
          <rect id="Rectángulo_43853" data-name="Rectángulo 43853" width="23.752" height="2.431" transform="translate(9.086 42.63)" fill="#1a323d"/>
          <rect id="Rectángulo_43854" data-name="Rectángulo 43854" width="23.752" height="2.431" transform="translate(9.086 50.548)" fill="#1a323d"/>
          <rect id="Rectángulo_43855" data-name="Rectángulo 43855" width="23.752" height="2.431" transform="translate(9.086 58.465)" fill="#1a323d"/>
          <path id="Trazado_192591" data-name="Trazado 192591" d="M137.292,59.743A18.392,18.392,0,0,0,154.1,48.825l-16.808-7.47V22.966a18.389,18.389,0,0,0,0,36.777" transform="translate(-71.312 -13.774)" fill="#1a323d"/>
          <path id="Trazado_192592" data-name="Trazado 192592" d="M193.359,33.764A18.389,18.389,0,0,0,174.97,15.375V33.764l16.807,7.47a18.32,18.32,0,0,0,1.582-7.47" transform="translate(-104.939 -9.221)" fill="#1a323d"/>
          <rect id="Rectángulo_43856" data-name="Rectángulo 43856" width="10.982" height="15.068" transform="translate(50.161 54.828)" fill="#1a323d"/>
          <rect id="Rectángulo_43857" data-name="Rectángulo 43857" width="10.982" height="9.194" transform="translate(65.189 60.702)" fill="#1a323d"/>
          <rect id="Rectángulo_43858" data-name="Rectángulo 43858" width="10.982" height="20.687" transform="translate(80.216 49.209)" fill="#1a323d"/>
          <rect id="Rectángulo_43859" data-name="Rectángulo 43859" width="10.982" height="9.194" transform="translate(95.244 60.702)" fill="#1a323d"/>
          <rect id="Rectángulo_43860" data-name="Rectángulo 43860" width="10.982" height="34.99" transform="translate(110.272 34.907)" fill="#1a323d"/>
        </g>
      </g>
      <g id="Grupo_144905" data-name="Grupo 144905" transform="translate(239 8847.281)">
        <g id="Grupo_144904" data-name="Grupo 144904" transform="translate(0 0)" clip-path="url(#clip-path-5)">
          <path id="Trazado_192593" data-name="Trazado 192593" d="M28.524,70.794a8.872,8.872,0,1,0,8.87-8.874,8.886,8.886,0,0,0-8.87,8.874m110.7,8.874a8.874,8.874,0,1,0-8.874-8.874,8.886,8.886,0,0,0,8.874,8.874m-83.47-35.5H161.691l6.773,7.3a1.052,1.052,0,0,0,.763.33h8.264l.928,6.728h-3.73a1.3,1.3,0,0,0-1.3,1.3v2.106a1.3,1.3,0,0,0,1.3,1.3h4.385l.386,2.781a3.956,3.956,0,0,1-3.866,4.775H155.843a16.621,16.621,0,1,1-33.242,0H54.017a16.623,16.623,0,1,1-33.246,0H4.18c-3.171,0-4.566-2.821-4.088-5.956l.977-6.431A5.192,5.192,0,0,1,4.3,54.364l.153-.056c.116-.049.225-.1.325-.153H40.863Z" transform="translate(-0.001 0)" fill="#15224b"/>
          <path id="Trazado_192594" data-name="Trazado 192594" d="M73.718,30.561V7.74H35.629a1.336,1.336,0,0,0-1.19.749l-7.19,22.072ZM36.054,46.711a4.5,4.5,0,1,0-4.5-4.5,4.5,4.5,0,0,0,4.5,4.5m45.413-16.15h46.47L107.23,8.006a1.3,1.3,0,0,0-.783-.266H81.467ZM7.072,50.995l.623-2.058,4.011.965a2.592,2.592,0,0,0,3.131-1.921l1.736-7.226a2.592,2.592,0,0,0-1.921-3.128l-3.271-.787.868-2.846A5.181,5.181,0,0,1,15.022,30.8l.832-.386c1.086-.5,3.513-1.358,4.032-2.436l7.58-22.869A9.068,9.068,0,0,1,35.629,0h70.818a9.069,9.069,0,0,1,5.4,1.776l27.878,27.87,30.694,8.7a3.959,3.959,0,0,1,2.548,2.034s.824,1.72,1.8,3.77l-11.576-1.721a1.044,1.044,0,0,0-.916,1.744H56.34L41.448,54.154H5.364c1.162-.627,1.282-1.768,1.708-3.159" transform="translate(-0.587 0)" fill="#10bed2"/>
        </g>
      </g>
      <path id="Trazado_192669" data-name="Trazado 192669" d="M4.727,0H1.309V-14.219H4.727ZM18.984,0H15.576L10.537-8.848V0H7.109V-14.219h3.428l5.029,8.848v-8.848h3.418Zm5.6-4.824V0H21.152V-14.219h5.674a6.608,6.608,0,0,1,2.886.6,4.526,4.526,0,0,1,1.943,1.709,4.667,4.667,0,0,1,.688,2.515,4.114,4.114,0,0,1-1.489,3.325,6.179,6.179,0,0,1-4.087,1.245Zm0-2.646h2.246a2.118,2.118,0,0,0,1.519-.5,1.85,1.85,0,0,0,.522-1.406,2.287,2.287,0,0,0-.537-1.592,1.9,1.9,0,0,0-1.465-.605H24.58Zm20.742-6.748v9.307a5.349,5.349,0,0,1-.674,2.739A4.365,4.365,0,0,1,42.715-.41,6.812,6.812,0,0,1,39.736.2a5.885,5.885,0,0,1-4.092-1.348,4.806,4.806,0,0,1-1.523-3.691v-9.375h3.447v9.443q.059,2.334,2.168,2.334a2.1,2.1,0,0,0,1.611-.586,2.739,2.739,0,0,0,.547-1.9v-9.287Zm13.3,2.646H54.355V0H50.928V-11.572H46.738v-2.646H58.623Z" transform="translate(292 8997)" fill="#12263f"/>
      <path id="Trazado_192670" data-name="Trazado 192670" d="M9.893-6.025H4.5v3.389h6.367V0H1.074V-14.219h9.814v2.646H4.5v3H9.893Zm7.676-3.467,2.324-4.727h3.916L19.834-7.168,23.916,0H19.961L17.568-4.814,15.176,0H11.23L15.3-7.168l-3.965-7.051h3.906Zm18.623-2.08H31.924V0H28.5V-11.572H24.307v-2.646H36.191ZM42.92-5.02H41.064V0H37.637V-14.219h5.6A6.241,6.241,0,0,1,47.188-13.1a3.807,3.807,0,0,1,1.426,3.174,4.625,4.625,0,0,1-.6,2.461,4.264,4.264,0,0,1-1.88,1.582L49.1-.146V0H45.43ZM41.064-7.666h2.168a1.949,1.949,0,0,0,1.47-.513A1.979,1.979,0,0,0,45.2-9.609a2,2,0,0,0-.5-1.44,1.931,1.931,0,0,0-1.465-.522H41.064Zm17.7,5.01h-4.7L53.242,0H49.58l5.215-14.219h3.223L63.271,0H59.59ZM54.883-5.3h3.057l-1.533-4.932Zm20.723.488a5.193,5.193,0,0,1-.8,2.622A4.833,4.833,0,0,1,72.749-.43,7,7,0,0,1,69.727.2a5.584,5.584,0,0,1-4.414-1.826A7.54,7.54,0,0,1,63.7-6.787v-.7a8.607,8.607,0,0,1,.728-3.657,5.513,5.513,0,0,1,2.095-2.422,5.844,5.844,0,0,1,3.164-.854,6.129,6.129,0,0,1,4.16,1.362,5.383,5.383,0,0,1,1.787,3.755H72.217a2.547,2.547,0,0,0-.654-1.865,2.691,2.691,0,0,0-1.875-.566,2.048,2.048,0,0,0-1.875.957,6.151,6.151,0,0,0-.625,3.057v1.006a6.806,6.806,0,0,0,.571,3.252,2.091,2.091,0,0,0,1.968.977,2.632,2.632,0,0,0,1.807-.557A2.363,2.363,0,0,0,72.2-4.814Zm13.125,0a5.193,5.193,0,0,1-.8,2.622A4.833,4.833,0,0,1,85.874-.43,7,7,0,0,1,82.852.2a5.584,5.584,0,0,1-4.414-1.826,7.54,7.54,0,0,1-1.611-5.156v-.7a8.607,8.607,0,0,1,.728-3.657,5.513,5.513,0,0,1,2.095-2.422,5.844,5.844,0,0,1,3.164-.854,6.129,6.129,0,0,1,4.16,1.362A5.383,5.383,0,0,1,88.76-9.307H85.342a2.547,2.547,0,0,0-.654-1.865,2.691,2.691,0,0,0-1.875-.566,2.048,2.048,0,0,0-1.875.957,6.151,6.151,0,0,0-.625,3.057v1.006a6.806,6.806,0,0,0,.571,3.252,2.091,2.091,0,0,0,1.968.977,2.632,2.632,0,0,0,1.807-.557,2.363,2.363,0,0,0,.664-1.768ZM94,0H90.586V-14.219H94Zm14.424-6.816a8.385,8.385,0,0,1-.771,3.682,5.7,5.7,0,0,1-2.192,2.466A6.1,6.1,0,0,1,102.227.2,6.191,6.191,0,0,1,99-.64a5.692,5.692,0,0,1-2.192-2.388,8.144,8.144,0,0,1-.825-3.564v-.8a8.422,8.422,0,0,1,.767-3.687,5.688,5.688,0,0,1,2.2-2.466,6.147,6.147,0,0,1,3.257-.869,6.087,6.087,0,0,1,3.223.859,5.79,5.79,0,0,1,2.2,2.446,8.18,8.18,0,0,1,.8,3.638Zm-3.486-.6a5.979,5.979,0,0,0-.708-3.218,2.271,2.271,0,0,0-2.026-1.1q-2.578,0-2.725,3.867l-.01,1.045a6.149,6.149,0,0,0,.693,3.213,2.268,2.268,0,0,0,2.061,1.123,2.24,2.24,0,0,0,2-1.1,5.982,5.982,0,0,0,.713-3.174Zm-2.334-10.615h3.477l-2.715,3.066h-2.686ZM122.07,0h-3.408l-5.039-8.848V0H110.2V-14.219h3.428l5.029,8.848v-8.848h3.418Zm7.148,0V-14.219h4.58a6.737,6.737,0,0,1,3.389.854,6.006,6.006,0,0,1,2.349,2.412,7.283,7.283,0,0,1,.854,3.491v.654a7.325,7.325,0,0,1-.825,3.5,6.032,6.032,0,0,1-2.324,2.422A6.589,6.589,0,0,1,133.9,0Zm3.428-11.572v8.936h1.191a2.666,2.666,0,0,0,2.266-1.05,5.145,5.145,0,0,0,.791-3.12v-.615a5.1,5.1,0,0,0-.791-3.105,2.713,2.713,0,0,0-2.3-1.045Zm18.32,5.547h-5.391v3.389h6.367V0h-9.795V-14.219h9.814v2.646h-6.387v3h5.391Zm18.857,1.211a5.193,5.193,0,0,1-.8,2.622A4.833,4.833,0,0,1,166.968-.43,7,7,0,0,1,163.945.2a5.584,5.584,0,0,1-4.414-1.826,7.54,7.54,0,0,1-1.611-5.156v-.7a8.607,8.607,0,0,1,.728-3.657,5.513,5.513,0,0,1,2.095-2.422,5.844,5.844,0,0,1,3.164-.854,6.129,6.129,0,0,1,4.16,1.362,5.383,5.383,0,0,1,1.787,3.755h-3.418a2.547,2.547,0,0,0-.654-1.865,2.691,2.691,0,0,0-1.875-.566,2.048,2.048,0,0,0-1.875.957,6.151,6.151,0,0,0-.625,3.057v1.006a6.806,6.806,0,0,0,.571,3.252,2.091,2.091,0,0,0,1.968.977,2.632,2.632,0,0,0,1.807-.557,2.363,2.363,0,0,0,.664-1.768Zm9.7,2.158h-4.7L174,0h-3.662l5.215-14.219h3.223L184.033,0h-3.682ZM175.645-5.3H178.7l-1.533-4.932Zm14.707.283H188.5V0h-3.428V-14.219h5.6a6.241,6.241,0,0,1,3.955,1.123,3.807,3.807,0,0,1,1.426,3.174,4.625,4.625,0,0,1-.6,2.461,4.264,4.264,0,0,1-1.88,1.582l2.969,5.732V0h-3.672ZM188.5-7.666h2.168a1.949,1.949,0,0,0,1.47-.513,1.979,1.979,0,0,0,.493-1.431,2,2,0,0,0-.5-1.44,1.931,1.931,0,0,0-1.465-.522H188.5Zm17.7,5.01h-4.7L200.674,0h-3.662l5.215-14.219h3.223L210.7,0h-3.682ZM202.314-5.3h3.057l-1.533-4.932Zm20.723.488a5.193,5.193,0,0,1-.8,2.622A4.833,4.833,0,0,1,220.181-.43,7,7,0,0,1,217.158.2a5.584,5.584,0,0,1-4.414-1.826,7.54,7.54,0,0,1-1.611-5.156v-.7a8.607,8.607,0,0,1,.728-3.657,5.513,5.513,0,0,1,2.095-2.422,5.844,5.844,0,0,1,3.164-.854,6.129,6.129,0,0,1,4.16,1.362,5.383,5.383,0,0,1,1.787,3.755h-3.418a2.547,2.547,0,0,0-.654-1.865,2.691,2.691,0,0,0-1.875-.566,2.048,2.048,0,0,0-1.875.957,6.151,6.151,0,0,0-.625,3.057v1.006a6.806,6.806,0,0,0,.571,3.252,2.091,2.091,0,0,0,1.968.977,2.632,2.632,0,0,0,1.807-.557,2.363,2.363,0,0,0,.664-1.768Zm12.5-6.758H231.27V0h-3.428V-11.572h-4.189v-2.646h11.885ZM245.8-6.025H240.41v3.389h6.367V0h-9.795V-14.219H246.8v2.646H240.41v3H245.8Zm7.656,1.006H251.6V0h-3.428V-14.219h5.6a6.241,6.241,0,0,1,3.955,1.123,3.807,3.807,0,0,1,1.426,3.174,4.625,4.625,0,0,1-.6,2.461,4.264,4.264,0,0,1-1.88,1.582l2.969,5.732V0h-3.672ZM251.6-7.666h2.168a1.949,1.949,0,0,0,1.47-.513,1.979,1.979,0,0,0,.493-1.431,2,2,0,0,0-.5-1.44,1.931,1.931,0,0,0-1.465-.522H251.6ZM264.873,0h-3.418V-14.219h3.418Zm-1.3-18.027h3.477l-2.715,3.066H261.65ZM274.59-3.779a1.408,1.408,0,0,0-.532-1.172,6.615,6.615,0,0,0-1.87-.869A17.941,17.941,0,0,1,270-6.689q-2.764-1.357-2.764-3.73a3.345,3.345,0,0,1,.688-2.085,4.453,4.453,0,0,1,1.948-1.406,7.582,7.582,0,0,1,2.832-.5,6.632,6.632,0,0,1,2.749.547,4.352,4.352,0,0,1,1.89,1.558,4.068,4.068,0,0,1,.674,2.31H274.6a1.719,1.719,0,0,0-.532-1.348,2.075,2.075,0,0,0-1.44-.479,2.34,2.34,0,0,0-1.45.405,1.243,1.243,0,0,0-.532,1.03,1.252,1.252,0,0,0,.586.991,7.389,7.389,0,0,0,2.061.918,12.623,12.623,0,0,1,2.422,1.021,4.07,4.07,0,0,1,2.3,3.662,3.472,3.472,0,0,1-1.406,2.93A6.255,6.255,0,0,1,272.754.2a7.653,7.653,0,0,1-3.13-.62,4.719,4.719,0,0,1-2.109-1.7,4.427,4.427,0,0,1-.708-2.485h3.438a2.181,2.181,0,0,0,.591,1.685,2.793,2.793,0,0,0,1.919.542,2.206,2.206,0,0,0,1.343-.366A1.209,1.209,0,0,0,274.59-3.779Zm16.348-7.793H286.67V0h-3.428V-11.572h-4.189v-2.646h11.885ZM296.035,0h-3.418V-14.219h3.418Zm13.887-4.814a5.193,5.193,0,0,1-.8,2.622A4.833,4.833,0,0,1,307.065-.43,7,7,0,0,1,304.043.2a5.584,5.584,0,0,1-4.414-1.826,7.54,7.54,0,0,1-1.611-5.156v-.7a8.607,8.607,0,0,1,.728-3.657,5.512,5.512,0,0,1,2.095-2.422A5.844,5.844,0,0,1,304-14.424a6.129,6.129,0,0,1,4.16,1.362,5.383,5.383,0,0,1,1.787,3.755h-3.418a2.547,2.547,0,0,0-.654-1.865A2.691,2.691,0,0,0,304-11.738a2.047,2.047,0,0,0-1.875.957,6.151,6.151,0,0,0-.625,3.057v1.006a6.806,6.806,0,0,0,.571,3.252,2.091,2.091,0,0,0,1.968.977,2.632,2.632,0,0,0,1.807-.557,2.363,2.363,0,0,0,.664-1.768Zm9.7,2.158h-4.7L314.1,0h-3.662l5.215-14.219h3.223L324.131,0h-3.682ZM315.742-5.3H318.8l-1.533-4.932ZM332.5-3.779a1.408,1.408,0,0,0-.532-1.172,6.615,6.615,0,0,0-1.87-.869,17.941,17.941,0,0,1-2.187-.869q-2.764-1.357-2.764-3.73a3.345,3.345,0,0,1,.688-2.085,4.453,4.453,0,0,1,1.948-1.406,7.582,7.582,0,0,1,2.832-.5,6.632,6.632,0,0,1,2.749.547,4.352,4.352,0,0,1,1.89,1.558,4.068,4.068,0,0,1,.674,2.31H332.51a1.719,1.719,0,0,0-.532-1.348,2.075,2.075,0,0,0-1.44-.479,2.34,2.34,0,0,0-1.45.405,1.243,1.243,0,0,0-.532,1.03,1.252,1.252,0,0,0,.586.991,7.389,7.389,0,0,0,2.061.918,12.623,12.623,0,0,1,2.422,1.021,4.07,4.07,0,0,1,2.3,3.662,3.472,3.472,0,0,1-1.406,2.93A6.255,6.255,0,0,1,330.664.2a7.653,7.653,0,0,1-3.13-.62,4.719,4.719,0,0,1-2.109-1.7,4.427,4.427,0,0,1-.708-2.485h3.438a2.181,2.181,0,0,0,.591,1.685,2.793,2.793,0,0,0,1.919.542,2.206,2.206,0,0,0,1.343-.366A1.209,1.209,0,0,0,332.5-3.779Z" transform="translate(506 8997)" fill="#12263f"/>
      <path id="Trazado_192671" data-name="Trazado 192671" d="M12.578-4.814a5.193,5.193,0,0,1-.8,2.622A4.833,4.833,0,0,1,9.722-.43,7,7,0,0,1,6.7.2,5.584,5.584,0,0,1,2.285-1.631,7.54,7.54,0,0,1,.674-6.787v-.7A8.607,8.607,0,0,1,1.4-11.147,5.513,5.513,0,0,1,3.5-13.569a5.844,5.844,0,0,1,3.164-.854,6.129,6.129,0,0,1,4.16,1.362,5.383,5.383,0,0,1,1.787,3.755H9.189a2.547,2.547,0,0,0-.654-1.865,2.691,2.691,0,0,0-1.875-.566,2.048,2.048,0,0,0-1.875.957A6.151,6.151,0,0,0,4.16-7.725v1.006a6.806,6.806,0,0,0,.571,3.252A2.091,2.091,0,0,0,6.7-2.49a2.632,2.632,0,0,0,1.807-.557A2.363,2.363,0,0,0,9.17-4.814Zm5.049,2.178h5.967V0H14.2V-14.219h3.428ZM33.3-2.656H28.6L27.783,0H24.121l5.215-14.219h3.223L37.813,0H34.131ZM29.424-5.3H32.48l-1.533-4.932ZM46.182-3.779a1.408,1.408,0,0,0-.532-1.172,6.615,6.615,0,0,0-1.87-.869,17.942,17.942,0,0,1-2.187-.869q-2.764-1.357-2.764-3.73a3.345,3.345,0,0,1,.688-2.085,4.453,4.453,0,0,1,1.948-1.406,7.582,7.582,0,0,1,2.832-.5,6.632,6.632,0,0,1,2.749.547,4.352,4.352,0,0,1,1.89,1.558A4.068,4.068,0,0,1,49.609-10H46.191a1.719,1.719,0,0,0-.532-1.348,2.075,2.075,0,0,0-1.44-.479,2.339,2.339,0,0,0-1.45.405,1.243,1.243,0,0,0-.532,1.03,1.252,1.252,0,0,0,.586.991,7.389,7.389,0,0,0,2.061.918A12.623,12.623,0,0,1,47.3-7.461a4.07,4.07,0,0,1,2.3,3.662A3.472,3.472,0,0,1,48.2-.869,6.255,6.255,0,0,1,44.346.2a7.653,7.653,0,0,1-3.13-.62,4.719,4.719,0,0,1-2.109-1.7A4.428,4.428,0,0,1,38.4-4.609h3.438a2.181,2.181,0,0,0,.591,1.685,2.793,2.793,0,0,0,1.919.542,2.206,2.206,0,0,0,1.343-.366A1.209,1.209,0,0,0,46.182-3.779ZM55.02,0H51.6V-14.219H55.02ZM66.357-5.664H60.83V0H57.4V-14.219h9.512v2.646H60.83V-8.3h5.527ZM71.992,0H68.574V-14.219h3.418ZM85.879-4.814a5.193,5.193,0,0,1-.8,2.622A4.833,4.833,0,0,1,83.022-.43,7,7,0,0,1,80,.2a5.584,5.584,0,0,1-4.414-1.826,7.54,7.54,0,0,1-1.611-5.156v-.7a8.607,8.607,0,0,1,.728-3.657A5.513,5.513,0,0,1,76.8-13.569a5.844,5.844,0,0,1,3.164-.854,6.129,6.129,0,0,1,4.16,1.362,5.383,5.383,0,0,1,1.787,3.755H82.49a2.547,2.547,0,0,0-.654-1.865,2.691,2.691,0,0,0-1.875-.566,2.048,2.048,0,0,0-1.875.957,6.151,6.151,0,0,0-.625,3.057v1.006a6.806,6.806,0,0,0,.571,3.252A2.091,2.091,0,0,0,80-2.49a2.632,2.632,0,0,0,1.807-.557,2.363,2.363,0,0,0,.664-1.768Zm9.7,2.158h-4.7L90.059,0H86.4l5.215-14.219h3.223L100.088,0H96.406ZM91.7-5.3h3.057l-1.533-4.932Zm20.723.488a5.193,5.193,0,0,1-.8,2.622A4.833,4.833,0,0,1,109.565-.43,7,7,0,0,1,106.543.2a5.584,5.584,0,0,1-4.414-1.826,7.54,7.54,0,0,1-1.611-5.156v-.7a8.607,8.607,0,0,1,.728-3.657,5.513,5.513,0,0,1,2.095-2.422,5.844,5.844,0,0,1,3.164-.854,6.129,6.129,0,0,1,4.16,1.362,5.383,5.383,0,0,1,1.787,3.755h-3.418a2.547,2.547,0,0,0-.654-1.865,2.691,2.691,0,0,0-1.875-.566,2.048,2.048,0,0,0-1.875.957A6.151,6.151,0,0,0,104-7.725v1.006a6.806,6.806,0,0,0,.571,3.252,2.091,2.091,0,0,0,1.968.977,2.632,2.632,0,0,0,1.807-.557,2.363,2.363,0,0,0,.664-1.768ZM117.7,0h-3.418V-14.219H117.7Zm14.424-6.816a8.385,8.385,0,0,1-.771,3.682,5.7,5.7,0,0,1-2.192,2.466A6.1,6.1,0,0,1,125.918.2,6.191,6.191,0,0,1,122.7-.64,5.692,5.692,0,0,1,120.5-3.027a8.144,8.144,0,0,1-.825-3.564v-.8a8.422,8.422,0,0,1,.767-3.687,5.688,5.688,0,0,1,2.2-2.466,6.147,6.147,0,0,1,3.257-.869,6.087,6.087,0,0,1,3.223.859,5.79,5.79,0,0,1,2.2,2.446,8.18,8.18,0,0,1,.8,3.638Zm-3.486-.6a5.979,5.979,0,0,0-.708-3.218,2.271,2.271,0,0,0-2.026-1.1q-2.578,0-2.725,3.867l-.01,1.045a6.149,6.149,0,0,0,.693,3.213,2.268,2.268,0,0,0,2.061,1.123,2.24,2.24,0,0,0,2-1.1,5.982,5.982,0,0,0,.713-3.174ZM126.3-18.027h3.477l-2.715,3.066h-2.686ZM145.762,0h-3.408l-5.039-8.848V0h-3.428V-14.219h3.428l5.029,8.848v-8.848h3.418Z" transform="translate(926 8997)" fill="#12263f"/>
      <path id="Trazado_192668" data-name="Trazado 192668" d="M12,0H177a12,12,0,0,1,12,12V136a12,12,0,0,1-12,12H12A12,12,0,0,1,0,136V12A12,12,0,0,1,12,0Z" transform="translate(1158 8809)" fill="#4dd0e1"/>
      <path id="Trazado_192672" data-name="Trazado 192672" d="M-7.319-4.814a5.193,5.193,0,0,1-.8,2.622A4.833,4.833,0,0,1-10.176-.43,7,7,0,0,1-13.2.2a5.584,5.584,0,0,1-4.414-1.826,7.54,7.54,0,0,1-1.611-5.156v-.7a8.607,8.607,0,0,1,.728-3.657A5.513,5.513,0,0,1-16.4-13.569a5.844,5.844,0,0,1,3.164-.854,6.129,6.129,0,0,1,4.16,1.362A5.383,5.383,0,0,1-7.29-9.307h-3.418a2.547,2.547,0,0,0-.654-1.865,2.691,2.691,0,0,0-1.875-.566,2.048,2.048,0,0,0-1.875.957,6.151,6.151,0,0,0-.625,3.057v1.006a6.806,6.806,0,0,0,.571,3.252A2.091,2.091,0,0,0-13.2-2.49a2.632,2.632,0,0,0,1.807-.557,2.363,2.363,0,0,0,.664-1.768Zm9.7,2.158h-4.7L-3.14,0H-6.8l5.215-14.219H1.636L6.89,0H3.208ZM-1.5-5.3H1.558L.024-10.234Zm14.707.283H11.353V0H7.925V-14.219h5.6A6.241,6.241,0,0,1,17.476-13.1,3.807,3.807,0,0,1,18.9-9.922a4.625,4.625,0,0,1-.6,2.461,4.264,4.264,0,0,1-1.88,1.582L19.39-.146V0H15.718ZM11.353-7.666h2.168a1.949,1.949,0,0,0,1.47-.513,1.979,1.979,0,0,0,.493-1.431,2,2,0,0,0-.5-1.44,1.931,1.931,0,0,0-1.465-.522H11.353ZM-28.96,28h-3.408l-5.039-8.848V28h-3.428V13.781h3.428l5.029,8.848V13.781h3.418Zm14.209-6.816a8.385,8.385,0,0,1-.771,3.682,5.7,5.7,0,0,1-2.192,2.466,6.1,6.1,0,0,1-3.237.864,6.191,6.191,0,0,1-3.223-.835,5.692,5.692,0,0,1-2.192-2.388,8.144,8.144,0,0,1-.825-3.564v-.8a8.422,8.422,0,0,1,.767-3.687,5.688,5.688,0,0,1,2.2-2.466,6.147,6.147,0,0,1,3.257-.869,6.087,6.087,0,0,1,3.223.859,5.79,5.79,0,0,1,2.2,2.446,8.18,8.18,0,0,1,.8,3.638Zm-3.486-.6a5.979,5.979,0,0,0-.708-3.218,2.271,2.271,0,0,0-2.026-1.1q-2.578,0-2.725,3.867l-.01,1.045a6.149,6.149,0,0,0,.693,3.213,2.268,2.268,0,0,0,2.061,1.123,2.24,2.24,0,0,0,2-1.1,5.982,5.982,0,0,0,.713-3.174Zm15.586-4.16H-6.919V28h-3.428V16.428h-4.189V13.781H-2.651Zm17.344,6.758a5.193,5.193,0,0,1-.8,2.622,4.833,4.833,0,0,1-2.056,1.763,7,7,0,0,1-3.022.625A5.584,5.584,0,0,1,4.4,26.369a7.54,7.54,0,0,1-1.611-5.156v-.7a8.607,8.607,0,0,1,.728-3.657A5.513,5.513,0,0,1,5.61,14.431a5.844,5.844,0,0,1,3.164-.854,6.129,6.129,0,0,1,4.16,1.362,5.383,5.383,0,0,1,1.787,3.755H11.3a2.547,2.547,0,0,0-.654-1.865,2.691,2.691,0,0,0-1.875-.566,2.048,2.048,0,0,0-1.875.957,6.151,6.151,0,0,0-.625,3.057v1.006a6.806,6.806,0,0,0,.571,3.252,2.091,2.091,0,0,0,1.968.977,2.632,2.632,0,0,0,1.807-.557,2.363,2.363,0,0,0,.664-1.768Zm9.7,2.158h-4.7L18.872,28H15.21l5.215-14.219h3.223L28.9,28H25.22ZM20.513,22.7h3.057l-1.533-4.932Zm14.707.283H33.364V28H29.937V13.781h5.6A6.241,6.241,0,0,1,39.487,14.9a3.807,3.807,0,0,1,1.426,3.174,4.625,4.625,0,0,1-.6,2.461,4.264,4.264,0,0,1-1.88,1.582L41.4,27.854V28H37.729Zm-1.855-2.646h2.168A1.949,1.949,0,0,0,37,19.821a1.979,1.979,0,0,0,.493-1.431,2,2,0,0,0-.5-1.44,1.931,1.931,0,0,0-1.465-.522H33.364Z" transform="translate(1251 8876)" fill="#fff"/>
      <path id="Trazado_192667" data-name="Trazado 192667" d="M6.97-17.773,10.938-5.408l3.955-12.366h5.64V0h-4.3V-4.15l.415-8.5L12.354,0H9.521L5.212-12.659,5.627-4.15V0H1.343V-17.773ZM30.505,0a4.645,4.645,0,0,1-.391-1.184A3.825,3.825,0,0,1,26.941.244,4.686,4.686,0,0,1,23.767-.885a3.594,3.594,0,0,1-1.306-2.838A3.694,3.694,0,0,1,24.048-6.97a8.085,8.085,0,0,1,4.614-1.1h1.27v-.7q0-1.819-1.575-1.819a1.284,1.284,0,0,0-1.465,1.44H22.778a3.693,3.693,0,0,1,1.63-3.113,6.843,6.843,0,0,1,4.156-1.2,6,6,0,0,1,3.992,1.233,4.287,4.287,0,0,1,1.5,3.381v5.847a5.988,5.988,0,0,0,.562,2.783V0ZM27.93-2.686a2.3,2.3,0,0,0,1.276-.33,2.066,2.066,0,0,0,.726-.745V-5.872h-1.2q-2.148,0-2.148,1.929a1.178,1.178,0,0,0,.378.909A1.369,1.369,0,0,0,27.93-2.686ZM41.919-2.93a1.83,1.83,0,0,0,1.343-.47,1.723,1.723,0,0,0,.464-1.312h3.857a4.566,4.566,0,0,1-1.556,3.564A5.789,5.789,0,0,1,42.017.244a5.862,5.862,0,0,1-4.541-1.807,7.118,7.118,0,0,1-1.66-5v-.171a8.045,8.045,0,0,1,.739-3.534,5.377,5.377,0,0,1,2.13-2.356,6.351,6.351,0,0,1,3.3-.824,5.716,5.716,0,0,1,4.089,1.428,5.066,5.066,0,0,1,1.514,3.87H43.726a2.258,2.258,0,0,0-.5-1.575,1.728,1.728,0,0,0-1.343-.549q-1.6,0-1.868,2.039a14.385,14.385,0,0,0-.085,1.782A5.65,5.65,0,0,0,40.405-3.7,1.648,1.648,0,0,0,41.919-2.93Zm11.426-8.862a4.117,4.117,0,0,1,3.369-1.66,4.105,4.105,0,0,1,3.3,1.294,5.814,5.814,0,0,1,1.135,3.821V0H57.019V-8.24a2.325,2.325,0,0,0-.427-1.544,1.836,1.836,0,0,0-1.453-.494,1.977,1.977,0,0,0-1.794.806V0H49.231V-18.75h4.114ZM67.773,0H63.647V-13.208h4.126ZM63.4-16.614a1.836,1.836,0,0,1,.635-1.44,2.4,2.4,0,0,1,1.648-.562,2.4,2.4,0,0,1,1.648.562,1.836,1.836,0,0,1,.635,1.44,1.836,1.836,0,0,1-.635,1.44,2.4,2.4,0,0,1-1.648.562,2.4,2.4,0,0,1-1.648-.562A1.836,1.836,0,0,1,63.4-16.614Zm10.681,3.406.134,1.55a4.479,4.479,0,0,1,3.772-1.794,3.768,3.768,0,0,1,3.082,1.233,5.87,5.87,0,0,1,1.056,3.711V0H78V-8.337a2.229,2.229,0,0,0-.4-1.471,1.864,1.864,0,0,0-1.465-.47,1.962,1.962,0,0,0-1.794.952V0H70.227V-13.208ZM90.8.244a6.79,6.79,0,0,1-4.919-1.813A6.26,6.26,0,0,1,84-6.287v-.342a8.111,8.111,0,0,1,.751-3.577,5.493,5.493,0,0,1,2.191-2.4,6.615,6.615,0,0,1,3.418-.848,5.717,5.717,0,0,1,4.395,1.727,6.788,6.788,0,0,1,1.611,4.816v1.6H88.184a2.965,2.965,0,0,0,.964,1.746,2.869,2.869,0,0,0,1.929.635A3.7,3.7,0,0,0,94.128-4.3l1.88,2.222A5.255,5.255,0,0,1,93.829-.385,7.363,7.363,0,0,1,90.8.244Zm-.464-10.522q-1.807,0-2.148,2.393h4.15V-8.2a2.038,2.038,0,0,0-.5-1.532A1.992,1.992,0,0,0,90.332-10.278ZM108.716-3.3h7.458V0H104.431V-17.773h4.285ZM124.182.244a6.79,6.79,0,0,1-4.919-1.813,6.26,6.26,0,0,1-1.88-4.718v-.342a8.111,8.111,0,0,1,.751-3.577,5.493,5.493,0,0,1,2.191-2.4,6.615,6.615,0,0,1,3.418-.848,5.717,5.717,0,0,1,4.395,1.727,6.788,6.788,0,0,1,1.611,4.816v1.6H121.57a2.965,2.965,0,0,0,.964,1.746,2.869,2.869,0,0,0,1.929.635A3.7,3.7,0,0,0,127.515-4.3l1.88,2.222a5.255,5.255,0,0,1-2.179,1.691A7.363,7.363,0,0,1,124.182.244Zm-.464-10.522q-1.807,0-2.148,2.393h4.15V-8.2a2.038,2.038,0,0,0-.5-1.532A1.992,1.992,0,0,0,123.718-10.278ZM138.843,0a4.645,4.645,0,0,1-.391-1.184A3.825,3.825,0,0,1,135.278.244,4.686,4.686,0,0,1,132.1-.885,3.594,3.594,0,0,1,130.8-3.723a3.694,3.694,0,0,1,1.587-3.247A8.085,8.085,0,0,1,137-8.069h1.27v-.7q0-1.819-1.575-1.819a1.284,1.284,0,0,0-1.465,1.44h-4.114a3.693,3.693,0,0,1,1.63-3.113,6.843,6.843,0,0,1,4.156-1.2,6,6,0,0,1,3.992,1.233,4.287,4.287,0,0,1,1.5,3.381v5.847a5.988,5.988,0,0,0,.562,2.783V0Zm-2.576-2.686a2.3,2.3,0,0,0,1.276-.33,2.066,2.066,0,0,0,.726-.745V-5.872h-1.2q-2.148,0-2.148,1.929a1.178,1.178,0,0,0,.378.909A1.369,1.369,0,0,0,136.267-2.686Zm16.394-6.8-1.355-.1a2.434,2.434,0,0,0-2.49,1.221V0H144.7V-13.208h3.857l.134,1.7a3.185,3.185,0,0,1,2.893-1.941,4.012,4.012,0,0,1,1.147.146Zm5.261-3.723.134,1.55a4.479,4.479,0,0,1,3.772-1.794,3.768,3.768,0,0,1,3.082,1.233,5.87,5.87,0,0,1,1.056,3.711V0h-4.126V-8.337a2.229,2.229,0,0,0-.4-1.471,1.864,1.864,0,0,0-1.465-.47,1.962,1.962,0,0,0-1.794.952V0h-4.114V-13.208ZM172.583,0h-4.126V-13.208h4.126Zm-4.37-16.614a1.836,1.836,0,0,1,.635-1.44,2.4,2.4,0,0,1,1.648-.562,2.4,2.4,0,0,1,1.648.562,1.836,1.836,0,0,1,.635,1.44,1.836,1.836,0,0,1-.635,1.44,2.4,2.4,0,0,1-1.648.562,2.4,2.4,0,0,1-1.648-.562A1.836,1.836,0,0,1,168.213-16.614Zm10.681,3.406.134,1.55a4.479,4.479,0,0,1,3.772-1.794,3.768,3.768,0,0,1,3.082,1.233,5.87,5.87,0,0,1,1.056,3.711V0h-4.126V-8.337a2.229,2.229,0,0,0-.4-1.471,1.864,1.864,0,0,0-1.465-.47,1.962,1.962,0,0,0-1.794.952V0h-4.114V-13.208ZM188.733-6.7a8.918,8.918,0,0,1,.659-3.54,5.307,5.307,0,0,1,1.892-2.374,4.988,4.988,0,0,1,2.869-.836,3.966,3.966,0,0,1,3.223,1.392l.146-1.147h3.735V-.5a5.569,5.569,0,0,1-.812,3.033A5.209,5.209,0,0,1,198.1,4.51a8.637,8.637,0,0,1-3.564.69,7.451,7.451,0,0,1-2.814-.549,5.079,5.079,0,0,1-2.081-1.428L191.357.806a3.772,3.772,0,0,0,3.027,1.355q2.734,0,2.734-2.808v-.415A3.863,3.863,0,0,1,194.128.244a4.774,4.774,0,0,1-3.906-1.849,7.662,7.662,0,0,1-1.489-4.95Zm4.126.256a4.7,4.7,0,0,0,.61,2.57,1.926,1.926,0,0,0,1.709.946,2.185,2.185,0,0,0,1.941-.891V-9.375a2.13,2.13,0,0,0-1.917-.9,1.938,1.938,0,0,0-1.721.983A5.358,5.358,0,0,0,192.859-6.445Z" transform="translate(261 8794)" fill="#ffa726"/>
      <path id="Trazado_192673" data-name="Trazado 192673" d="M13.115-6.816a8.385,8.385,0,0,1-.771,3.682A5.7,5.7,0,0,1,10.151-.669,6.1,6.1,0,0,1,6.914.2,6.191,6.191,0,0,1,3.691-.64,5.692,5.692,0,0,1,1.5-3.027,8.144,8.144,0,0,1,.674-6.592v-.8a8.422,8.422,0,0,1,.767-3.687,5.688,5.688,0,0,1,2.2-2.466,6.147,6.147,0,0,1,3.257-.869,6.087,6.087,0,0,1,3.223.859,5.79,5.79,0,0,1,2.2,2.446,8.18,8.18,0,0,1,.8,3.638Zm-3.486-.6a5.979,5.979,0,0,0-.708-3.218,2.271,2.271,0,0,0-2.026-1.1q-2.578,0-2.725,3.867L4.16-6.816A6.149,6.149,0,0,0,4.854-3.6,2.268,2.268,0,0,0,6.914-2.48a2.24,2.24,0,0,0,2-1.1,5.982,5.982,0,0,0,.713-3.174Zm16.406-6.807v9.307a5.349,5.349,0,0,1-.674,2.739A4.365,4.365,0,0,1,23.428-.41,6.812,6.812,0,0,1,20.449.2a5.885,5.885,0,0,1-4.092-1.348,4.806,4.806,0,0,1-1.523-3.691v-9.375h3.447v9.443q.059,2.334,2.168,2.334a2.1,2.1,0,0,0,1.611-.586,2.739,2.739,0,0,0,.547-1.9v-9.287Zm13.3,2.646H35.068V0H31.641V-11.572H27.451v-2.646H39.336Zm4.873,6.748V0H40.781V-14.219h5.674a6.608,6.608,0,0,1,2.886.6,4.526,4.526,0,0,1,1.943,1.709,4.667,4.667,0,0,1,.688,2.515,4.114,4.114,0,0,1-1.489,3.325A6.179,6.179,0,0,1,46.4-4.824Zm0-2.646h2.246a2.118,2.118,0,0,0,1.519-.5A1.85,1.85,0,0,0,48.5-9.375a2.287,2.287,0,0,0-.537-1.592,1.9,1.9,0,0,0-1.465-.605H44.209Zm20.742-6.748v9.307a5.349,5.349,0,0,1-.674,2.739A4.365,4.365,0,0,1,62.344-.41,6.812,6.812,0,0,1,59.365.2a5.885,5.885,0,0,1-4.092-1.348A4.806,4.806,0,0,1,53.75-4.844v-9.375H57.2v9.443q.059,2.334,2.168,2.334a2.1,2.1,0,0,0,1.611-.586,2.739,2.739,0,0,0,.547-1.9v-9.287Zm13.3,2.646H73.984V0H70.557V-11.572H66.367v-2.646H78.252Z" transform="translate(1213 8997)" fill="#12263f"/>
    </g>
  </g>
</svg>
