<svg xmlns="http://www.w3.org/2000/svg" xmlns:xlink="http://www.w3.org/1999/xlink" width="1133" height="714" viewBox="0 0 1133 714">
  <defs>
    <clipPath id="clip-path">
      <rect id="Rectángulo_43637" data-name="Rectángulo 43637" width="54.113" height="61.523" fill="#fff"/>
    </clipPath>
    <clipPath id="clip-path-2">
      <rect id="Rectángulo_43638" data-name="Rectángulo 43638" width="69.519" height="69.525" fill="#fff"/>
    </clipPath>
    <clipPath id="clip-path-3">
      <rect id="Rectángulo_43640" data-name="Rectángulo 43640" width="50.113" height="53.969" fill="#fff"/>
    </clipPath>
    <clipPath id="clip-path-4">
      <rect id="Rectángulo_43642" data-name="Rectángulo 43642" width="51.813" height="64.765" fill="#fff"/>
    </clipPath>
    <clipPath id="clip-path-5">
      <rect id="Rectángulo_43643" data-name="Rectángulo 43643" width="43.258" height="43.257" fill="#fff"/>
    </clipPath>
  </defs>
  <g id="Grupo_144952" data-name="Grupo 144952" transform="translate(924 9591)">
    <circle id="Elipse_5192" data-name="Elipse 5192" cx="158.5" cy="158.5" r="158.5" transform="translate(-376 -9467)" fill="#039be5"/>
    <text id="MACHINE_LEARNING" data-name="MACHINE LEARNING" transform="translate(-326 -9351)" fill="#fff" font-size="27" font-family="Roboto-BoldItalic, Roboto" font-weight="700" font-style="italic"><tspan x="0" y="0">Machine Learning</tspan></text>
    <text id="Disciplina_científica_del_ámbito_de_la_Inteligencia_Artificial_que_crea_sistemas_que_aprenden_automáticamente" data-name="Disciplina científica del ámbito de la Inteligencia Artificial que crea sistemas que aprenden automáticamente" transform="translate(-341 -9319)" fill="#fff" font-size="20" font-family="HelveticaNeue, Helvetica Neue"><tspan x="26.46" y="19">Disciplina científica del </tspan><tspan x="19.59" y="43">ámbito de la Inteligencia </tspan><tspan x="8.86" y="67">Artificial que crea sistemas </tspan><tspan x="66.62" y="91">que aprenden </tspan><tspan x="50.69" y="115">automáticamente</tspan></text>
    <path id="Trazado_191698" data-name="Trazado 191698" d="M-3649.665-9438.366l-4.243-4.242,1.414-1.415,4.242,4.243Zm-8.485-8.485-4.243-4.242,1.414-1.414,4.243,4.242Zm-8.485-8.485-4.242-4.242,1.414-1.414,4.243,4.242Zm-8.485-8.485-4.243-4.242,1.414-1.414,4.242,4.242Zm-8.485-8.485-4.243-4.242,1.414-1.414,4.243,4.242Zm-8.485-8.485-4.242-4.242,1.414-1.414,4.243,4.242Zm-8.485-8.485-4.243-4.242,1.414-1.414,4.242,4.242Zm-8.485-8.485-.391-.391,1.414-1.414.391.391Z" transform="translate(3004)" fill="#26a69a"/>
    <circle id="Elipse_5193" data-name="Elipse 5193" cx="51.5" cy="51.5" r="51.5" transform="translate(-790 -9591)" fill="#26a69a"/>
    <path id="Trazado_191699" data-name="Trazado 191699" d="M-3719-9318h-6v-2h6Zm-12,0h-6v-2h6Zm-12,0h-6v-2h6Zm-12,0h-6v-2h6Zm-12,0h-6v-2h6Zm-12,0h-6v-2h6Zm-12,0h-4.25v-2h4.25Z" transform="translate(3004)" fill="#26a69a"/>
    <circle id="Elipse_5194" data-name="Elipse 5194" cx="51.5" cy="51.5" r="51.5" transform="translate(-901 -9370)" fill="#26a69a"/>
    <path id="Trazado_191700" data-name="Trazado 191700" d="M-3708.039-9438.365l-1.414-1.414.391-.391,1.414,1.414Zm4.634-4.634-1.414-1.414,4.243-4.242,1.414,1.414Zm8.485-8.485-1.414-1.414,4.242-4.242,1.414,1.414Zm8.485-8.485-1.414-1.414,4.243-4.242,1.414,1.414Zm8.485-8.485-1.414-1.414,4.243-4.242,1.414,1.414Zm8.485-8.485-1.414-1.414,4.242-4.242,1.414,1.414Zm8.485-8.485-1.414-1.414,4.243-4.242,1.414,1.414Zm8.485-8.484-1.414-1.415,4.243-4.242,1.414,1.414Z" transform="translate(3004 330.999)" fill="#26a69a"/>
    <circle id="Elipse_5195" data-name="Elipse 5195" cx="51.5" cy="51.5" r="51.5" transform="translate(-790 -9128)" fill="#26a69a"/>
    <text id="Concepto_Concepto_más_amplio_que_el_Machine_Learning" data-name="Concepto
Concepto más amplio que el 
Machine Learning" transform="translate(-924 -9487)" fill="#07645b" font-size="16" font-family="Roboto-Bold, Roboto" font-weight="700"><tspan x="0" y="0">Concepto</tspan><tspan font-family="Roboto-Regular, Roboto" font-weight="400"><tspan x="0" y="24">Concepto más amplio que el </tspan><tspan x="0" y="48">Machine Learning</tspan></tspan></text>
    <text id="Funciones_Imitar_las_funciones_cognitivas_de_los_humanos_haciendo_uso_de_la_computación" data-name="Funciones
Imitar las funciones cognitivas de los humanos, haciendo uso de la computación" transform="translate(-924 -9258)" fill="#07645b" font-size="16" font-family="Roboto-Bold, Roboto" font-weight="700"><tspan x="0" y="15">Funciones</tspan><tspan font-family="Roboto-Regular, Roboto" font-weight="400"><tspan x="0" y="39">Imitar las funciones </tspan><tspan x="0" y="63">cognitivas de los humanos, </tspan><tspan x="0" y="87">haciendo uso de la </tspan><tspan x="0" y="111">computación</tspan></tspan></text>
    <text id="Algoritmos_Se_trata_de_realizar_tareas_basadas_en_algoritmos_de_una_manera_inteligente_" data-name="Algoritmos
Se trata de realizar tareas basadas en algoritmos de una manera “inteligente”" transform="translate(-924 -9037)" fill="#07645b" font-size="16" font-family="Roboto-Bold, Roboto" font-weight="700"><tspan x="0" y="15">Algoritmos</tspan><tspan font-family="Roboto-Regular, Roboto" font-weight="400"><tspan x="0" y="39">Se trata de realizar tareas </tspan><tspan x="0" y="63">basadas en algoritmos de una </tspan><tspan x="0" y="87">manera “inteligente”</tspan></tspan></text>
    <path id="Trazado_191701" data-name="Trazado 191701" d="M-3708.039-9438.366l-1.414-1.414,4.242-4.243,1.414,1.415Zm8.485-8.485-1.414-1.414,4.243-4.242,1.414,1.414Zm8.485-8.485-1.414-1.414,4.243-4.242,1.414,1.414Zm8.485-8.485-1.414-1.414,4.242-4.242,1.414,1.414Zm8.485-8.485-1.414-1.414,4.243-4.242,1.414,1.414Zm8.485-8.485-1.414-1.414,4.243-4.242,1.414,1.414Zm8.485-8.485-1.414-1.414,4.242-4.242,1.414,1.414Zm8.485-8.485-1.414-1.414.391-.391,1.414,1.414Z" transform="translate(3582)" fill="#1565c0"/>
    <path id="Trazado_191702" data-name="Trazado 191702" d="M-3719-9318h-6v-2h6Zm-12,0h-6v-2h6Zm-12,0h-6v-2h6Zm-12,0h-6v-2h6Zm-12,0h-6v-2h6Zm-12,0h-6v-2h6Zm-12,0h-4.25v-2h4.25Z" transform="translate(3738)" fill="#1565c0"/>
    <path id="Trazado_191703" data-name="Trazado 191703" d="M-3649.665-9438.365l-.391-.391,1.414-1.414.391.391ZM-3654.3-9443l-4.242-4.242,1.414-1.414,4.243,4.242Zm-8.485-8.485-4.243-4.242,1.414-1.414,4.242,4.242Zm-8.485-8.485-4.243-4.242,1.414-1.414,4.243,4.242Zm-8.485-8.485L-3684-9472.7l1.414-1.414,4.243,4.242Zm-8.485-8.485-4.243-4.242,1.414-1.414,4.242,4.242Zm-8.485-8.485-4.243-4.242,1.414-1.414,4.243,4.242Zm-8.485-8.484-4.242-4.243,1.414-1.414,4.243,4.242Z" transform="translate(3582 330.999)" fill="#1565c0"/>
    <text id="Aprendizaje_Automático_Se_trata_de_la_capacidad_de_las_máquinas_para_recibir_un_conjunto_de_datos_y_aprender_por_sí_mismos_aprendizaje_automático_" data-name="Aprendizaje Automático
Se trata de la capacidad de las máquinas para recibir un conjunto de datos y aprender por sí mismos (aprendizaje automático)" transform="translate(-156 -9013)" fill="#084386" font-size="16" font-family="Roboto-Bold, Roboto" font-weight="700"><tspan x="0" y="15">Aprendizaje Automático</tspan><tspan font-family="Roboto-Regular, Roboto" font-weight="400"><tspan x="0" y="39">Se trata de la capacidad de las máquinas para </tspan><tspan x="0" y="63">recibir un conjunto de datos y aprender por sí </tspan><tspan x="0" y="87">mismos (aprendizaje automático)</tspan></tspan></text>
    <path id="Elipse_5196" data-name="Elipse 5196" d="M279,0h1.35c.04,0,.073,0,.114,0h0q1.916.01,3.824.045h0l.118,0,.109,0,.211,0,.1,0H285l-.021,1C283,1.021,280.986,1,279,1V0Zm12,.253.231.01h.012l.092,0h.02l.088,0h.021l.1,0,.055,0,.046,0,.06,0,.041,0,.095,0,.075,0h.011q2.529.116,5.046.276l-.064,1c-1.979-.126-3.988-.232-5.971-.316Zm11.975.762.693.06h.006l.093.008.025,0,.073.006.037,0,.052,0,.134.012h.01l.078.007.019,0,.078.007.02,0,.082.007h.009q.833.075,1.664.155l.016,0,.076.007.024,0,.074.007.026,0,.07.007.035,0,.111.011.048,0,.043,0,.06.006.04,0,.068.007.032,0,.077.008.026,0,.1.01h0c.66.066,1.313.133,1.971.2l-.106.994c-1.971-.21-3.973-.4-5.951-.571Zm11.93,1.273q2.981.383,5.941.828l-.149.989c-1.96-.295-3.952-.573-5.92-.825ZM326.77,4.074q.729.126,1.456.255l.034.006.057.01.044.008.052.009.054.01.044.008.073.013.024,0,.317.057h0l.106.019h0q1.823.33,3.64.684l-.191.982c-1.947-.379-3.926-.743-5.881-1.08Zm11.78,2.3c1.96.426,3.9.871,5.849,1.338l-.233.972c-1.929-.463-3.89-.912-5.828-1.333Zm11.668,2.8.694.184.008,0,.087.023.019.005.077.021.194.052.012,0,.086.023h0q1.035.277,2.066.562l.021.006.069.019.028.008.063.017.037.01.058.016.052.014.04.011.2.056h.005l.1.027.009,0c.622.173,1.24.348,1.86.526l-.275.961c-1.907-.546-3.846-1.079-5.764-1.584l.255-.967Zm11.535,3.305.082.025.009,0,.08.025.011,0,.082.026.007,0,.085.026h0q2.687.837,5.35,1.727l-.317.948c-1.881-.628-3.8-1.245-5.69-1.833Zm11.38,3.8.293.105h0l.1.034.011,0,.085.031.016.006.08.029.019.007.292.105.021.008.071.026.036.013.061.022.036.013.057.021.039.014.059.022.035.013.063.023.032.012.084.03.011,0,.094.034.036.013.059.021.039.014.057.021.04.015.057.021.036.013.062.023.033.012.076.028.015.006.295.108.009,0,.091.033.008,0,.089.033.012,0,.094.035h0c.975.361,1.957.731,2.927,1.1l-.358.934c-1.852-.709-3.738-1.408-5.605-2.077Zm11.2,4.291q.736.3,1.47.6l.007,0,.067.028.028.012.057.023.039.016.047.02.056.023.032.013.079.033.011,0q1.618.674,3.222,1.367l.005,0,.085.037.024.011.067.029.03.013.061.026.035.015.056.024.039.017.012.005-.4.917c-1.82-.789-3.674-1.569-5.511-2.318Zm11.01,4.773q.895.411,1.786.828h0l.082.038.006,0,.4.189.021.01.056.026.038.018.049.023.042.02.047.022.047.022.042.02.051.024.039.018.06.028.031.014.09.043.015.007.076.036.031.014.059.028.041.02.048.023.043.021.048.023.041.02.053.025.036.017.057.027.036.017.06.029.03.014.088.042.032.015.06.029.041.019.046.022.048.023.043.02.047.023.043.021.046.022.045.022.047.022.034.017.058.028.013.006.32.154.008,0,.076.037.01,0,.074.036.012.006.078.038h0l.59.286-.437.9c-1.784-.867-3.6-1.726-5.405-2.555Zm10.793,5.244q1.75.9,3.486,1.819l.009,0,.073.039.013.007.069.037.019.01.067.036.015.008.07.037.014.007.221.118.016.009.054.029.035.019.05.027.038.02.047.025.041.022.047.025.043.023.042.023.053.028.035.018.082.044,0,0,.184.1.006,0,.085.046.011.006.082.044.009,0,.082.044.01.005.2.107-.475.88c-1.745-.943-3.525-1.88-5.29-2.785Zm10.556,5.7q2.609,1.484,5.184,3.021l-.513.858c-1.7-1.017-3.441-2.03-5.165-3.011ZM427,42.445l.038.024.04.025.083.052.013.008.071.044.028.018.06.038.023.014.063.04.023.015.066.041.019.012.07.044.015.009.082.052,0,0,.442.279,0,0,.882.561,0,0,.529.339h0l.083.053.01.007.073.047.017.011.073.047.012.007.077.05.01.006.26.168.01.006.073.047.024.016.06.039.029.019.053.034.033.022.052.034.034.022.047.031.038.024.045.029.04.026.037.024.1.065.024.016.053.034.029.019.055.036.026.017.056.036.026.017.058.038.021.014.061.04.016.011.068.044,0,0,.7.461-.549.836c-1.658-1.09-3.35-2.176-5.031-3.23Zm10.027,6.591,0,0,.151.1h0l.289.2.023.016.049.034.033.023.044.03.04.028.042.029.038.026.043.03.042.029.039.027.047.033.032.022.066.046.016.011.168.117.013.009.071.049.018.013.064.045.022.016.059.041.027.019.06.042.021.015.067.047.017.012.335.234.018.013.064.045.024.017.057.04.028.02.059.041.022.015.063.045.019.014.072.051.009.007.253.178.012.008.07.049.02.014.062.044.025.018.059.042.023.016.06.042.024.017.068.048.012.008.081.058h0l.17.12.005,0,.078.056.01.007.072.051.016.011.07.05.011.008.077.055.005,0c.42.3.829.592,1.247.893l-.585.811c-1.609-1.16-3.254-2.318-4.887-3.443Zm9.735,7.015q2.4,1.806,4.753,3.662l-.619.785c-1.558-1.228-3.152-2.456-4.736-3.649Zm9.426,7.426q.937.771,1.867,1.55l.011.009.054.045.023.02.044.037.035.029.04.034.037.031.037.031.043.036.032.027.058.049.015.012.235.2.01.009.07.059.008.007.068.057.015.013.065.055.012.011.067.057.011.009q.869.735,1.733,1.477l-.652.758c-1.5-1.293-3.044-2.588-4.575-3.849Zm9.1,7.822q2.209,1.983,4.38,4.016l.008.007.034.032-.684.73c-1.448-1.356-2.93-2.716-4.406-4.041Zm8.757,8.2.756.742h0l.072.071,0,0,.067.066.009.009.065.064.009.009.065.064.008.008.221.219h0l.071.07.014.014.058.057.017.016.055.055.019.019.054.054.016.016.058.058.015.015.067.067,0,0,.222.221h0l.073.073h0l.071.071.006.006.069.069,0,0,.07.07,0,0q1.008,1.008,2,2.023l-.714.7c-1.388-1.417-2.811-2.838-4.23-4.225Zm8.4,8.57q2.053,2.187,4.06,4.418l-.743.669c-1.327-1.475-2.688-2.956-4.045-4.4Zm8.024,8.922.588.684.008.01.06.07.007.008.065.077h0l.065.076.03.035.033.039.037.044.026.031.038.044.026.03.043.051.016.019.049.057.011.013.053.063,0,0,.36.424,0,0,.055.065.008.01.054.064.006.007.055.065.008.009.055.065,0,0,.22.261.023.027.033.04.032.038.031.037.034.04.028.033.039.046.025.03.043.051.019.022.052.062.012.014c.5.6,1.012,1.211,1.511,1.817l-.771.636c-1.262-1.53-2.559-3.068-3.854-4.571l.758-.653Zm7.636,9.257q.973,1.233,1.934,2.477l.007.01.057.073.006.008.06.077,0,0,.126.163.013.017.048.062.021.028.038.05.029.037.03.04.033.043.025.032.038.049.021.027.038.05.02.027.041.054.01.013.273.358,0,.006.054.071,0,0,.056.073v0q.341.447.679.9l-.8.6c-1.2-1.583-2.425-3.175-3.654-4.732Zm7.232,9.575q1.014,1.4,2.012,2.822l0,0,.051.073,0,0,.3.434.021.03.03.043.029.041.024.034.037.052.02.028.041.059.014.02.049.07.009.012c.275.394.541.778.814,1.174l-.823.568c-1.126-1.632-2.287-3.276-3.448-4.884Zm6.815,9.876q1.65,2.5,3.247,5.045l-.847.532c-1.055-1.679-2.144-3.371-3.235-5.027Zm6.385,10.159q1.54,2.572,3.027,5.18l-.869.5c-.982-1.723-2-3.46-3.016-5.162Zm5.942,10.425q.536.988,1.063,1.982h0l.107.2.026.048.014.026.035.066.011.021.039.073.006.012.043.082,0,.008c.427.808.847,1.611,1.266,2.425l0,.006.042.082.007.013.034.067.1.193-.889.457c-.907-1.764-1.846-3.543-2.791-5.287Zm5.487,10.671q1.313,2.695,2.57,5.422l-.908.418c-.83-1.8-1.691-3.619-2.56-5.4Zm5.022,10.9q.312.718.62,1.438l.011.027.019.043.022.051.017.039.024.055.015.034.026.062.013.03.029.069.009.022.037.087,0,0q.707,1.66,1.391,3.329l0,.007.036.089,0,.011.033.081.008.02.012.03-.925.379c-.751-1.836-1.533-3.689-2.324-5.508Zm4.545,11.105c.3.77.586,1.537.876,2.31v0l.036.1,0,.005.034.092,0,.009.147.395,0,.006.034.091,0,.012.031.083.007.019.029.077.008.022.026.072.01.026.029.08.006.015.07.191.013.036.021.057.018.048.016.044.019.052.014.039.022.06.01.026.025.068,0,.013q.289.788.573,1.578l-.941.338c-.671-1.866-1.372-3.751-2.083-5.6l.934-.359Zm4.06,11.291c.133.4.264.791.4,1.189l0,.013.028.084.006.02.027.081.006.017.026.08.007.021.032.1.009.027.021.065.019.057.013.039.019.059.01.032.022.067.008.023.024.073,0,.014q.333,1.02.659,2.043h0l.028.087,0,.006.026.082.006.017.063.2.019.061.009.028.024.075.006.018.027.086,0,.009c.1.315.2.627.3.943l-.955.3c-.59-1.894-1.208-3.807-1.839-5.688Zm3.567,11.456q.828,2.879,1.6,5.784l-.967.256c-.507-1.918-1.042-3.857-1.591-5.763Zm3.067,11.6q.7,2.912,1.345,5.848l-.977.214c-.424-1.938-.874-3.9-1.34-5.827Zm2.562,11.724q.108.549.213,1.1l0,.01.016.081,0,.02.013.069.009.049.009.047.039.2,0,.009.019.1v0c.162.856.32,1.708.474,2.567v.008l.016.09.005.03.012.068.008.043.008.047.01.059,0,.023q.114.638.225,1.277l-.985.171c-.339-1.955-.705-3.933-1.087-5.88Zm2.053,11.822q.077.508.152,1.016v.005l.012.082,0,.021.011.074,0,.026.01.07.007.045.012.085.01.07,0,.027.011.077,0,.027.012.082,0,.02.013.093v.01c.084.579.165,1.151.245,1.731v.009l.014.1v.006l.014.1v.009l.029.21,0,.029.01.072.006.042.008.057.007.051.006.046.008.059,0,.034.009.068v.007q.1.741.2,1.483l-.992.128c-.255-1.967-.535-3.959-.832-5.919Zm1.542,11.9c.149,1.381.287,2.752.415,4.139v.013l.008.091,0,.02.008.085,0,.024.019.2,0,.051,0,.048.006.064,0,.03.007.074,0,.018q.05.556.1,1.112l-1,.086c-.17-1.977-.365-3.979-.577-5.95l.994-.107ZM557.41,260.7q.094,1.447.173,2.9h0l0,.086v.015l0,.081v.017l0,.081v.007l.013.254v.027l0,.066,0,.039,0,.06,0,.042,0,.06,0,.042.011.222,0,.031,0,.063,0,.04,0,.063,0,.035,0,.067v.029q.009.173.017.347v.01l0,.089v0q.029.609.055,1.218l-1,.043c-.086-1.983-.195-3.992-.323-5.971Zm.52,11.99q.014.607.024,1.214v0c0,.022,0,.044,0,.066s0,.033,0,.042v.052c0,.019,0,.045,0,.064v.033c0,.037,0,.057,0,.095,0,0,0,0,0,.007.024,1.471.037,2.949.039,4.425h-1c0-1.986-.026-4-.069-5.979Zm-.987,11.984,1,.02q-.057,2.86-.172,5.706v.018l0,.069,0,.041,0,.054,0,.064c0,.011,0,.023,0,.034v.012l-1-.041C556.842,288.675,556.9,286.664,556.943,284.679Zm-.493,11.948,1,.062c-.042.667-.086,1.329-.132,1.994l0,.023-.006.082,0,.027-.006.082,0,.023-.007.093v.013l-.007.1,0,.038,0,.064,0,.044,0,.06,0,.045,0,.057,0,.046,0,.059,0,.045-.007.1,0,.023-.006.079,0,.04,0,.064,0,.043,0,.062,0,.04-.005.073,0,.029-.016.211v.015l-.007.092v.02l-.007.091v.013l-.008.1h0c-.051.664-.1,1.323-.16,1.986l-1-.084C556.179,300.614,556.326,298.608,556.45,296.628Zm-1,11.914.994.105c-.076.723-.155,1.442-.237,2.163l0,.028-.008.074,0,.038-.007.057-.006.051-.005.046-.007.057,0,.031-.027.232,0,.025-.008.072,0,.026-.008.071,0,.026-.009.077v.006l-.043.367h0l-.01.086,0,.014-.01.082v.011l-.01.086h0l-.033.276v0l-.009.075,0,.028-.008.068,0,.035-.007.06-.006.047-.006.052-.01.078,0,.02-.013.1,0,.025-.01.082,0,.022-.01.085,0,.019-.012.1v0c-.044.355-.087.7-.132,1.051l-.992-.126C555.008,312.512,555.241,310.514,555.449,308.541Zm-1.51,11.858.989.148c-.063.424-.126.839-.191,1.262v.007l-.014.093,0,.016-.016.1v0l-.015.1-.01.064-.005.032-.012.077,0,.014-.013.086v0q-.237,1.515-.49,3.025l-.006.035-.009.051-.009.056-.007.039-.013.074,0,.021c-.044.26-.085.5-.13.765l-.986-.169C553.327,324.348,553.646,322.362,553.939,320.4Zm-2.02,11.786.982.19q-.106.547-.214,1.094l0,.02-.014.069-.007.037-.011.053-.013.066-.006.028c-.3,1.511-.612,3.009-.936,4.51l-.977-.211C551.137,336.1,551.541,334.133,551.918,332.185Zm-2.527,11.687.973.233c-.075.315-.153.638-.23.953l0,.009-.02.082-.007.03-.014.058-.012.05,0,.017q-.565,2.318-1.168,4.62l-.967-.254C548.441,347.752,548.93,345.8,549.391,343.871Zm-3.031,11.565.962.274q-.153.536-.308,1.071l0,.016-.021.073-.007.023-.02.069-.008.026-.02.069-.007.025-.02.068-.007.023-.072.245,0,.005-.022.074-.006.022-.021.071-.006.021-.022.075,0,.014q-.553,1.886-1.132,3.76l-.955-.3C545.243,359.272,545.816,357.344,546.36,355.436Zm-3.529,11.422.949.316q-.445,1.336-.9,2.665h0l-.03.087,0,.006-.029.083,0,.014-.046.132-.012.035-.012.035-.022.065-.009.025-.027.078-.005.015-.03.086,0,.01c-.271.782-.544,1.557-.822,2.336l-.942-.336C541.549,370.642,542.2,368.741,542.831,366.859Zm-4.02,11.258.934.357-.247.645v0l-.035.09-.007.017-.026.069-.014.037-.019.048-.019.05-.009.023q-.637,1.65-1.294,3.29l0,.01-.028.07-.01.025-.025.062-.014.036-.02.051-.021.051-.016.04-.035.086v0c-.119.3-.234.581-.355.876l-.926-.377C537.366,381.842,538.1,379.97,538.811,378.117Zm-4.5,11.076.918.4c-.386.893-.78,1.792-1.175,2.68l0,.007-.039.087-.007.016-.033.074-.012.026-.029.064-.014.032-.026.057-.016.036-.026.057-.016.036-.026.058-.036.081-.018.039-.025.056-.015.034-.028.061-.012.027-.028.062-.012.027-.029.064-.011.024-.029.064-.011.024-.143.317,0,.01-.032.071-.008.017-.03.066-.012.025-.027.06-.014.032-.025.055-.019.041-.022.048-.021.047-.019.042-.127.28,0,.007-.04.088,0,.008-.218.476-.909-.416C532.7,392.851,533.519,391.014,534.306,389.193Zm-4.98,10.87.9.436h0l-.038.079,0,.008-.037.077,0,.01-.038.077,0,.006-.038.078-.006.012-.145.3-.018.038-.022.046-.022.044-.021.043-.025.051-.019.038-.026.053-.018.036-.033.067-.01.019c-.705,1.44-1.418,2.864-2.148,4.29l-.89-.455C527.565,403.649,528.461,401.848,529.326,400.063Zm-5.444,10.645.88.474q-1.426,2.646-2.9,5.251l-.87-.493C521.968,414.214,522.941,412.454,523.882,410.708Zm-5.9,10.4.859.512q-1.537,2.578-3.127,5.121l-.848-.53C515.921,424.528,516.969,422.811,517.984,421.108Zm-6.34,10.137.836.548q-1.182,1.8-2.39,3.585l0,.007-.048.071-.006.008-.047.069-.01.015-.193.284-.011.016-.037.054-.019.028-.033.048-.024.035-.031.046-.025.037-.029.042-.03.044-.027.039-.031.045-.024.036-.035.052-.021.031-.113.166-.009.013-.049.072-.01.015-.046.068-.013.019-.025.037-.824-.566C509.436,434.573,510.557,432.9,511.644,431.244Zm-6.769,9.855.812.584q-.794,1.1-1.6,2.2h0l-.053.073,0,0-.051.07-.006.008-.051.069-.005.007q-.887,1.206-1.786,2.4l-.8-.6C502.525,444.331,503.717,442.71,504.875,441.1Zm-7.186,9.556.786.618-.435.552v0l-.06.075-.008.01-.057.072-.006.008-.062.079v0l-.193.243-.009.011-.054.068-.013.017-.05.063-.015.018-.046.058-.019.024-.045.057-.017.022-.052.066-.009.011-.324.405,0,0-.062.077,0,.005c-.731.913-1.471,1.825-2.212,2.729l-.773-.635C495.2,453.783,496.463,452.215,497.689,450.656ZM490.1,459.9l.759.651c-.432.5-.868,1.008-1.3,1.508l-.01.012-.055.063-.017.019-.046.053-.025.028-.04.045-.029.033-.033.037-.034.039-.025.029q-1.161,1.33-2.339,2.646l-.745-.667C487.483,462.914,488.809,461.4,490.1,459.9Zm-7.976,8.907.73.683-.013.014-.038.04-.025.027-.046.049-.015.016-.055.059,0,0q-1.954,2.086-3.95,4.132l-.716-.7C479.38,471.707,480.77,470.252,482.124,468.8Zm-8.35,8.558.7.713q-.528.518-1.058,1.034l-.023.022-.042.041-.03.029-.037.036-.041.04-.027.026-.052.051-.016.016c-.6.582-1.2,1.154-1.8,1.731l-.007.007-.067.063-.009.009-.06.057-.018.017-.052.049-.023.021-.043.041q-.458.434-.917.867l-.685-.728C470.909,480.145,472.359,478.751,473.774,477.361Zm-8.708,8.193.67.743c-.777.7-1.551,1.391-2.336,2.082l-.007.006-.068.06-.014.012-.063.055-.014.013-.06.052-.019.017-.062.054-.014.012-.074.065-.008.007-.068.06-.038.033-.034.03-.045.04-.029.026-.045.039-.028.024-.046.04-.028.025-.048.042-.022.019-.052.046-.019.017-.054.048-.01.009-.27.235-.005,0-.059.051-.016.014-.057.049-.016.014-.055.048-.019.017-.055.048-.018.015-.055.047-.018.016-.247.214-.027.023-.04.034-.037.032-.034.03-.045.039-.027.023-.052.045-.022.019-.022.019-.654-.757C462.085,488.213,463.593,486.882,465.066,485.554Zm-9.05,7.814.637.771-.019.016-.008.007-.073.06-.006,0-.075.062,0,0c-.834.689-1.668,1.368-2.51,2.047l-.016.013-.059.048-.033.026-.044.035-.036.029-.042.034-.039.031-.035.028-.045.036-.027.022-.053.042-.014.012q-.762.612-1.528,1.218l-.621-.784C452.923,495.9,454.487,494.632,456.016,493.368Zm-9.376,7.419.6.8-.748.564h0l-.281.211-.021.016-.045.034-.036.027-.038.028-.044.033-.035.026-.044.033-.037.027-.049.036-.028.021-.062.046-.016.012-.415.309,0,0-.079.059-.005,0-.67.5h0l-.5.372,0,0L444,504l-.024.018-.054.04-.035.026-.044.032-.039.029-.038.028-.046.034-.028.021-.054.04-.013.01q-.6.44-1.2.876l-.586-.81C443.442,503.181,445.058,501.984,446.64,500.787Zm-9.685,7.011.569.822c-.841.582-1.68,1.156-2.528,1.728l-.006,0-.34.229-.028.019-.055.037-.033.022-.048.033-.037.025-.046.031-.039.026-.038.026-.046.031-.034.023-.048.032-.031.021-.051.034-.013.009-.124.083-.021.014-.053.036-.03.02-.048.032-.035.023-.05.033-.03.02-.05.034-.031.021-.053.035-.028.019-.05.034-.039.026-.045.03-.053.036-.04.027-.068.045-.026.017-.062.041-.016.011-.069.046-.017.011-.072.048-.01.007-.081.054h0l-.344.227-.551-.834C433.657,510.053,435.323,508.926,436.955,507.8Zm-9.977,6.589.533.846-.122.077-.044.028-.031.019-.056.035-.026.016-.066.042-.013.008-.077.048-.008.005c-.712.447-1.421.887-2.138,1.328l0,0-.082.05-.01.006-.073.045-.019.011-.073.045-.012.008-.079.048-.01.006-.084.052-.053.032-.028.017-.059.036-.024.015-.064.039-.014.009-.071.044-.007,0q-.879.536-1.762,1.066l-.515-.857C423.586,516.5,425.3,515.444,426.978,514.386Zm-10.251,6.154.5.868c-.945.54-1.882,1.068-2.833,1.6h0l-.366.2-.008,0-.081.045-.016.009-.07.039-.025.014-.064.036-.026.014-.061.034-.03.016-.06.033-.029.016-.064.035-.025.014-.086.047-.029.016-.059.033-.036.02-.051.028-.037.02-.051.028-.039.022-.051.028-.035.019-.056.031-.034.018-.058.031-.03.016-.072.039-.016.009-.18.1-.012.006-.079.043-.014.007-.077.042-.013.007-.084.046,0,0-.282.154-.477-.879C413.248,522.5,415,521.525,416.727,520.54Zm-10.506,5.707.458.889c-1.064.548-2.137,1.093-3.209,1.628h0l-.088.044-.01.005-.083.041-.012.006-.079.039-.015.007-.078.039-.015.007L403,529l-.036.018-.052.026-.048.024-.041.02-.052.026-.036.018-.055.027-.031.015-.062.031-.02.01-.069.034-.011.005q-.585.289-1.171.576l-.439-.9C402.66,528.059,404.458,527.157,406.221,526.247ZM395.478,531.5l.419.908c-1.138.526-2.286,1.047-3.431,1.557l-.006,0-.083.037-.025.011-.065.029-.033.015-.062.028-.028.013-.067.03-.027.012-.074.033-.018.008-.188.083-.016.007-.075.033-.03.013-.063.028-.033.015-.059.026-.033.015-.066.029-.025.011-.075.033-.017.007-.383.168,0,0-.094.041h0l-.392.171-.4-.917C391.842,533.152,393.677,532.328,395.478,531.5Zm-10.96,4.779.38.925-.489.2-.038.015-.04.016-.057.023-.03.012-.07.029-.019.008-.081.033-.013.005c-1.214.494-2.427.977-3.65,1.455h0l-.093.036-.009,0-.085.033-.013.005-.076.03-.067.026-.043.017-.7.271-.36-.933C380.815,537.772,382.684,537.029,384.519,536.275Zm-11.155,4.3.339.941q-.66.238-1.322.473h0l-.084.03-.012,0-.323.114-.027.009-.06.021-.034.012-.057.02-.039.014-.054.019-.045.016-.046.016-.053.019-.043.015-.061.021-.032.011-.092.032-.035.012-.062.022-.039.013-.055.019-.043.015-.054.019-.042.014-.053.018-.043.015-.054.019-.042.015-.049.017-.047.017-.013,0-.131.045-.039.013-.057.02-.036.012-.06.021-.033.011-.063.022-.027.009-.068.023-.019.006q-1.057.365-2.119.723l-.319-.948C369.6,541.911,371.5,541.249,373.364,540.575Zm-11.331,3.813.3.954c-.46.144-.926.288-1.387.43h0l-.1.03-.006,0-.1.03h0l-.2.062h0l-.092.028-.027.008-.067.02-.039.012-.059.018-.036.011-.064.019-.036.011-.062.019-.035.011-.072.022-.037.011-.082.025-.041.012-.054.016-.047.014-.05.015-.048.014-.048.014-.049.015-.049.015-.048.014-.047.014-.049.015-.058.018-.075.022-.053.016-.056.017-.039.012-.057.017-.038.011-.06.018-.035.01-.058.017-.036.011-.062.019-.023.007-.25.074h0l-.082.024-.01,0-.078.023-.016,0-.077.023-.016,0-.078.023-.011,0q-.716.211-1.434.419l-.278-.961C358.214,545.559,360.14,544.98,362.033,544.388Zm-11.486,3.318.257.966c-1.458.387-2.91.76-4.377,1.124l-.008,0-.086.021-.038.009-.051.013-.06.015-.025.006-1.171.287-.236-.972C346.68,548.711,348.63,548.216,350.547,547.707Zm-11.62,2.818.215.977q-1.1.241-2.2.473h0l-.06.013-.044.009-.042.009-.066.014-.03.006-.084.018-.011,0c-1.115.234-2.22.459-3.34.68l-.193-.981C335.02,551.361,336.989,550.95,338.927,550.525ZM327.2,552.837l.172.985-1.19.205-.014,0-.074.013-.027,0-.069.012-.032.005-.064.011-.038.006-.1.017-.053.009-.04.007-.063.011-.038.006-.065.011-.038.006-.063.01-.039.007-.07.012-.03.005-.207.034h0l-.1.016-.023,0-.082.014-.021,0-.086.014-.018,0-.094.015h-.008l-.321.052h0l-.1.017-.009,0-.094.015-.014,0-.1.016h0l-.323.052h0l-.1.016-.012,0-.093.015-.014,0-.1.016h-.005l-.322.051h0l-.1.016h-.007l-.1.015-.013,0-.1.015h-.007l-.322.05h0l-.1.016h-.007l-.1.016h-.007l-.1.016h0l-.582.089-.151-.989C323.258,553.5,325.243,553.179,327.2,552.837Zm-11.817,1.8.13.992c-1.962.256-3.916.491-5.891.706l-.015,0-.051.006-.108-.994C311.416,555.138,313.413,554.9,315.379,554.641Zm-11.885,1.294.087,1q-2.516.22-5.045.395h0l-.365.025h-.011l-.068,0-.035,0-.059,0-.048,0-.053,0-.055,0-.046,0-.091.006h-.009l-.1.006-.066-1C299.512,556.262,301.518,556.108,303.493,555.936Zm-11.932.785.044,1-1.1.047-.086,0-.047,0-.049,0-.061,0-.04,0-.095,0h0l-.221.009h-.006l-.1,0h-.01c-.559.021-1.113.041-1.673.059h0l-.1,0h-.012l-.107,0h0l-.222.007h-.012l-.09,0h-.034l-.07,0h-.04l-.06,0h-.047l-.054,0-.228.007h-.013l-.082,0h-.016q-.654.018-1.309.033l-.023-1C287.569,556.877,289.58,556.809,291.561,556.721Zm-17.939.228c1.783.034,3.592.051,5.378.051h.606l0,1h-1.514c-1.5,0-2.993-.021-4.491-.05Zm-11.948-.48c1.979.122,3.988.224,5.971.3l-.04,1c-.726-.029-1.454-.061-2.179-.1h-.009l-.094,0H265.3l-.077,0-.033,0-.067,0-.041,0-.06,0-.108-.005h-.026l-.071,0h-.028l-.075,0h-.019l-.081,0H264.6q-1.495-.076-2.986-.168Zm-11.914-.988c1.972.206,3.974.394,5.952.558l-.083,1-.04,0-.331-.028h0q-1.871-.158-3.734-.34h0l-.093-.009h0l-.265-.026-.016,0-.053-.005-.052-.005-.044,0-.063-.006-.037,0-.081-.008-.016,0-1.143-.117Zm-11.859-1.5c1.961.291,3.953.564,5.922.812l-.125.992-.66-.084-.035,0-.066-.008-.05-.007-.043-.006-.065-.008-.028,0-.077-.01h0q-2.465-.321-4.917-.684Zm-11.789-2.008c1.948.375,3.927.734,5.883,1.067l-.168.986-.709-.122h0l-.1-.018h0l-.1-.018-.015,0-.083-.014-.063-.011-.033-.006-.076-.013-.016,0-.086-.015h0q-1.986-.348-3.963-.724h0l-.086-.016-.014,0-.081-.015h-.005l-.112-.021-.074-.014-.031-.006-.078-.015-.014,0-.1-.019h0l-.048-.009Zm-11.689-2.515c1.93.459,3.891.9,5.831,1.321l-.21.978q-1.688-.363-3.369-.747l-.027-.006-.062-.014-.037-.009-.059-.013-.04-.009-.055-.013-.05-.012-.047-.011-.063-.014-.035-.008-.1-.022-.038-.009-.06-.014-.046-.011-.055-.013-.043-.01-.057-.013-.044-.01-.056-.013-.044-.01-.052-.012-.05-.012-.02,0-.162-.038h0l-.082-.019-.012,0-.088-.021h0l-1-.237Zm-11.568-3.018c1.908.542,3.848,1.071,5.768,1.572l-.252.968q-2.908-.759-5.789-1.577Zm-11.426-3.516c1.883.624,3.8,1.237,5.694,1.82l-.294.956q-2.871-.883-5.715-1.827Zm-11.263-4.008c1.854.705,3.742,1.4,5.61,2.065l-.335.942-.56-.2-.011,0-.083-.03-.021-.008-.07-.025-.033-.012-.06-.021-.036-.013-.056-.02-.216-.078h0l-.074-.027-.02-.007-.074-.027-.014,0-.079-.029-.009,0q-2.114-.765-4.213-1.564Zm-11.081-4.493c1.822.785,3.678,1.561,5.516,2.306l-.376.927q-1.949-.79-3.883-1.609l-.02-.009-.056-.024-.04-.017-.046-.019-.052-.022-.035-.015-.066-.028-.026-.011-.084-.036-.006,0c-.407-.173-.816-.348-1.222-.523Zm-10.875-4.968c1.786.863,3.607,1.719,5.411,2.543l-.415.91c-.57-.26-1.148-.527-1.716-.791l-.014-.006-.075-.035-.034-.016-.052-.024-.049-.023-.036-.017-.057-.026-.026-.012-.069-.032h0q-1.656-.773-3.3-1.568Zm-10.651-5.433c1.747.939,3.529,1.873,5.3,2.774l-.454.891c-.423-.216-.837-.428-1.259-.646l0,0-.085-.044-.024-.012-.062-.032-.039-.02-.046-.024-.05-.026-.034-.018-.055-.029-.027-.014-.065-.034,0,0q-1.788-.928-3.56-1.881Zm-10.406-5.887c1.705,1.014,3.445,2.023,5.171,3l-.492.87q-.971-.549-1.937-1.106l-.025-.014-.053-.03-.034-.02-.049-.028-.041-.024-.042-.024-.049-.028-.035-.02-.062-.036-.022-.013c-.668-.387-1.326-.771-1.99-1.163l-.009-.005-.077-.045-.016-.009-.072-.043-.017-.01-.064-.038-.028-.017-.054-.032-.189-.112,0,0-.322-.191Zm-10.143-6.329c1.66,1.086,3.355,2.169,5.038,3.219l-.529.848q-1.71-1.067-3.4-2.157l0,0-.06-.039-.027-.018-.049-.032-.035-.023-.045-.029-.046-.03-.032-.021-.069-.044-.011-.007c-.426-.276-.85-.551-1.275-.829Zm-9.863-6.759c1.612,1.156,3.259,2.311,4.9,3.432l-.565.825q-.7-.476-1.387-.957l0,0-.065-.045-.019-.013-.053-.037-.033-.023-.045-.031-.042-.03-.035-.025-.056-.039-.024-.017c-.689-.48-1.361-.953-2.045-1.438l-.013-.01-.066-.047-.02-.014-.054-.038-.032-.023-.036-.025-.884-.632Zm-9.564-7.176c1.561,1.224,3.157,2.449,4.744,3.639l-.6.8-.409-.308h0l-.08-.06-.005,0-.08-.06,0,0-.08-.061,0,0-.248-.187-.011-.009-.065-.05-.028-.021-.053-.04-.028-.021-.052-.039-.028-.022-.053-.04-.028-.021-.05-.038-.031-.023-.056-.043-.023-.017-.076-.058,0,0-.078-.059-.035-.027-.043-.033-.039-.03-.042-.032-.034-.026-.045-.034-.037-.028-.041-.031-.039-.03-.039-.03-.041-.031-.039-.03-.039-.03-.037-.028-.173-.133-.02-.016-.048-.037-.033-.025-.045-.035-.031-.024-.048-.037-.029-.023-.049-.038-.026-.02-.052-.04-.026-.02-.052-.04-.018-.014-.352-.272-.006,0-.069-.053-.007-.005-.068-.053-.007-.005q-.74-.572-1.476-1.149ZM98.334,490.3c1.507,1.29,3.049,2.581,4.584,3.839l-.634.773q-1.01-.828-2.013-1.665l-.013-.011-.051-.043-.028-.023-.04-.033-.041-.035-.032-.026-.053-.044-.019-.016-.067-.056-.009-.008q-1.123-.941-2.234-1.892Zm-8.916-7.967c1.451,1.353,2.936,2.709,4.415,4.031l-.666.746c-1.112-.993-2.2-1.984-3.3-2.995l-.009-.008-.062-.057-.017-.016-.047-.043-.032-.029-.024-.022q-.472-.436-.941-.874Zm-8.567-8.341c1.391,1.414,2.818,2.832,4.239,4.216l-.7.716-.216-.211-.011-.011-.059-.058-.02-.02-.052-.05-.021-.02-.053-.052-.02-.019-.058-.057-.012-.012-.063-.062-.011-.011-.146-.144,0,0-.068-.067-.014-.014-.055-.054-.025-.024-.048-.048-.023-.022-.05-.049-.021-.021-.054-.053-.019-.018-.053-.052-.02-.02-.06-.059-.011-.011-.145-.143-.015-.015-.055-.055-.024-.024-.048-.047-.022-.022-.051-.051-.022-.022-.049-.049-.022-.022-.051-.05-.021-.021-.06-.059-.009-.009-.218-.217-.011-.01-.063-.063-.01-.01-.06-.06-.016-.016-.057-.057-.015-.015-.056-.056-.016-.016-.061-.061-.01-.01-.366-.366,0,0-.069-.069,0,0-.07-.071,0,0c-.431-.432-.854-.859-1.282-1.294Zm-8.2-8.7c1.33,1.472,2.694,2.95,4.055,4.393l-.728.686-.08-.085-.019-.02-.046-.049-.03-.032-.032-.034-.041-.044-.02-.021-.052-.055h0q-1.894-2.015-3.747-4.067Zm-7.823-9.042c1.266,1.527,2.565,3.063,3.863,4.563l-.756.654q-.855-.989-1.7-1.985l-.011-.014-.049-.057-.015-.018-.044-.052-.027-.031-.034-.04-.04-.047-.021-.025q-.972-1.148-1.934-2.309ZM57.4,446.881c1.2,1.58,2.432,3.169,3.664,4.724l-.783.621q-.406-.511-.809-1.025l-.006-.008-.048-.061-.014-.018-.041-.053-.023-.03-.036-.046-.026-.034-.033-.042-.038-.048-.021-.027-.189-.241-.005-.007-.06-.077h0c-.784-1-1.556-2.008-2.327-3.023ZM50.374,437.2c1.13,1.63,2.294,3.271,3.459,4.876l-.809.587q-.493-.68-.983-1.363l-.005-.007-.045-.063-.013-.018-.04-.055-.02-.029-.034-.048-.025-.035-.031-.043-.031-.044-.025-.035-.043-.06-.014-.019-.24-.337,0-.005c-.648-.912-1.282-1.814-1.919-2.733Zm-6.6-9.97c1.059,1.677,2.151,3.366,3.246,5.02l-.834.552c-.734-1.109-1.457-2.218-2.175-3.338l0,0-.05-.078-.008-.013-.05-.078-.005-.008-.053-.083,0,0-.11-.173L43.714,429l-.037-.058-.024-.037-.028-.044-.029-.046-.023-.036-.031-.048-.021-.033-.035-.055-.015-.024-.037-.059-.012-.019-.191-.3v0l-.045-.071-.007-.011-.041-.065-.012-.019-.04-.063L43.074,428l-.041-.065-.011-.018-.04-.063-.013-.02-.039-.062v0ZM37.61,416.99c.986,1.721,2,3.455,3.027,5.155l-.857.516-.028-.047-.017-.029-.02-.034q-.932-1.551-1.845-3.115h0l-.037-.064-.013-.022-.032-.055-.019-.033-.027-.046-.026-.044-.022-.038-.032-.054-.018-.031-.037-.063-.012-.021-.261-.45h0l-.051-.089v0l-.367-.637h0l-.05-.087-.005-.009-.046-.081-.006-.01-.046-.081-.005-.009-.011-.019Zm-5.719-10.5c.911,1.762,1.854,3.539,2.8,5.281l-.878.478q-1.434-2.633-2.813-5.3Zm-5.26-10.737c.834,1.8,1.7,3.615,2.572,5.4l-.9.44q-.742-1.514-1.465-3.038h0l-.036-.076-.006-.013-.032-.067-.013-.027-.027-.056-.019-.04-.022-.046-.025-.053-.017-.037-.033-.069-.01-.02-.089-.189v0l-.043-.091,0-.008-.041-.087,0-.008q-.349-.742-.695-1.488ZM21.84,384.8c.755,1.834,1.541,3.685,2.336,5.5l-.916.4q-1.2-2.745-2.345-5.522Zm-4.312-11.15c.675,1.865,1.38,3.748,2.1,5.6l-.933.361c-.41-1.059-.808-2.108-1.2-3.173l-.006-.016-.028-.075-.012-.033-.023-.061-.014-.039-.019-.051-.017-.046-.016-.044-.02-.054L17.324,376q-.372-1-.737-2.011ZM13.7,362.321c.594,1.893,1.217,3.8,1.851,5.684l-.947.32q-.134-.4-.267-.793l0-.014-.024-.073-.01-.031-.02-.059-.019-.058-.011-.033-.066-.2v0c-.489-1.472-.969-2.959-1.435-4.442Zm-3.331-11.483c.511,1.917,1.051,3.854,1.6,5.759l-.96.279c-.195-.671-.385-1.337-.575-2.01l0-.012-.024-.084-.007-.023-.021-.074-.008-.029-.018-.063-.011-.039-.015-.054-.058-.208-.005-.018-.021-.076,0-.016-.023-.081,0-.008-.024-.086v0q-.376-1.352-.739-2.709l0-.01-.021-.078-.006-.022-.018-.066,0-.009ZM7.54,339.222c.428,1.937.883,3.9,1.352,5.824l-.972.237q-.34-1.4-.666-2.8l-.009-.037-.012-.053-.011-.049-.011-.046-.013-.056-.01-.041-.015-.065-.008-.033-.019-.08,0-.018L7.1,341.8l0-.008-.022-.1,0-.012-.021-.093,0-.01c-.1-.422-.191-.838-.286-1.261v0l-.023-.1v0l-.022-.1,0-.008-.023-.1h0l-.046-.209,0-.016-.018-.081-.009-.039L6.6,339.6l-.011-.051-.009-.042-.013-.061,0-.009ZM5.215,327.494c.344,1.954.713,3.93,1.1,5.875l-.981.194c-.129-.649-.256-1.3-.38-1.953l0-.025-.014-.074-.007-.035-.012-.062-.008-.043-.01-.054-.009-.048-.007-.035L4.837,331l0-.01-.016-.082,0-.012-.016-.083,0-.009q-.163-.87-.321-1.742v-.006l-.013-.069-.006-.034-.011-.059-.008-.044-.009-.05-.012-.066-.005-.03c-.063-.349-.122-.685-.184-1.034ZM3.4,315.678c.259,1.967.544,3.958.845,5.918l-.988.152q-.1-.646-.2-1.293v0l-.013-.087v-.008l-.013-.085,0-.012L2.992,320l0-.015-.009-.062-.006-.041-.008-.056-.006-.044-.008-.053-.008-.056-.006-.042-.011-.076,0-.023-.03-.21,0-.013-.013-.093,0-.014-.014-.1V319.1q-.236-1.642-.454-3.291ZM2.091,303.794c.175,1.977.373,3.978.59,5.949l-.994.109c-.186-1.69-.356-3.379-.512-5.078h0l-.01-.11h0c-.013-.147-.026-.289-.039-.436v-.014l-.008-.091,0-.019-.008-.089,0-.019-.01-.114Zm-.8-11.932c.09,1.983.2,3.992.336,5.97l-1,.067q-.09-1.35-.168-2.7v-.014l0-.08v-.023l0-.074,0-.026-.007-.13,0-.037,0-.046,0-.06,0-.043,0-.065,0-.035,0-.077v-.026l-.006-.1h0q-.066-1.225-.122-2.452ZM1,279.909c.006,1.985.034,4,.082,5.976l-1,.024c-.049-2-.076-3.986-.082-6Zm-.785-12,1,.039c-.077,1.981-.135,3.992-.17,5.977l-1-.018c0-.009,0-.014,0-.023l0-.093c0-.028,0-.048,0-.076v-.03l0-.079c0-.008,0-.017,0-.025,0-.028,0-.062,0-.09,0,0,0-.008,0-.013C.09,271.614.144,269.762.216,267.908ZM.94,255.931l1,.082c-.162,1.976-.3,3.982-.424,5.963l-1-.06q.163-2.7.377-5.377h0C.907,256.335.924,256.134.94,255.931ZM2.174,244l.992.124c-.246,1.967-.474,3.965-.679,5.939l-.995-.1Q1.8,246.969,2.174,244Zm1.746-11.872.986.167c-.331,1.956-.645,3.943-.934,5.906l-.989-.146Q3.421,235.079,3.921,232.126Zm2.257-11.786.978.209c-.415,1.939-.815,3.911-1.188,5.859l-.982-.188.006-.031,0-.013.017-.087,0-.024.014-.074.006-.033.012-.064.008-.04.008-.044.027-.14v-.006l.015-.079,0-.016.016-.08,0-.014.016-.084v0q.116-.6.234-1.19v-.007l.017-.083,0-.012.016-.079,0-.021.015-.075,0-.015.045-.226.009-.043.01-.048.011-.055.008-.04.013-.064.007-.034.016-.078,0-.018c.2-.994.4-1.969.616-2.959Zm2.764-11.676.968.251c-.5,1.92-.983,3.872-1.44,5.8l-.973-.23c.139-.588.279-1.168.421-1.754l0-.009.021-.088.006-.026.018-.074.007-.029.017-.071L8,212.4l.019-.078.005-.021.025-.1,0-.006.023-.092.009-.038.015-.06.011-.044.013-.054.012-.048.011-.046.013-.055.011-.043.013-.054.011-.045.055-.22,0-.018.018-.071.006-.026.017-.067.007-.03.017-.07,0-.019.02-.079v0Q8.636,209.84,8.942,208.663Zm3.267-11.545.956.293c-.581,1.9-1.15,3.825-1.69,5.734l-.962-.272c.122-.431.242-.851.366-1.281l.005-.019.023-.078.008-.028.019-.066.012-.041.015-.053.013-.046.013-.046.016-.054.007-.025.069-.236,0-.015.021-.073.006-.021.021-.071.007-.024.021-.073,0-.013.155-.53v0l.024-.083,0-.012.025-.083v0l.159-.535v0l.024-.082,0-.015.023-.078,0-.01.1-.345,0-.008.02-.067.009-.03.018-.061.011-.036.017-.057.012-.04.017-.056.012-.04.016-.054.015-.049.014-.047.028-.093.008-.028.021-.07.01-.033.02-.066.01-.032.021-.068.009-.029.022-.074.007-.023.024-.08.005-.018.123-.4,0,0Zm3.764-11.392.943.334c-.663,1.869-1.315,3.772-1.937,5.655l-.949-.314.006-.018.021-.064.009-.026.023-.068,0-.014.079-.239.007-.02.021-.064.011-.032.02-.06.011-.035.019-.058.013-.039.019-.056.012-.036.02-.059.011-.033.071-.211.011-.032.018-.055.014-.041.017-.052.015-.045L14.5,190l.016-.048.017-.05.015-.043.017-.051.015-.045.017-.051.017-.049.033-.1.012-.036.018-.052.016-.047.015-.044.018-.053.014-.041.02-.06.012-.035.021-.063.011-.033.028-.082,0-.012.067-.2.005-.016.027-.08.008-.024.027-.078.006-.016.029-.085,0-.013.031-.092,0-.005c.306-.893.618-1.787.934-2.676Zm4.255-11.221.927.375c-.743,1.839-1.477,3.712-2.18,5.567l-.935-.355q.316-.833.637-1.664h0l.033-.086v0l.271-.7v0Q19.6,176.068,20.228,174.505Zm4.737-11.025.91.414c-.822,1.805-1.636,3.645-2.419,5.467l-.919-.395q.5-1.161,1.008-2.317l0-.009.033-.074.008-.018.032-.072.005-.012.033-.075.006-.013.105-.238,0-.01.026-.059.015-.034.023-.052.017-.038.023-.051.018-.042.022-.05.017-.037.024-.054.017-.038.023-.052.02-.044.02-.045.039-.087.021-.048.019-.042.022-.05.019-.042.021-.047.02-.045.021-.048.019-.042.022-.049.017-.039.024-.054.014-.032.026-.057.01-.023.1-.23,0-.007.033-.074.007-.015.033-.074,0-.011.036-.079,0,0Q24.771,163.9,24.964,163.48Zm5.208-10.81.891.453c-.9,1.768-1.792,3.571-2.653,5.357l-.9-.434q.57-1.182,1.15-2.358l0,0,.034-.069.011-.022.029-.058.017-.035.025-.051.02-.04.023-.047.024-.049.019-.039.029-.059.015-.03.045-.09v0l.044-.088.012-.025.033-.067.012-.025.033-.067.013-.025.034-.068.011-.022.035-.07.012-.024.036-.072.009-.019.041-.081,0-.01.091-.181.015-.03.031-.061.017-.033.027-.054.02-.04.025-.049.022-.044.02-.04.026-.052.015-.03.031-.062v0Q29.9,153.212,30.173,152.67Zm5.67-10.575.871.491c-.975,1.728-1.944,3.49-2.882,5.238l-.881-.473C33.9,145.586,34.859,143.838,35.843,142.1Zm6.12-10.321.849.528c-1.048,1.684-2.093,3.4-3.1,5.109l-.86-.51.021-.036.013-.021.041-.068.011-.019.044-.074.008-.014.1-.175.014-.024.037-.062.019-.032.031-.052.022-.037.029-.049.024-.04.026-.043.027-.045.024-.041.027-.045.022-.037.029-.049.017-.028.125-.208.006-.011.036-.06.015-.025.036-.06.014-.023.037-.061.012-.021.039-.065.008-.013.042-.07,0-.008q.868-1.442,1.753-2.872l0-.006.283-.456.015-.024.034-.054.019-.03.032-.051.011-.018Zm6.558-10.048.826.564c-1.12,1.638-2.237,3.31-3.321,4.971l-.837-.547,0,0,.039-.06.02-.031.029-.044.033-.051.018-.028q1.573-2.406,3.19-4.771Zm6.983-9.758.8.6c-1.189,1.588-2.377,3.211-3.531,4.824l-.813-.582q.541-.756,1.087-1.509l.011-.015.033-.045.027-.038.026-.036.035-.049.02-.028.045-.062.01-.013.057-.078h0Q54.4,113.443,55.5,111.968Zm7.395-9.45.774.633c-1.256,1.536-2.512,3.107-3.735,4.669l-.788-.616Q61,104.842,62.9,102.518Zm7.792-9.125.746.665c-1.32,1.481-2.643,3-3.931,4.5l-.76-.649C68.048,96.388,69.356,94.89,70.691,93.393Zm8.175-8.783.717.7c-1.382,1.423-2.768,2.88-4.12,4.332l-.732-.681c.624-.67,1.242-1.328,1.872-1.992l.018-.019.05-.052.026-.028.039-.041.035-.037.03-.032.042-.044.02-.021.051-.054.006-.006Q77.888,85.616,78.866,84.61Zm8.543-8.426.687.727c-1.442,1.362-2.889,2.76-4.3,4.152l-.7-.712C84.52,78.943,85.952,77.561,87.409,76.184Zm8.9-8.053.655.755c-1.5,1.3-3,2.634-4.475,3.965l-.671-.741q1.145-1.037,2.3-2.061l0,0L94.175,70l.019-.017.048-.042.029-.026.039-.035.039-.034.034-.03.045-.04.027-.024.057-.05.016-.014C95.117,69.165,95.712,68.645,96.3,68.131Zm9.232-7.665.622.783c-1.553,1.234-3.114,2.5-4.64,3.77l-.639-.769.216-.179h0l.07-.058,0,0Q103.335,62.215,105.536,60.465Zm9.551-7.263.588.809c-1.6,1.166-3.218,2.367-4.8,3.568l-.605-.8q2.387-1.815,4.814-3.58Zm9.854-6.847.553.833c-1.653,1.1-3.317,2.227-4.946,3.359l-.571-.821.861-.6.011-.007.072-.049.02-.013.064-.044.022-.015.061-.042.026-.018.057-.039.026-.018.056-.038.029-.02.056-.038.027-.018.07-.048.053-.037.037-.026.054-.037.024-.016.056-.038.026-.018.055-.038.024-.017.054-.037.028-.019.056-.038.017-.012.063-.043.012-.008.3-.2,0,0,.068-.046.013-.009.061-.041.021-.014.062-.042.014-.01.065-.044.014-.01.068-.046h0l.373-.252.02-.013.059-.04.021-.014.057-.039.027-.018.053-.036.029-.02.051-.034.035-.024.046-.031.041-.027.04-.027.082-.055.007,0,.077-.052.018-.012.067-.045.016-.011.07-.047.015-.01.073-.049.009-.006.08-.054.005,0,.885-.59Zm10.139-6.418.517.856c-1.7,1.024-3.409,2.082-5.085,3.143l-.535-.845q1.809-1.145,3.633-2.261h0l.084-.051.007,0,.078-.048.011-.007.065-.04Q134.467,40.306,135.08,39.937Zm10.405-5.976.479.878c-1.741.951-3.5,1.933-5.216,2.922l-.5-.867c1.179-.677,2.352-1.339,3.542-2l.006,0,.084-.047.009,0,.079-.044.015-.008.076-.042.015-.008.077-.043.013-.007.087-.048.056-.031.028-.015.066-.037.018-.01.071-.039.011-.006Zm10.654-5.522.441.9c-1.78.875-3.576,1.781-5.337,2.694l-.46-.888.579-.3.012-.006.067-.034.04-.02.045-.023.077-.04.008,0q1.643-.845,3.3-1.668h0L155,29l.015-.008.078-.039.013-.007.082-.041.011-.006.09-.045h0l.188-.093.011-.005.076-.038.033-.016.056-.028.039-.019.048-.024.043-.021.048-.023.043-.021.046-.023.044-.021.049-.024.041-.02.068-.033Zm10.882-5.057.4.916c-1.816.8-3.649,1.625-5.448,2.461l-.421-.907c1.808-.84,3.639-1.667,5.468-2.47ZM178.11,18.8l.362.932c-1.849.717-3.716,1.465-5.549,2.223l-.382-.924,1.125-.462.008,0,.079-.032.015-.006.1-.04.065-.026.029-.012.067-.027.025-.01.071-.029.024-.01.075-.031.017-.007.083-.034.011,0c1.256-.509,2.513-1.007,3.778-1.5Zm11.277-4.1.321.947c-1.878.637-3.776,1.3-5.641,1.98l-.341-.94C185.606,16.007,187.488,15.347,189.387,14.7Zm11.445-3.6.28.96c-1.9.555-3.829,1.138-5.721,1.734l-.3-.954.893-.279h0l.082-.026.019-.006.068-.021.045-.014.047-.015C197.774,12,199.293,11.547,200.832,11.1Zm11.591-3.106.238.971c-1.927.472-3.876.971-5.792,1.485l-.259-.966.048-.013.013,0Q209.534,8.7,212.423,7.993Zm11.715-2.6.2.981c-1.946.388-3.914.8-5.85,1.232l-.217-.976Q221.191,5.98,224.138,5.392ZM235.952,3.3l.153.988c-1.961.3-3.945.633-5.9.979l-.174-.985q1.343-.238,2.69-.463l.03-.005.069-.011.043-.007.053-.009.051-.008.044-.007.062-.01.02,0q1.1-.182,2.2-.355h.009l.062-.01.043-.007.049-.008.06-.009.034-.005.082-.013.017,0ZM247.846,1.72l.11.994c-1.972.219-3.969.463-5.934.724l-.132-.991Q244.858,2.052,247.846,1.72ZM259.8.65l.068,1c-1.98.135-3.986.292-5.961.469l-.089-1q1.113-.1,2.229-.19h.017l.076-.006.025,0,.071-.006.035,0,.064-.005.054,0,.059,0,.086-.007.031,0,.076-.006.028,0,.084-.007h.017l.1-.008h0C257.847.788,258.818.717,259.8.65ZM271.787.091l.025,1c-1.985.05-4,.123-5.976.215l-.047-1c1.85-.086,3.7-.154,5.556-.2h.012l.1,0h.017l.093,0,.122,0h0ZM279,0V1l-1.212,0,0-1c.293,0,.589,0,.88,0H279Z" transform="translate(-837 -9583)" fill="#26a69a"/>
    <path id="Elipse_5197" data-name="Elipse 5197" d="M279,0h1.35c.04,0,.073,0,.114,0h0q1.916.01,3.824.045h0l.118,0,.109,0,.211,0,.1,0H285l-.021,1C283,1.021,280.986,1,279,1V0Zm12,.253.231.01h.012l.092,0h.02l.088,0h.021l.1,0,.055,0,.046,0,.06,0,.041,0,.095,0,.075,0h.011q2.529.116,5.046.276l-.064,1c-1.979-.126-3.988-.232-5.971-.316Zm11.975.762.693.06h.006l.093.008.025,0,.073.006.037,0,.052,0,.134.012h.01l.078.007.019,0,.078.007.02,0,.082.007h.009q.833.075,1.664.155l.016,0,.076.007.024,0,.074.007.026,0,.07.007.035,0,.111.011.048,0,.043,0,.06.006.04,0,.068.007.032,0,.077.008.026,0,.1.01h0c.66.066,1.313.133,1.971.2l-.106.994c-1.971-.21-3.973-.4-5.951-.571Zm11.93,1.273q2.981.383,5.941.828l-.149.989c-1.96-.295-3.952-.573-5.92-.825ZM326.77,4.074q.729.126,1.456.255l.034.006.057.01.044.008.052.009.054.01.044.008.073.013.024,0,.317.057h0l.106.019h0q1.823.33,3.64.684l-.191.982c-1.947-.379-3.926-.743-5.881-1.08Zm11.78,2.3c1.96.426,3.9.871,5.849,1.338l-.233.972c-1.929-.463-3.89-.912-5.828-1.333Zm11.668,2.8.694.184.008,0,.087.023.019.005.077.021.194.052.012,0,.086.023h0q1.035.277,2.066.562l.021.006.069.019.028.008.063.017.037.01.058.016.052.014.04.011.2.056h.005l.1.027.009,0c.622.173,1.24.348,1.86.526l-.275.961c-1.907-.546-3.846-1.079-5.764-1.584l.255-.967Zm11.535,3.305.082.025.009,0,.08.025.011,0,.082.026.007,0,.085.026h0q2.687.837,5.35,1.727l-.317.948c-1.881-.628-3.8-1.245-5.69-1.833Zm11.38,3.8.293.105h0l.1.034.011,0,.085.031.016.006.08.029.019.007.292.105.021.008.071.026.036.013.061.022.036.013.057.021.039.014.059.022.035.013.063.023.032.012.084.03.011,0,.094.034.036.013.059.021.039.014.057.021.04.015.057.021.036.013.062.023.033.012.076.028.015.006.295.108.009,0,.091.033.008,0,.089.033.012,0,.094.035h0c.975.361,1.957.731,2.927,1.1l-.358.934c-1.852-.709-3.738-1.408-5.605-2.077Zm11.2,4.291q.736.3,1.47.6l.007,0,.067.028.028.012.057.023.039.016.047.02.056.023.032.013.079.033.011,0q1.618.674,3.222,1.367l.005,0,.085.037.024.011.067.029.03.013.061.026.035.015.056.024.039.017.012.005-.4.917c-1.82-.789-3.674-1.569-5.511-2.318Zm11.01,4.773q.895.411,1.786.828h0l.082.038.006,0,.4.189.021.01.056.026.038.018.049.023.042.02.047.022.047.022.042.02.051.024.039.018.06.028.031.014.09.043.015.007.076.036.031.014.059.028.041.02.048.023.043.021.048.023.041.02.053.025.036.017.057.027.036.017.06.029.03.014.088.042.032.015.06.029.041.019.046.022.048.023.043.02.047.023.043.021.046.022.045.022.047.022.034.017.058.028.013.006.32.154.008,0,.076.037.01,0,.074.036.012.006.078.038h0l.59.286-.437.9c-1.784-.867-3.6-1.726-5.405-2.555Zm10.793,5.244q1.75.9,3.486,1.819l.009,0,.073.039.013.007.069.037.019.01.067.036.015.008.07.037.014.007.221.118.016.009.054.029.035.019.05.027.038.02.047.025.041.022.047.025.043.023.042.023.053.028.035.018.082.044,0,0,.184.1.006,0,.085.046.011.006.082.044.009,0,.082.044.01.005.2.107-.475.88c-1.745-.943-3.525-1.88-5.29-2.785Zm10.556,5.7q2.609,1.484,5.184,3.021l-.513.858c-1.7-1.017-3.441-2.03-5.165-3.011ZM427,42.445l.038.024.04.025.083.052.013.008.071.044.028.018.06.038.023.014.063.04.023.015.066.041.019.012.07.044.015.009.082.052,0,0,.442.279,0,0,.882.561,0,0,.529.339h0l.083.053.01.007.073.047.017.011.073.047.012.007.077.05.01.006.26.168.01.006.073.047.024.016.06.039.029.019.053.034.033.022.052.034.034.022.047.031.038.024.045.029.04.026.037.024.1.065.024.016.053.034.029.019.055.036.026.017.056.036.026.017.058.038.021.014.061.04.016.011.068.044,0,0,.7.461-.549.836c-1.658-1.09-3.35-2.176-5.031-3.23Zm10.027,6.591,0,0,.151.1h0l.289.2.023.016.049.034.033.023.044.03.04.028.042.029.038.026.043.03.042.029.039.027.047.033.032.022.066.046.016.011.168.117.013.009.071.049.018.013.064.045.022.016.059.041.027.019.06.042.021.015.067.047.017.012.335.234.018.013.064.045.024.017.057.04.028.02.059.041.022.015.063.045.019.014.072.051.009.007.253.178.012.008.07.049.02.014.062.044.025.018.059.042.023.016.06.042.024.017.068.048.012.008.081.058h0l.17.12.005,0,.078.056.01.007.072.051.016.011.07.05.011.008.077.055.005,0c.42.3.829.592,1.247.893l-.585.811c-1.609-1.16-3.254-2.318-4.887-3.443Zm9.735,7.015q2.4,1.806,4.753,3.662l-.619.785c-1.558-1.228-3.152-2.456-4.736-3.649Zm9.426,7.426q.937.771,1.867,1.55l.011.009.054.045.023.02.044.037.035.029.04.034.037.031.037.031.043.036.032.027.058.049.015.012.235.2.01.009.07.059.008.007.068.057.015.013.065.055.012.011.067.057.011.009q.869.735,1.733,1.477l-.652.758c-1.5-1.293-3.044-2.588-4.575-3.849Zm9.1,7.822q2.209,1.983,4.38,4.016l.008.007.034.032-.684.73c-1.448-1.356-2.93-2.716-4.406-4.041Zm8.757,8.2.756.742h0l.072.071,0,0,.067.066.009.009.065.064.009.009.065.064.008.008.221.219h0l.071.07.014.014.058.057.017.016.055.055.019.019.054.054.016.016.058.058.015.015.067.067,0,0,.222.221h0l.073.073h0l.071.071.006.006.069.069,0,0,.07.07,0,0q1.008,1.008,2,2.023l-.714.7c-1.388-1.417-2.811-2.838-4.23-4.225Zm8.4,8.57q2.053,2.187,4.06,4.418l-.743.669c-1.327-1.475-2.688-2.956-4.045-4.4Zm8.024,8.922.588.684.008.01.06.07.007.008.065.077h0l.065.076.03.035.033.039.037.044.026.031.038.044.026.03.043.051.016.019.049.057.011.013.053.063,0,0,.36.424,0,0,.055.065.008.01.054.064.006.007.055.065.008.009.055.065,0,0,.22.261.023.027.033.04.032.038.031.037.034.04.028.033.039.046.025.03.043.051.019.022.052.062.012.014c.5.6,1.012,1.211,1.511,1.817l-.771.636c-1.262-1.53-2.559-3.068-3.854-4.571l.758-.653Zm7.636,9.257q.973,1.233,1.934,2.477l.007.01.057.073.006.008.06.077,0,0,.126.163.013.017.048.062.021.028.038.05.029.037.03.04.033.043.025.032.038.049.021.027.038.05.02.027.041.054.01.013.273.358,0,.006.054.071,0,0,.056.073v0q.341.447.679.9l-.8.6c-1.2-1.583-2.425-3.175-3.654-4.732Zm7.232,9.575q1.014,1.4,2.012,2.822l0,0,.051.073,0,0,.3.434.021.03.03.043.029.041.024.034.037.052.02.028.041.059.014.02.049.07.009.012c.275.394.541.778.814,1.174l-.823.568c-1.126-1.632-2.287-3.276-3.448-4.884Zm6.815,9.876q1.65,2.5,3.247,5.045l-.847.532c-1.055-1.679-2.144-3.371-3.235-5.027Zm6.385,10.159q1.54,2.572,3.027,5.18l-.869.5c-.982-1.723-2-3.46-3.016-5.162Zm5.942,10.425q.536.988,1.063,1.982h0l.107.2.026.048.014.026.035.066.011.021.039.073.006.012.043.082,0,.008c.427.808.847,1.611,1.266,2.425l0,.006.042.082.007.013.034.067.1.193-.889.457c-.907-1.764-1.846-3.543-2.791-5.287Zm5.487,10.671q1.313,2.695,2.57,5.422l-.908.418c-.83-1.8-1.691-3.619-2.56-5.4Zm5.022,10.9q.312.718.62,1.438l.011.027.019.043.022.051.017.039.024.055.015.034.026.062.013.03.029.069.009.022.037.087,0,0q.707,1.66,1.391,3.329l0,.007.036.089,0,.011.033.081.008.02.012.03-.925.379c-.751-1.836-1.533-3.689-2.324-5.508Zm4.545,11.105c.3.77.586,1.537.876,2.31v0l.036.1,0,.005.034.092,0,.009.147.395,0,.006.034.091,0,.012.031.083.007.019.029.077.008.022.026.072.01.026.029.08.006.015.07.191.013.036.021.057.018.048.016.044.019.052.014.039.022.06.01.026.025.068,0,.013q.289.788.573,1.578l-.941.338c-.671-1.866-1.372-3.751-2.083-5.6l.934-.359Zm4.06,11.291c.133.4.264.791.4,1.189l0,.013.028.084.006.02.027.081.006.017.026.08.007.021.032.1.009.027.021.065.019.057.013.039.019.059.01.032.022.067.008.023.024.073,0,.014q.333,1.02.659,2.043h0l.028.087,0,.006.026.082.006.017.063.2.019.061.009.028.024.075.006.018.027.086,0,.009c.1.315.2.627.3.943l-.955.3c-.59-1.894-1.208-3.807-1.839-5.688Zm3.567,11.456q.828,2.879,1.6,5.784l-.967.256c-.507-1.918-1.042-3.857-1.591-5.763Zm3.067,11.6q.7,2.912,1.345,5.848l-.977.214c-.424-1.938-.874-3.9-1.34-5.827Zm2.562,11.724q.108.549.213,1.1l0,.01.016.081,0,.02.013.069.009.049.009.047.039.2,0,.009.019.1v0c.162.856.32,1.708.474,2.567v.008l.016.09.005.03.012.068.008.043.008.047.01.059,0,.023q.114.638.225,1.277l-.985.171c-.339-1.955-.705-3.933-1.087-5.88Zm2.053,11.822q.077.508.152,1.016v.005l.012.082,0,.021.011.074,0,.026.01.07.007.045.012.085.01.07,0,.027.011.077,0,.027.012.082,0,.02.013.093v.01c.084.579.165,1.151.245,1.731v.009l.014.1v.006l.014.1v.009l.029.21,0,.029.01.072.006.042.008.057.007.051.006.046.008.059,0,.034.009.068v.007q.1.741.2,1.483l-.992.128c-.255-1.967-.535-3.959-.832-5.919Zm1.542,11.9c.149,1.381.287,2.752.415,4.139v.013l.008.091,0,.02.008.085,0,.024.019.2,0,.051,0,.048.006.064,0,.03.007.074,0,.018q.05.556.1,1.112l-1,.086c-.17-1.977-.365-3.979-.577-5.95l.994-.107ZM557.41,260.7q.094,1.447.173,2.9h0l0,.086v.015l0,.081v.017l0,.081v.007l.013.254v.027l0,.066,0,.039,0,.06,0,.042,0,.06,0,.042.011.222,0,.031,0,.063,0,.04,0,.063,0,.035,0,.067v.029q.009.173.017.347v.01l0,.089v0q.029.609.055,1.218l-1,.043c-.086-1.983-.195-3.992-.323-5.971Zm.52,11.99q.014.607.024,1.214v0c0,.022,0,.044,0,.066s0,.033,0,.042v.052c0,.019,0,.045,0,.064v.033c0,.037,0,.057,0,.095,0,0,0,0,0,.007.024,1.471.037,2.949.039,4.425h-1c0-1.986-.026-4-.069-5.979Zm-.987,11.984,1,.02q-.057,2.86-.172,5.706v.018l0,.069,0,.041,0,.054,0,.064c0,.011,0,.023,0,.034v.012l-1-.041C556.842,288.675,556.9,286.664,556.943,284.679Zm-.493,11.948,1,.062c-.042.667-.086,1.329-.132,1.994l0,.023-.006.082,0,.027-.006.082,0,.023-.007.093v.013l-.007.1,0,.038,0,.064,0,.044,0,.06,0,.045,0,.057,0,.046,0,.059,0,.045-.007.1,0,.023-.006.079,0,.04,0,.064,0,.043,0,.062,0,.04-.005.073,0,.029-.016.211v.015l-.007.092v.02l-.007.091v.013l-.008.1h0c-.051.664-.1,1.323-.16,1.986l-1-.084C556.179,300.614,556.326,298.608,556.45,296.628Zm-1,11.914.994.105c-.076.723-.155,1.442-.237,2.163l0,.028-.008.074,0,.038-.007.057-.006.051-.005.046-.007.057,0,.031-.027.232,0,.025-.008.072,0,.026-.008.071,0,.026-.009.077v.006l-.043.367h0l-.01.086,0,.014-.01.082v.011l-.01.086h0l-.033.276v0l-.009.075,0,.028-.008.068,0,.035-.007.06-.006.047-.006.052-.01.078,0,.02-.013.1,0,.025-.01.082,0,.022-.01.085,0,.019-.012.1v0c-.044.355-.087.7-.132,1.051l-.992-.126C555.008,312.512,555.241,310.514,555.449,308.541Zm-1.51,11.858.989.148c-.063.424-.126.839-.191,1.262v.007l-.014.093,0,.016-.016.1v0l-.015.1-.01.064-.005.032-.012.077,0,.014-.013.086v0q-.237,1.515-.49,3.025l-.006.035-.009.051-.009.056-.007.039-.013.074,0,.021c-.044.26-.085.5-.13.765l-.986-.169C553.327,324.348,553.646,322.362,553.939,320.4Zm-2.02,11.786.982.19q-.106.547-.214,1.094l0,.02-.014.069-.007.037-.011.053-.013.066-.006.028c-.3,1.511-.612,3.009-.936,4.51l-.977-.211C551.137,336.1,551.541,334.133,551.918,332.185Zm-2.527,11.687.973.233c-.075.315-.153.638-.23.953l0,.009-.02.082-.007.03-.014.058-.012.05,0,.017q-.565,2.318-1.168,4.62l-.967-.254C548.441,347.752,548.93,345.8,549.391,343.871Zm-3.031,11.565.962.274q-.153.536-.308,1.071l0,.016-.021.073-.007.023-.02.069-.008.026-.02.069-.007.025-.02.068-.007.023-.072.245,0,.005-.022.074-.006.022-.021.071-.006.021-.022.075,0,.014q-.553,1.886-1.132,3.76l-.955-.3C545.243,359.272,545.816,357.344,546.36,355.436Zm-3.529,11.422.949.316q-.445,1.336-.9,2.665h0l-.03.087,0,.006-.029.083,0,.014-.046.132-.012.035-.012.035-.022.065-.009.025-.027.078-.005.015-.03.086,0,.01c-.271.782-.544,1.557-.822,2.336l-.942-.336C541.549,370.642,542.2,368.741,542.831,366.859Zm-4.02,11.258.934.357-.247.645v0l-.035.09-.007.017-.026.069-.014.037-.019.048-.019.05-.009.023q-.637,1.65-1.294,3.29l0,.01-.028.07-.01.025-.025.062-.014.036-.02.051-.021.051-.016.04-.035.086v0c-.119.3-.234.581-.355.876l-.926-.377C537.366,381.842,538.1,379.97,538.811,378.117Zm-4.5,11.076.918.4c-.386.893-.78,1.792-1.175,2.68l0,.007-.039.087-.007.016-.033.074-.012.026-.029.064-.014.032-.026.057-.016.036-.026.057-.016.036-.026.058-.036.081-.018.039-.025.056-.015.034-.028.061-.012.027-.028.062-.012.027-.029.064-.011.024-.029.064-.011.024-.143.317,0,.01-.032.071-.008.017-.03.066-.012.025-.027.06-.014.032-.025.055-.019.041-.022.048-.021.047-.019.042-.127.28,0,.007-.04.088,0,.008-.218.476-.909-.416C532.7,392.851,533.519,391.014,534.306,389.193Zm-4.98,10.87.9.436h0l-.038.079,0,.008-.037.077,0,.01-.038.077,0,.006-.038.078-.006.012-.145.3-.018.038-.022.046-.022.044-.021.043-.025.051-.019.038-.026.053-.018.036-.033.067-.01.019c-.705,1.44-1.418,2.864-2.148,4.29l-.89-.455C527.565,403.649,528.461,401.848,529.326,400.063Zm-5.444,10.645.88.474q-1.426,2.646-2.9,5.251l-.87-.493C521.968,414.214,522.941,412.454,523.882,410.708Zm-5.9,10.4.859.512q-1.537,2.578-3.127,5.121l-.848-.53C515.921,424.528,516.969,422.811,517.984,421.108Zm-6.34,10.137.836.548q-1.182,1.8-2.39,3.585l0,.007-.048.071-.006.008-.047.069-.01.015-.193.284-.011.016-.037.054-.019.028-.033.048-.024.035-.031.046-.025.037-.029.042-.03.044-.027.039-.031.045-.024.036-.035.052-.021.031-.113.166-.009.013-.049.072-.01.015-.046.068-.013.019-.025.037-.824-.566C509.436,434.573,510.557,432.9,511.644,431.244Zm-6.769,9.855.812.584q-.794,1.1-1.6,2.2h0l-.053.073,0,0-.051.07-.006.008-.051.069-.005.007q-.887,1.206-1.786,2.4l-.8-.6C502.525,444.331,503.717,442.71,504.875,441.1Zm-7.186,9.556.786.618-.435.552v0l-.06.075-.008.01-.057.072-.006.008-.062.079v0l-.193.243-.009.011-.054.068-.013.017-.05.063-.015.018-.046.058-.019.024-.045.057-.017.022-.052.066-.009.011-.324.405,0,0-.062.077,0,.005c-.731.913-1.471,1.825-2.212,2.729l-.773-.635C495.2,453.783,496.463,452.215,497.689,450.656ZM490.1,459.9l.759.651c-.432.5-.868,1.008-1.3,1.508l-.01.012-.055.063-.017.019-.046.053-.025.028-.04.045-.029.033-.033.037-.034.039-.025.029q-1.161,1.33-2.339,2.646l-.745-.667C487.483,462.914,488.809,461.4,490.1,459.9Zm-7.976,8.907.73.683-.013.014-.038.04-.025.027-.046.049-.015.016-.055.059,0,0q-1.954,2.086-3.95,4.132l-.716-.7C479.38,471.707,480.77,470.252,482.124,468.8Zm-8.35,8.558.7.713q-.528.518-1.058,1.034l-.023.022-.042.041-.03.029-.037.036-.041.04-.027.026-.052.051-.016.016c-.6.582-1.2,1.154-1.8,1.731l-.007.007-.067.063-.009.009-.06.057-.018.017-.052.049-.023.021-.043.041q-.458.434-.917.867l-.685-.728C470.909,480.145,472.359,478.751,473.774,477.361Zm-8.708,8.193.67.743c-.777.7-1.551,1.391-2.336,2.082l-.007.006-.068.06-.014.012-.063.055-.014.013-.06.052-.019.017-.062.054-.014.012-.074.065-.008.007-.068.06-.038.033-.034.03-.045.04-.029.026-.045.039-.028.024-.046.04-.028.025-.048.042-.022.019-.052.046-.019.017-.054.048-.01.009-.27.235-.005,0-.059.051-.016.014-.057.049-.016.014-.055.048-.019.017-.055.048-.018.015-.055.047-.018.016-.247.214-.027.023-.04.034-.037.032-.034.03-.045.039-.027.023-.052.045-.022.019-.022.019-.654-.757C462.085,488.213,463.593,486.882,465.066,485.554Zm-9.05,7.814.637.771-.019.016-.008.007-.073.06-.006,0-.075.062,0,0c-.834.689-1.668,1.368-2.51,2.047l-.016.013-.059.048-.033.026-.044.035-.036.029-.042.034-.039.031-.035.028-.045.036-.027.022-.053.042-.014.012q-.762.612-1.528,1.218l-.621-.784C452.923,495.9,454.487,494.632,456.016,493.368Zm-9.376,7.419.6.8-.748.564h0l-.281.211-.021.016-.045.034-.036.027-.038.028-.044.033-.035.026-.044.033-.037.027-.049.036-.028.021-.062.046-.016.012-.415.309,0,0-.079.059-.005,0-.67.5h0l-.5.372,0,0L444,504l-.024.018-.054.04-.035.026-.044.032-.039.029-.038.028-.046.034-.028.021-.054.04-.013.01q-.6.44-1.2.876l-.586-.81C443.442,503.181,445.058,501.984,446.64,500.787Zm-9.685,7.011.569.822c-.841.582-1.68,1.156-2.528,1.728l-.006,0-.34.229-.028.019-.055.037-.033.022-.048.033-.037.025-.046.031-.039.026-.038.026-.046.031-.034.023-.048.032-.031.021-.051.034-.013.009-.124.083-.021.014-.053.036-.03.02-.048.032-.035.023-.05.033-.03.02-.05.034-.031.021-.053.035-.028.019-.05.034-.039.026-.045.03-.053.036-.04.027-.068.045-.026.017-.062.041-.016.011-.069.046-.017.011-.072.048-.01.007-.081.054h0l-.344.227-.551-.834C433.657,510.053,435.323,508.926,436.955,507.8Zm-9.977,6.589.533.846-.122.077-.044.028-.031.019-.056.035-.026.016-.066.042-.013.008-.077.048-.008.005c-.712.447-1.421.887-2.138,1.328l0,0-.082.05-.01.006-.073.045-.019.011-.073.045-.012.008-.079.048-.01.006-.084.052-.053.032-.028.017-.059.036-.024.015-.064.039-.014.009-.071.044-.007,0q-.879.536-1.762,1.066l-.515-.857C423.586,516.5,425.3,515.444,426.978,514.386Zm-10.251,6.154.5.868c-.945.54-1.882,1.068-2.833,1.6h0l-.366.2-.008,0-.081.045-.016.009-.07.039-.025.014-.064.036-.026.014-.061.034-.03.016-.06.033-.029.016-.064.035-.025.014-.086.047-.029.016-.059.033-.036.02-.051.028-.037.02-.051.028-.039.022-.051.028-.035.019-.056.031-.034.018-.058.031-.03.016-.072.039-.016.009-.18.1-.012.006-.079.043-.014.007-.077.042-.013.007-.084.046,0,0-.282.154-.477-.879C413.248,522.5,415,521.525,416.727,520.54Zm-10.506,5.707.458.889c-1.064.548-2.137,1.093-3.209,1.628h0l-.088.044-.01.005-.083.041-.012.006-.079.039-.015.007-.078.039-.015.007L403,529l-.036.018-.052.026-.048.024-.041.02-.052.026-.036.018-.055.027-.031.015-.062.031-.02.01-.069.034-.011.005q-.585.289-1.171.576l-.439-.9C402.66,528.059,404.458,527.157,406.221,526.247ZM395.478,531.5l.419.908c-1.138.526-2.286,1.047-3.431,1.557l-.006,0-.083.037-.025.011-.065.029-.033.015-.062.028-.028.013-.067.03-.027.012-.074.033-.018.008-.188.083-.016.007-.075.033-.03.013-.063.028-.033.015-.059.026-.033.015-.066.029-.025.011-.075.033-.017.007-.383.168,0,0-.094.041h0l-.392.171-.4-.917C391.842,533.152,393.677,532.328,395.478,531.5Zm-10.96,4.779.38.925-.489.2-.038.015-.04.016-.057.023-.03.012-.07.029-.019.008-.081.033-.013.005c-1.214.494-2.427.977-3.65,1.455h0l-.093.036-.009,0-.085.033-.013.005-.076.03-.067.026-.043.017-.7.271-.36-.933C380.815,537.772,382.684,537.029,384.519,536.275Zm-11.155,4.3.339.941q-.66.238-1.322.473h0l-.084.03-.012,0-.323.114-.027.009-.06.021-.034.012-.057.02-.039.014-.054.019-.045.016-.046.016-.053.019-.043.015-.061.021-.032.011-.092.032-.035.012-.062.022-.039.013-.055.019-.043.015-.054.019-.042.014-.053.018-.043.015-.054.019-.042.015-.049.017-.047.017-.013,0-.131.045-.039.013-.057.02-.036.012-.06.021-.033.011-.063.022-.027.009-.068.023-.019.006q-1.057.365-2.119.723l-.319-.948C369.6,541.911,371.5,541.249,373.364,540.575Zm-11.331,3.813.3.954c-.46.144-.926.288-1.387.43h0l-.1.03-.006,0-.1.03h0l-.2.062h0l-.092.028-.027.008-.067.02-.039.012-.059.018-.036.011-.064.019-.036.011-.062.019-.035.011-.072.022-.037.011-.082.025-.041.012-.054.016-.047.014-.05.015-.048.014-.048.014-.049.015-.049.015-.048.014-.047.014-.049.015-.058.018-.075.022-.053.016-.056.017-.039.012-.057.017-.038.011-.06.018-.035.01-.058.017-.036.011-.062.019-.023.007-.25.074h0l-.082.024-.01,0-.078.023-.016,0-.077.023-.016,0-.078.023-.011,0q-.716.211-1.434.419l-.278-.961C358.214,545.559,360.14,544.98,362.033,544.388Zm-11.486,3.318.257.966c-1.458.387-2.91.76-4.377,1.124l-.008,0-.086.021-.038.009-.051.013-.06.015-.025.006-1.171.287-.236-.972C346.68,548.711,348.63,548.216,350.547,547.707Zm-11.62,2.818.215.977q-1.1.241-2.2.473h0l-.06.013-.044.009-.042.009-.066.014-.03.006-.084.018-.011,0c-1.115.234-2.22.459-3.34.68l-.193-.981C335.02,551.361,336.989,550.95,338.927,550.525ZM327.2,552.837l.172.985-1.19.205-.014,0-.074.013-.027,0-.069.012-.032.005-.064.011-.038.006-.1.017-.053.009-.04.007-.063.011-.038.006-.065.011-.038.006-.063.01-.039.007-.07.012-.03.005-.207.034h0l-.1.016-.023,0-.082.014-.021,0-.086.014-.018,0-.094.015h-.008l-.321.052h0l-.1.017-.009,0-.094.015-.014,0-.1.016h0l-.323.052h0l-.1.016-.012,0-.093.015-.014,0-.1.016h-.005l-.322.051h0l-.1.016h-.007l-.1.015-.013,0-.1.015h-.007l-.322.05h0l-.1.016h-.007l-.1.016h-.007l-.1.016h0l-.582.089-.151-.989C323.258,553.5,325.243,553.179,327.2,552.837Zm-11.817,1.8.13.992c-1.962.256-3.916.491-5.891.706l-.015,0-.051.006-.108-.994C311.416,555.138,313.413,554.9,315.379,554.641Zm-11.885,1.294.087,1q-2.516.22-5.045.395h0l-.365.025h-.011l-.068,0-.035,0-.059,0-.048,0-.053,0-.055,0-.046,0-.091.006h-.009l-.1.006-.066-1C299.512,556.262,301.518,556.108,303.493,555.936Zm-11.932.785.044,1-1.1.047-.086,0-.047,0-.049,0-.061,0-.04,0-.095,0h0l-.221.009h-.006l-.1,0h-.01c-.559.021-1.113.041-1.673.059h0l-.1,0h-.012l-.107,0h0l-.222.007h-.012l-.09,0h-.034l-.07,0h-.04l-.06,0h-.047l-.054,0-.228.007h-.013l-.082,0h-.016q-.654.018-1.309.033l-.023-1C287.569,556.877,289.58,556.809,291.561,556.721Zm-17.939.228c1.783.034,3.592.051,5.378.051h.606l0,1h-1.514c-1.5,0-2.993-.021-4.491-.05Zm-11.948-.48c1.979.122,3.988.224,5.971.3l-.04,1c-.726-.029-1.454-.061-2.179-.1h-.009l-.094,0H265.3l-.077,0-.033,0-.067,0-.041,0-.06,0-.108-.005h-.026l-.071,0h-.028l-.075,0h-.019l-.081,0H264.6q-1.495-.076-2.986-.168Zm-11.914-.988c1.972.206,3.974.394,5.952.558l-.083,1-.04,0-.331-.028h0q-1.871-.158-3.734-.34h0l-.093-.009h0l-.265-.026-.016,0-.053-.005-.052-.005-.044,0-.063-.006-.037,0-.081-.008-.016,0-1.143-.117Zm-11.859-1.5c1.961.291,3.953.564,5.922.812l-.125.992-.66-.084-.035,0-.066-.008-.05-.007-.043-.006-.065-.008-.028,0-.077-.01h0q-2.465-.321-4.917-.684Zm-11.789-2.008c1.948.375,3.927.734,5.883,1.067l-.168.986-.709-.122h0l-.1-.018h0l-.1-.018-.015,0-.083-.014-.063-.011-.033-.006-.076-.013-.016,0-.086-.015h0q-1.986-.348-3.963-.724h0l-.086-.016-.014,0-.081-.015h-.005l-.112-.021-.074-.014-.031-.006-.078-.015-.014,0-.1-.019h0l-.048-.009Zm-11.689-2.515c1.93.459,3.891.9,5.831,1.321l-.21.978q-1.688-.363-3.369-.747l-.027-.006-.062-.014-.037-.009-.059-.013-.04-.009-.055-.013-.05-.012-.047-.011-.063-.014-.035-.008-.1-.022-.038-.009-.06-.014-.046-.011-.055-.013-.043-.01-.057-.013-.044-.01-.056-.013-.044-.01-.052-.012-.05-.012-.02,0-.162-.038h0l-.082-.019-.012,0-.088-.021h0l-1-.237Zm-11.568-3.018c1.908.542,3.848,1.071,5.768,1.572l-.252.968q-2.908-.759-5.789-1.577Zm-11.426-3.516c1.883.624,3.8,1.237,5.694,1.82l-.294.956q-2.871-.883-5.715-1.827Zm-11.263-4.008c1.854.705,3.742,1.4,5.61,2.065l-.335.942-.56-.2-.011,0-.083-.03-.021-.008-.07-.025-.033-.012-.06-.021-.036-.013-.056-.02-.216-.078h0l-.074-.027-.02-.007-.074-.027-.014,0-.079-.029-.009,0q-2.114-.765-4.213-1.564Zm-11.081-4.493c1.822.785,3.678,1.561,5.516,2.306l-.376.927q-1.949-.79-3.883-1.609l-.02-.009-.056-.024-.04-.017-.046-.019-.052-.022-.035-.015-.066-.028-.026-.011-.084-.036-.006,0c-.407-.173-.816-.348-1.222-.523Zm-10.875-4.968c1.786.863,3.607,1.719,5.411,2.543l-.415.91c-.57-.26-1.148-.527-1.716-.791l-.014-.006-.075-.035-.034-.016-.052-.024-.049-.023-.036-.017-.057-.026-.026-.012-.069-.032h0q-1.656-.773-3.3-1.568Zm-10.651-5.433c1.747.939,3.529,1.873,5.3,2.774l-.454.891c-.423-.216-.837-.428-1.259-.646l0,0-.085-.044-.024-.012-.062-.032-.039-.02-.046-.024-.05-.026-.034-.018-.055-.029-.027-.014-.065-.034,0,0q-1.788-.928-3.56-1.881Zm-10.406-5.887c1.705,1.014,3.445,2.023,5.171,3l-.492.87q-.971-.549-1.937-1.106l-.025-.014-.053-.03-.034-.02-.049-.028-.041-.024-.042-.024-.049-.028-.035-.02-.062-.036-.022-.013c-.668-.387-1.326-.771-1.99-1.163l-.009-.005-.077-.045-.016-.009-.072-.043-.017-.01-.064-.038-.028-.017-.054-.032-.189-.112,0,0-.322-.191Zm-10.143-6.329c1.66,1.086,3.355,2.169,5.038,3.219l-.529.848q-1.71-1.067-3.4-2.157l0,0-.06-.039-.027-.018-.049-.032-.035-.023-.045-.029-.046-.03-.032-.021-.069-.044-.011-.007c-.426-.276-.85-.551-1.275-.829Zm-9.863-6.759c1.612,1.156,3.259,2.311,4.9,3.432l-.565.825q-.7-.476-1.387-.957l0,0-.065-.045-.019-.013-.053-.037-.033-.023-.045-.031-.042-.03-.035-.025-.056-.039-.024-.017c-.689-.48-1.361-.953-2.045-1.438l-.013-.01-.066-.047-.02-.014-.054-.038-.032-.023-.036-.025-.884-.632Zm-9.564-7.176c1.561,1.224,3.157,2.449,4.744,3.639l-.6.8-.409-.308h0l-.08-.06-.005,0-.08-.06,0,0-.08-.061,0,0-.248-.187-.011-.009-.065-.05-.028-.021-.053-.04-.028-.021-.052-.039-.028-.022-.053-.04-.028-.021-.05-.038-.031-.023-.056-.043-.023-.017-.076-.058,0,0-.078-.059-.035-.027-.043-.033-.039-.03-.042-.032-.034-.026-.045-.034-.037-.028-.041-.031-.039-.03-.039-.03-.041-.031-.039-.03-.039-.03-.037-.028-.173-.133-.02-.016-.048-.037-.033-.025-.045-.035-.031-.024-.048-.037-.029-.023-.049-.038-.026-.02-.052-.04-.026-.02-.052-.04-.018-.014-.352-.272-.006,0-.069-.053-.007-.005-.068-.053-.007-.005q-.74-.572-1.476-1.149ZM98.334,490.3c1.507,1.29,3.049,2.581,4.584,3.839l-.634.773q-1.01-.828-2.013-1.665l-.013-.011-.051-.043-.028-.023-.04-.033-.041-.035-.032-.026-.053-.044-.019-.016-.067-.056-.009-.008q-1.123-.941-2.234-1.892Zm-8.916-7.967c1.451,1.353,2.936,2.709,4.415,4.031l-.666.746c-1.112-.993-2.2-1.984-3.3-2.995l-.009-.008-.062-.057-.017-.016-.047-.043-.032-.029-.024-.022q-.472-.436-.941-.874Zm-8.567-8.341c1.391,1.414,2.818,2.832,4.239,4.216l-.7.716-.216-.211-.011-.011-.059-.058-.02-.02-.052-.05-.021-.02-.053-.052-.02-.019-.058-.057-.012-.012-.063-.062-.011-.011-.146-.144,0,0-.068-.067-.014-.014-.055-.054-.025-.024-.048-.048-.023-.022-.05-.049-.021-.021-.054-.053-.019-.018-.053-.052-.02-.02-.06-.059-.011-.011-.145-.143-.015-.015-.055-.055-.024-.024-.048-.047-.022-.022-.051-.051-.022-.022-.049-.049-.022-.022-.051-.05-.021-.021-.06-.059-.009-.009-.218-.217-.011-.01-.063-.063-.01-.01-.06-.06-.016-.016-.057-.057-.015-.015-.056-.056-.016-.016-.061-.061-.01-.01-.366-.366,0,0-.069-.069,0,0-.07-.071,0,0c-.431-.432-.854-.859-1.282-1.294Zm-8.2-8.7c1.33,1.472,2.694,2.95,4.055,4.393l-.728.686-.08-.085-.019-.02-.046-.049-.03-.032-.032-.034-.041-.044-.02-.021-.052-.055h0q-1.894-2.015-3.747-4.067Zm-7.823-9.042c1.266,1.527,2.565,3.063,3.863,4.563l-.756.654q-.855-.989-1.7-1.985l-.011-.014-.049-.057-.015-.018-.044-.052-.027-.031-.034-.04-.04-.047-.021-.025q-.972-1.148-1.934-2.309ZM57.4,446.881c1.2,1.58,2.432,3.169,3.664,4.724l-.783.621q-.406-.511-.809-1.025l-.006-.008-.048-.061-.014-.018-.041-.053-.023-.03-.036-.046-.026-.034-.033-.042-.038-.048-.021-.027-.189-.241-.005-.007-.06-.077h0c-.784-1-1.556-2.008-2.327-3.023ZM50.374,437.2c1.13,1.63,2.294,3.271,3.459,4.876l-.809.587q-.493-.68-.983-1.363l-.005-.007-.045-.063-.013-.018-.04-.055-.02-.029-.034-.048-.025-.035-.031-.043-.031-.044-.025-.035-.043-.06-.014-.019-.24-.337,0-.005c-.648-.912-1.282-1.814-1.919-2.733Zm-6.6-9.97c1.059,1.677,2.151,3.366,3.246,5.02l-.834.552c-.734-1.109-1.457-2.218-2.175-3.338l0,0-.05-.078-.008-.013-.05-.078-.005-.008-.053-.083,0,0-.11-.173L43.714,429l-.037-.058-.024-.037-.028-.044-.029-.046-.023-.036-.031-.048-.021-.033-.035-.055-.015-.024-.037-.059-.012-.019-.191-.3v0l-.045-.071-.007-.011-.041-.065-.012-.019-.04-.063L43.074,428l-.041-.065-.011-.018-.04-.063-.013-.02-.039-.062v0ZM37.61,416.99c.986,1.721,2,3.455,3.027,5.155l-.857.516-.028-.047-.017-.029-.02-.034q-.932-1.551-1.845-3.115h0l-.037-.064-.013-.022-.032-.055-.019-.033-.027-.046-.026-.044-.022-.038-.032-.054-.018-.031-.037-.063-.012-.021-.261-.45h0l-.051-.089v0l-.367-.637h0l-.05-.087-.005-.009-.046-.081-.006-.01-.046-.081-.005-.009-.011-.019Zm-5.719-10.5c.911,1.762,1.854,3.539,2.8,5.281l-.878.478q-1.434-2.633-2.813-5.3Zm-5.26-10.737c.834,1.8,1.7,3.615,2.572,5.4l-.9.44q-.742-1.514-1.465-3.038h0l-.036-.076-.006-.013-.032-.067-.013-.027-.027-.056-.019-.04-.022-.046-.025-.053-.017-.037-.033-.069-.01-.02-.089-.189v0l-.043-.091,0-.008-.041-.087,0-.008q-.349-.742-.695-1.488ZM21.84,384.8c.755,1.834,1.541,3.685,2.336,5.5l-.916.4q-1.2-2.745-2.345-5.522Zm-4.312-11.15c.675,1.865,1.38,3.748,2.1,5.6l-.933.361c-.41-1.059-.808-2.108-1.2-3.173l-.006-.016-.028-.075-.012-.033-.023-.061-.014-.039-.019-.051-.017-.046-.016-.044-.02-.054L17.324,376q-.372-1-.737-2.011ZM13.7,362.321c.594,1.893,1.217,3.8,1.851,5.684l-.947.32q-.134-.4-.267-.793l0-.014-.024-.073-.01-.031-.02-.059-.019-.058-.011-.033-.066-.2v0c-.489-1.472-.969-2.959-1.435-4.442Zm-3.331-11.483c.511,1.917,1.051,3.854,1.6,5.759l-.96.279c-.195-.671-.385-1.337-.575-2.01l0-.012-.024-.084-.007-.023-.021-.074-.008-.029-.018-.063-.011-.039-.015-.054-.058-.208-.005-.018-.021-.076,0-.016-.023-.081,0-.008-.024-.086v0q-.376-1.352-.739-2.709l0-.01-.021-.078-.006-.022-.018-.066,0-.009ZM7.54,339.222c.428,1.937.883,3.9,1.352,5.824l-.972.237q-.34-1.4-.666-2.8l-.009-.037-.012-.053-.011-.049-.011-.046-.013-.056-.01-.041-.015-.065-.008-.033-.019-.08,0-.018L7.1,341.8l0-.008-.022-.1,0-.012-.021-.093,0-.01c-.1-.422-.191-.838-.286-1.261v0l-.023-.1v0l-.022-.1,0-.008-.023-.1h0l-.046-.209,0-.016-.018-.081-.009-.039L6.6,339.6l-.011-.051-.009-.042-.013-.061,0-.009ZM5.215,327.494c.344,1.954.713,3.93,1.1,5.875l-.981.194c-.129-.649-.256-1.3-.38-1.953l0-.025-.014-.074-.007-.035-.012-.062-.008-.043-.01-.054-.009-.048-.007-.035L4.837,331l0-.01-.016-.082,0-.012-.016-.083,0-.009q-.163-.87-.321-1.742v-.006l-.013-.069-.006-.034-.011-.059-.008-.044-.009-.05-.012-.066-.005-.03c-.063-.349-.122-.685-.184-1.034ZM3.4,315.678c.259,1.967.544,3.958.845,5.918l-.988.152q-.1-.646-.2-1.293v0l-.013-.087v-.008l-.013-.085,0-.012L2.992,320l0-.015-.009-.062-.006-.041-.008-.056-.006-.044-.008-.053-.008-.056-.006-.042-.011-.076,0-.023-.03-.21,0-.013-.013-.093,0-.014-.014-.1V319.1q-.236-1.642-.454-3.291ZM2.091,303.794c.175,1.977.373,3.978.59,5.949l-.994.109c-.186-1.69-.356-3.379-.512-5.078h0l-.01-.11h0c-.013-.147-.026-.289-.039-.436v-.014l-.008-.091,0-.019-.008-.089,0-.019-.01-.114Zm-.8-11.932c.09,1.983.2,3.992.336,5.97l-1,.067q-.09-1.35-.168-2.7v-.014l0-.08v-.023l0-.074,0-.026-.007-.13,0-.037,0-.046,0-.06,0-.043,0-.065,0-.035,0-.077v-.026l-.006-.1h0q-.066-1.225-.122-2.452ZM1,279.909c.006,1.985.034,4,.082,5.976l-1,.024c-.049-2-.076-3.986-.082-6Zm-.785-12,1,.039c-.077,1.981-.135,3.992-.17,5.977l-1-.018c0-.009,0-.014,0-.023l0-.093c0-.028,0-.048,0-.076v-.03l0-.079c0-.008,0-.017,0-.025,0-.028,0-.062,0-.09,0,0,0-.008,0-.013C.09,271.614.144,269.762.216,267.908ZM.94,255.931l1,.082c-.162,1.976-.3,3.982-.424,5.963l-1-.06q.163-2.7.377-5.377h0C.907,256.335.924,256.134.94,255.931ZM2.174,244l.992.124c-.246,1.967-.474,3.965-.679,5.939l-.995-.1Q1.8,246.969,2.174,244Zm1.746-11.872.986.167c-.331,1.956-.645,3.943-.934,5.906l-.989-.146Q3.421,235.079,3.921,232.126Zm2.257-11.786.978.209c-.415,1.939-.815,3.911-1.188,5.859l-.982-.188.006-.031,0-.013.017-.087,0-.024.014-.074.006-.033.012-.064.008-.04.008-.044.027-.14v-.006l.015-.079,0-.016.016-.08,0-.014.016-.084v0q.116-.6.234-1.19v-.007l.017-.083,0-.012.016-.079,0-.021.015-.075,0-.015.045-.226.009-.043.01-.048.011-.055.008-.04.013-.064.007-.034.016-.078,0-.018c.2-.994.4-1.969.616-2.959Zm2.764-11.676.968.251c-.5,1.92-.983,3.872-1.44,5.8l-.973-.23c.139-.588.279-1.168.421-1.754l0-.009.021-.088.006-.026.018-.074.007-.029.017-.071L8,212.4l.019-.078.005-.021.025-.1,0-.006.023-.092.009-.038.015-.06.011-.044.013-.054.012-.048.011-.046.013-.055.011-.043.013-.054.011-.045.055-.22,0-.018.018-.071.006-.026.017-.067.007-.03.017-.07,0-.019.02-.079v0Q8.636,209.84,8.942,208.663Zm3.267-11.545.956.293c-.581,1.9-1.15,3.825-1.69,5.734l-.962-.272c.122-.431.242-.851.366-1.281l.005-.019.023-.078.008-.028.019-.066.012-.041.015-.053.013-.046.013-.046.016-.054.007-.025.069-.236,0-.015.021-.073.006-.021.021-.071.007-.024.021-.073,0-.013.155-.53v0l.024-.083,0-.012.025-.083v0l.159-.535v0l.024-.082,0-.015.023-.078,0-.01.1-.345,0-.008.02-.067.009-.03.018-.061.011-.036.017-.057.012-.04.017-.056.012-.04.016-.054.015-.049.014-.047.028-.093.008-.028.021-.07.01-.033.02-.066.01-.032.021-.068.009-.029.022-.074.007-.023.024-.08.005-.018.123-.4,0,0Zm3.764-11.392.943.334c-.663,1.869-1.315,3.772-1.937,5.655l-.949-.314.006-.018.021-.064.009-.026.023-.068,0-.014.079-.239.007-.02.021-.064.011-.032.02-.06.011-.035.019-.058.013-.039.019-.056.012-.036.02-.059.011-.033.071-.211.011-.032.018-.055.014-.041.017-.052.015-.045L14.5,190l.016-.048.017-.05.015-.043.017-.051.015-.045.017-.051.017-.049.033-.1.012-.036.018-.052.016-.047.015-.044.018-.053.014-.041.02-.06.012-.035.021-.063.011-.033.028-.082,0-.012.067-.2.005-.016.027-.08.008-.024.027-.078.006-.016.029-.085,0-.013.031-.092,0-.005c.306-.893.618-1.787.934-2.676Zm4.255-11.221.927.375c-.743,1.839-1.477,3.712-2.18,5.567l-.935-.355q.316-.833.637-1.664h0l.033-.086v0l.271-.7v0Q19.6,176.068,20.228,174.505Zm4.737-11.025.91.414c-.822,1.805-1.636,3.645-2.419,5.467l-.919-.395q.5-1.161,1.008-2.317l0-.009.033-.074.008-.018.032-.072.005-.012.033-.075.006-.013.105-.238,0-.01.026-.059.015-.034.023-.052.017-.038.023-.051.018-.042.022-.05.017-.037.024-.054.017-.038.023-.052.02-.044.02-.045.039-.087.021-.048.019-.042.022-.05.019-.042.021-.047.02-.045.021-.048.019-.042.022-.049.017-.039.024-.054.014-.032.026-.057.01-.023.1-.23,0-.007.033-.074.007-.015.033-.074,0-.011.036-.079,0,0Q24.771,163.9,24.964,163.48Zm5.208-10.81.891.453c-.9,1.768-1.792,3.571-2.653,5.357l-.9-.434q.57-1.182,1.15-2.358l0,0,.034-.069.011-.022.029-.058.017-.035.025-.051.02-.04.023-.047.024-.049.019-.039.029-.059.015-.03.045-.09v0l.044-.088.012-.025.033-.067.012-.025.033-.067.013-.025.034-.068.011-.022.035-.07.012-.024.036-.072.009-.019.041-.081,0-.01.091-.181.015-.03.031-.061.017-.033.027-.054.02-.04.025-.049.022-.044.02-.04.026-.052.015-.03.031-.062v0Q29.9,153.212,30.173,152.67Zm5.67-10.575.871.491c-.975,1.728-1.944,3.49-2.882,5.238l-.881-.473C33.9,145.586,34.859,143.838,35.843,142.1Zm6.12-10.321.849.528c-1.048,1.684-2.093,3.4-3.1,5.109l-.86-.51.021-.036.013-.021.041-.068.011-.019.044-.074.008-.014.1-.175.014-.024.037-.062.019-.032.031-.052.022-.037.029-.049.024-.04.026-.043.027-.045.024-.041.027-.045.022-.037.029-.049.017-.028.125-.208.006-.011.036-.06.015-.025.036-.06.014-.023.037-.061.012-.021.039-.065.008-.013.042-.07,0-.008q.868-1.442,1.753-2.872l0-.006.283-.456.015-.024.034-.054.019-.03.032-.051.011-.018Zm6.558-10.048.826.564c-1.12,1.638-2.237,3.31-3.321,4.971l-.837-.547,0,0,.039-.06.02-.031.029-.044.033-.051.018-.028q1.573-2.406,3.19-4.771Zm6.983-9.758.8.6c-1.189,1.588-2.377,3.211-3.531,4.824l-.813-.582q.541-.756,1.087-1.509l.011-.015.033-.045.027-.038.026-.036.035-.049.02-.028.045-.062.01-.013.057-.078h0Q54.4,113.443,55.5,111.968Zm7.395-9.45.774.633c-1.256,1.536-2.512,3.107-3.735,4.669l-.788-.616Q61,104.842,62.9,102.518Zm7.792-9.125.746.665c-1.32,1.481-2.643,3-3.931,4.5l-.76-.649C68.048,96.388,69.356,94.89,70.691,93.393Zm8.175-8.783.717.7c-1.382,1.423-2.768,2.88-4.12,4.332l-.732-.681c.624-.67,1.242-1.328,1.872-1.992l.018-.019.05-.052.026-.028.039-.041.035-.037.03-.032.042-.044.02-.021.051-.054.006-.006Q77.888,85.616,78.866,84.61Zm8.543-8.426.687.727c-1.442,1.362-2.889,2.76-4.3,4.152l-.7-.712C84.52,78.943,85.952,77.561,87.409,76.184Zm8.9-8.053.655.755c-1.5,1.3-3,2.634-4.475,3.965l-.671-.741q1.145-1.037,2.3-2.061l0,0L94.175,70l.019-.017.048-.042.029-.026.039-.035.039-.034.034-.03.045-.04.027-.024.057-.05.016-.014C95.117,69.165,95.712,68.645,96.3,68.131Zm9.232-7.665.622.783c-1.553,1.234-3.114,2.5-4.64,3.77l-.639-.769.216-.179h0l.07-.058,0,0Q103.335,62.215,105.536,60.465Zm9.551-7.263.588.809c-1.6,1.166-3.218,2.367-4.8,3.568l-.605-.8q2.387-1.815,4.814-3.58Zm9.854-6.847.553.833c-1.653,1.1-3.317,2.227-4.946,3.359l-.571-.821.861-.6.011-.007.072-.049.02-.013.064-.044.022-.015.061-.042.026-.018.057-.039.026-.018.056-.038.029-.02.056-.038.027-.018.07-.048.053-.037.037-.026.054-.037.024-.016.056-.038.026-.018.055-.038.024-.017.054-.037.028-.019.056-.038.017-.012.063-.043.012-.008.3-.2,0,0,.068-.046.013-.009.061-.041.021-.014.062-.042.014-.01.065-.044.014-.01.068-.046h0l.373-.252.02-.013.059-.04.021-.014.057-.039.027-.018.053-.036.029-.02.051-.034.035-.024.046-.031.041-.027.04-.027.082-.055.007,0,.077-.052.018-.012.067-.045.016-.011.07-.047.015-.01.073-.049.009-.006.08-.054.005,0,.885-.59Zm10.139-6.418.517.856c-1.7,1.024-3.409,2.082-5.085,3.143l-.535-.845q1.809-1.145,3.633-2.261h0l.084-.051.007,0,.078-.048.011-.007.065-.04Q134.467,40.306,135.08,39.937Zm10.405-5.976.479.878c-1.741.951-3.5,1.933-5.216,2.922l-.5-.867c1.179-.677,2.352-1.339,3.542-2l.006,0,.084-.047.009,0,.079-.044.015-.008.076-.042.015-.008.077-.043.013-.007.087-.048.056-.031.028-.015.066-.037.018-.01.071-.039.011-.006Zm10.654-5.522.441.9c-1.78.875-3.576,1.781-5.337,2.694l-.46-.888.579-.3.012-.006.067-.034.04-.02.045-.023.077-.04.008,0q1.643-.845,3.3-1.668h0L155,29l.015-.008.078-.039.013-.007.082-.041.011-.006.09-.045h0l.188-.093.011-.005.076-.038.033-.016.056-.028.039-.019.048-.024.043-.021.048-.023.043-.021.046-.023.044-.021.049-.024.041-.02.068-.033Zm10.882-5.057.4.916c-1.816.8-3.649,1.625-5.448,2.461l-.421-.907c1.808-.84,3.639-1.667,5.468-2.47ZM178.11,18.8l.362.932c-1.849.717-3.716,1.465-5.549,2.223l-.382-.924,1.125-.462.008,0,.079-.032.015-.006.1-.04.065-.026.029-.012.067-.027.025-.01.071-.029.024-.01.075-.031.017-.007.083-.034.011,0c1.256-.509,2.513-1.007,3.778-1.5Zm11.277-4.1.321.947c-1.878.637-3.776,1.3-5.641,1.98l-.341-.94C185.606,16.007,187.488,15.347,189.387,14.7Zm11.445-3.6.28.96c-1.9.555-3.829,1.138-5.721,1.734l-.3-.954.893-.279h0l.082-.026.019-.006.068-.021.045-.014.047-.015C197.774,12,199.293,11.547,200.832,11.1Zm11.591-3.106.238.971c-1.927.472-3.876.971-5.792,1.485l-.259-.966.048-.013.013,0Q209.534,8.7,212.423,7.993Zm11.715-2.6.2.981c-1.946.388-3.914.8-5.85,1.232l-.217-.976Q221.191,5.98,224.138,5.392ZM235.952,3.3l.153.988c-1.961.3-3.945.633-5.9.979l-.174-.985q1.343-.238,2.69-.463l.03-.005.069-.011.043-.007.053-.009.051-.008.044-.007.062-.01.02,0q1.1-.182,2.2-.355h.009l.062-.01.043-.007.049-.008.06-.009.034-.005.082-.013.017,0ZM247.846,1.72l.11.994c-1.972.219-3.969.463-5.934.724l-.132-.991Q244.858,2.052,247.846,1.72ZM259.8.65l.068,1c-1.98.135-3.986.292-5.961.469l-.089-1q1.113-.1,2.229-.19h.017l.076-.006.025,0,.071-.006.035,0,.064-.005.054,0,.059,0,.086-.007.031,0,.076-.006.028,0,.084-.007h.017l.1-.008h0C257.847.788,258.818.717,259.8.65ZM271.787.091l.025,1c-1.985.05-4,.123-5.976.215l-.047-1c1.85-.086,3.7-.154,5.556-.2h.012l.1,0h.017l.093,0,.122,0h0ZM279,0V1l-1.212,0,0-1c.293,0,.589,0,.88,0H279Z" transform="translate(-491 -9583)" fill="#1565c0"/>
    <text id="Algoritmos_Los_algoritmos_se_adaptan_a_medida_que_aprenden_más_sobre_la_información_que_procesan." data-name="Algoritmos
Los algoritmos se adaptan a medida que aprenden más sobre la información que procesan." transform="translate(8 -9258)" fill="#084386" font-size="16" font-family="Roboto-Bold, Roboto" font-weight="700"><tspan x="0" y="15">Algoritmos</tspan><tspan font-family="Roboto-Regular, Roboto" font-weight="400"><tspan x="0" y="39">Los algoritmos se adaptan </tspan><tspan x="0" y="63">a medida que aprenden </tspan><tspan x="0" y="87">más sobre la información </tspan><tspan x="0" y="111">que procesan.</tspan></tspan></text>
    <text id="Concepto_Subconjunto_de_la_Inteligencia_Artificial._" data-name="Concepto
Subconjunto de la Inteligencia Artificial.
" transform="translate(8 -9492)" fill="#084386" font-size="16" font-family="Roboto-Bold, Roboto" font-weight="700"><tspan x="0" y="15">Concepto</tspan><tspan font-family="Roboto-Regular, Roboto" font-weight="400"><tspan x="0" y="39">Subconjunto de la </tspan><tspan x="0" y="63">Inteligencia Artificial.</tspan></tspan></text>
    <circle id="Elipse_5198" data-name="Elipse 5198" cx="158.5" cy="158.5" r="158.5" transform="translate(-715 -9467)" fill="#26a69a"/>
    <text id="Inteligencia_Artificial" data-name="Inteligencia Artificial" transform="translate(-683 -9351)" fill="#fff" font-size="27" font-family="Roboto-Bold, Roboto" font-weight="700"><tspan x="0" y="0">Inteligencia Artificial</tspan></text>
    <text id="Combinación_de_algoritmos_con_el_propósito_de_crear_máquinas_que_presenten_las_mismas_capacidades_que_el_ser_humano." data-name="Combinación de algoritmos con el propósito de crear máquinas que presenten las mismas capacidades que el ser humano." transform="translate(-687 -9319)" fill="#fff" font-size="20" font-family="HelveticaNeue, Helvetica Neue"><tspan x="5.14" y="19">Combinación de algoritmos </tspan><tspan x="16.63" y="43">con el propósito de crear </tspan><tspan x="2.71" y="67">máquinas que presenten las </tspan><tspan x="3.83" y="91">mismas capacidades que el </tspan><tspan x="72.92" y="115">ser humano.</tspan></text>
    <circle id="Elipse_5199" data-name="Elipse 5199" cx="51.5" cy="51.5" r="51.5" transform="translate(-84 -9591)" fill="#039be5"/>
    <circle id="Elipse_5200" data-name="Elipse 5200" cx="51.5" cy="51.5" r="51.5" transform="translate(25 -9372)" fill="#039be5"/>
    <circle id="Elipse_5201" data-name="Elipse 5201" cx="51.5" cy="51.5" r="51.5" transform="translate(-84 -9128)" fill="#039be5"/>
    <g id="Grupo_144681" data-name="Grupo 144681" transform="translate(-877.556 -9351.762)">
      <g id="Grupo_144437" data-name="Grupo 144437" clip-path="url(#clip-path)">
        <path id="Trazado_190981" data-name="Trazado 190981" d="M101.12,127.013a14.245,14.245,0,0,1,4.063,9.855v.745a1.009,1.009,0,0,0,.021.242c0,.011.01.021.013.032a1.028,1.028,0,0,0,.106.26c.01.016.016.033.027.049a1.059,1.059,0,0,0,.2.219l.043.036a1.022,1.022,0,0,0,.263.146l.033.01a1.015,1.015,0,0,0,.324.057,1,1,0,0,0,.241-.031l11.941-2.592c.01,0,.017-.006.027-.009a1,1,0,0,0,.119-.039c.025-.01.049-.018.073-.029a1.146,1.146,0,0,0,.1-.059c.022-.014.046-.027.068-.043a1.167,1.167,0,0,0,.091-.078c.019-.017.038-.033.055-.052a1.011,1.011,0,0,0,.078-.1c.014-.019.028-.037.041-.057a.9.9,0,0,0,.057-.111c.011-.023.022-.045.031-.069a.928.928,0,0,0,.032-.111c.008-.029.015-.057.02-.087,0-.012.007-.024.008-.037a14.282,14.282,0,0,1,3.9-8.1,15.215,15.215,0,0,0-11.8-25.754,15.211,15.211,0,0,0-10.167,25.7ZM111.4,103.358a13.16,13.16,0,0,1,10.215,22.283,16.389,16.389,0,0,0-4.336,8.544l-10.067,2.185A16.309,16.309,0,0,0,102.6,125.6a13.064,13.064,0,0,1-3.649-9.226A13.2,13.2,0,0,1,111.4,103.358Z" transform="translate(-85.072 -88.923)" fill="#fff"/>
        <path id="Trazado_190982" data-name="Trazado 190982" d="M184.44,213.964v12.694a1.025,1.025,0,0,0,2.05,0V213.964l3.706-3.706a1.025,1.025,0,1,0-1.45-1.45l-3.282,3.282-3.281-3.282a1.025,1.025,0,0,0-1.45,1.45Z" transform="translate(-158.408 -183.055)" fill="#fff"/>
        <path id="Trazado_190983" data-name="Trazado 190983" d="M177.011,401.466l-11.967,2.6a1.025,1.025,0,1,0,.436,2l11.967-2.6a1.025,1.025,0,0,0-.436-2Z" transform="translate(-144.188 -352.438)" fill="#fff"/>
        <path id="Trazado_190984" data-name="Trazado 190984" d="M178.709,434.308a1.024,1.024,0,0,0-1.22-.784l-11.967,2.6a1.025,1.025,0,1,0,.436,2l11.967-2.6A1.027,1.027,0,0,0,178.709,434.308Z" transform="translate(-144.608 -380.583)" fill="#fff"/>
        <path id="Trazado_190985" data-name="Trazado 190985" d="M196.508,462.234a1.026,1.026,0,1,0-2.034-.267,2.655,2.655,0,0,1-4.515,1.514,2.36,2.36,0,0,1-.354-.446,1.025,1.025,0,1,0-1.758,1.055,4.392,4.392,0,0,0,.662.84,4.706,4.706,0,0,0,8-2.7Z" transform="translate(-164.789 -404.791)" fill="#fff"/>
        <path id="Trazado_190986" data-name="Trazado 190986" d="M1.025,215.3H7.4a1.025,1.025,0,0,0,0-2.05H1.025a1.025,1.025,0,0,0,0,2.05" transform="translate(0 -187.221)" fill="#fff"/>
        <path id="Trazado_190987" data-name="Trazado 190987" d="M374.238,214.277a1.025,1.025,0,0,0,1.025,1.025h6.379a1.025,1.025,0,1,0,0-2.05h-6.379a1.025,1.025,0,0,0-1.025,1.025" transform="translate(-328.555 -187.22)" fill="#fff"/>
        <path id="Trazado_190988" data-name="Trazado 190988" d="M214.275,8.43A1.025,1.025,0,0,0,215.3,7.4V1.025a1.025,1.025,0,1,0-2.05,0V7.4A1.025,1.025,0,0,0,214.275,8.43Z" transform="translate(-187.219)" fill="#fff"/>
        <path id="Trazado_190989" data-name="Trazado 190989" d="M328.114,69.021a1.021,1.021,0,0,0,.725-.3l4.511-4.511a1.025,1.025,0,0,0-1.45-1.45l-4.511,4.511a1.025,1.025,0,0,0,.725,1.75Z" transform="translate(-287.162 -54.836)" fill="#fff"/>
        <path id="Trazado_190990" data-name="Trazado 190990" d="M67.265,327.39,62.755,331.9a1.026,1.026,0,0,0,1.451,1.45l4.511-4.511a1.026,1.026,0,0,0-1.451-1.45Z" transform="translate(-54.83 -287.162)" fill="#fff"/>
        <path id="Trazado_190991" data-name="Trazado 190991" d="M67.269,68.719a1.026,1.026,0,0,0,1.451-1.45l-4.511-4.511a1.025,1.025,0,1,0-1.45,1.45Z" transform="translate(-54.834 -54.833)" fill="#fff"/>
        <path id="Trazado_190992" data-name="Trazado 190992" d="M332.622,333.651a1.025,1.025,0,0,0,.725-1.75l-4.511-4.511a1.025,1.025,0,0,0-1.45,1.45l4.511,4.511A1.02,1.02,0,0,0,332.622,333.651Z" transform="translate(-287.159 -287.162)" fill="#fff"/>
      </g>
    </g>
    <g id="Grupo_144682" data-name="Grupo 144682" transform="translate(-66.958 -9111.262)">
      <g id="Grupo_144439" data-name="Grupo 144439" clip-path="url(#clip-path-2)">
        <path id="Trazado_190993" data-name="Trazado 190993" d="M314.506,103.26a4.752,4.752,0,1,0,3.361,1.391A4.719,4.719,0,0,0,314.506,103.26Z" transform="translate(-264.742 -88.255)" fill="#fff"/>
        <path id="Trazado_190994" data-name="Trazado 190994" d="M314.506,309.77a4.754,4.754,0,1,0,3.361,1.392A4.719,4.719,0,0,0,314.506,309.77Z" transform="translate(-264.742 -264.757)" fill="#fff"/>
        <path id="Trazado_190995" data-name="Trazado 190995" d="M4.753,206.51A4.754,4.754,0,1,0,8.115,207.9a4.718,4.718,0,0,0-3.362-1.391Z" transform="translate(0 -176.502)" fill="#fff"/>
        <path id="Trazado_190996" data-name="Trazado 190996" d="M266.645,60.148a6.55,6.55,0,0,1-.616.535l6.06,6.06a6.269,6.269,0,0,1,.535-.616,6.665,6.665,0,0,1,.616-.535l-6.06-6.06a6.378,6.378,0,0,1-.535.616" transform="translate(-227.372 -50.881)" fill="#fff"/>
        <path id="Trazado_190997" data-name="Trazado 190997" d="M211.26,413.03a4.753,4.753,0,1,0,3.361,1.391,4.723,4.723,0,0,0-3.361-1.391" transform="translate(-176.501 -353.013)" fill="#fff"/>
        <path id="Trazado_190998" data-name="Trazado 190998" d="M66.115,163.4a6.367,6.367,0,0,1-.535-.616l-6.06,6.06a5.709,5.709,0,0,1,1.151,1.151l6.06-6.06a6.52,6.52,0,0,1-.616-.535" transform="translate(-50.871 -139.128)" fill="#fff"/>
        <path id="Trazado_190999" data-name="Trazado 190999" d="M369.885,163.4a6.233,6.233,0,0,1-.616.535l6.062,6.062a6.285,6.285,0,0,1,.534-.617,6.64,6.64,0,0,1,.616-.535l-6.06-6.06A6.137,6.137,0,0,1,369.885,163.4Z" transform="translate(-315.611 -139.128)" fill="#fff"/>
        <path id="Trazado_191000" data-name="Trazado 191000" d="M417.777,216.015a4.754,4.754,0,1,0-3.362-1.392A4.723,4.723,0,0,0,417.777,216.015Z" transform="translate(-353.009 -176.5)" fill="#fff"/>
        <path id="Trazado_191001" data-name="Trazado 191001" d="M211.253,216.018a4.754,4.754,0,1,0-3.36-1.392A4.724,4.724,0,0,0,211.253,216.018Z" transform="translate(-176.494 -176.502)" fill="#fff"/>
        <path id="Trazado_191002" data-name="Trazado 191002" d="M169.365,375.888a6.7,6.7,0,0,1,.616-.535l-6.06-6.06a5.777,5.777,0,0,1-1.151,1.151l6.062,6.06A6.229,6.229,0,0,1,169.365,375.888Z" transform="translate(-139.118 -315.631)" fill="#fff"/>
        <path id="Trazado_191003" data-name="Trazado 191003" d="M272.635,369.908a6.234,6.234,0,0,1-.535-.616l-6.06,6.06a5.781,5.781,0,0,1,1.151,1.151l6.06-6.06a6.4,6.4,0,0,1-.616-.535" transform="translate(-227.382 -315.63)" fill="#fff"/>
        <path id="Trazado_191004" data-name="Trazado 191004" d="M375.875,266.658a6.489,6.489,0,0,1-.535-.616l-6.06,6.06a6.3,6.3,0,0,1,.616.535,6.359,6.359,0,0,1,.535.616l6.06-6.06A6.394,6.394,0,0,1,375.875,266.658Z" transform="translate(-315.62 -227.384)" fill="#fff"/>
        <path id="Trazado_191005" data-name="Trazado 191005" d="M163.385,66.138a6.236,6.236,0,0,1,.535.616l6.06-6.06a6.5,6.5,0,0,1-.616-.535,6.352,6.352,0,0,1-.535-.616l-6.06,6.06a6.29,6.29,0,0,1,.616.535" transform="translate(-139.117 -50.891)" fill="#fff"/>
        <path id="Trazado_191006" data-name="Trazado 191006" d="M169.365,266.658a6.232,6.232,0,0,1-.535-.616l-6.06,6.06a6.5,6.5,0,0,1,.616.535,6.351,6.351,0,0,1,.535.616l6.06-6.06a6.365,6.365,0,0,1-.616-.535" transform="translate(-139.118 -227.384)" fill="#fff"/>
        <path id="Trazado_191007" data-name="Trazado 191007" d="M108,319.268a4.754,4.754,0,1,0-3.361-1.392A4.719,4.719,0,0,0,108,319.268Z" transform="translate(-88.24 -264.749)" fill="#fff"/>
        <path id="Trazado_191008" data-name="Trazado 191008" d="M108,112.764a4.753,4.753,0,1,0-3.361-1.392A4.72,4.72,0,0,0,108,112.764Z" transform="translate(-88.24 -88.254)" fill="#fff"/>
        <path id="Trazado_191009" data-name="Trazado 191009" d="M211.249,9.508a4.754,4.754,0,0,0,3.361-8.115,4.754,4.754,0,0,0-6.722,6.723,4.721,4.721,0,0,0,3.361,1.392" transform="translate(-176.49)" fill="#fff"/>
      </g>
    </g>
    <g id="Grupo_144683" data-name="Grupo 144683" transform="translate(52.387 -9348.977)">
      <g id="Grupo_144441" data-name="Grupo 144441" clip-path="url(#clip-path-3)">
        <path id="Trazado_191010" data-name="Trazado 191010" d="M69.739,208.861a.773.773,0,0,0,.771-.771v-2.775a.773.773,0,0,0-.771-.771H51.775v-2.082a.773.773,0,0,0-.771-.771.728.728,0,0,0-.771.771v2.082H32.269a.773.773,0,0,0-.771.771v2.775a.773.773,0,0,0,.771.771.728.728,0,0,0,.771-.771v-2.082H50.232v2.082a.773.773,0,0,0,.771.771.728.728,0,0,0,.771-.771v-2.082H68.967v2.082a.728.728,0,0,0,.771.771Z" transform="translate(-25.947 -166.149)" fill="#fff"/>
        <path id="Trazado_191011" data-name="Trazado 191011" d="M116.42,249.818h-7.478a2.6,2.6,0,0,0-2.621,2.621v4.7a2.6,2.6,0,0,0,2.621,2.621h7.478a2.6,2.6,0,0,0,2.621-2.621v-4.7a2.649,2.649,0,0,0-2.621-2.621" transform="translate(-87.584 -205.795)" fill="#fff"/>
        <path id="Trazado_191012" data-name="Trazado 191012" d="M222.29,249.818h-7.478a2.6,2.6,0,0,0-2.621,2.621v4.7a2.6,2.6,0,0,0,2.621,2.621h7.478a2.6,2.6,0,0,0,2.621-2.621v-4.7a2.6,2.6,0,0,0-2.621-2.621" transform="translate(-174.798 -205.795)" fill="#fff"/>
        <path id="Trazado_191013" data-name="Trazado 191013" d="M10.1,249.818H2.621A2.6,2.6,0,0,0,0,252.439v4.7a2.6,2.6,0,0,0,2.621,2.621H10.1a2.6,2.6,0,0,0,2.621-2.621v-4.7a2.6,2.6,0,0,0-2.621-2.621" transform="translate(0 -205.795)" fill="#fff"/>
        <rect id="Rectángulo_43639" data-name="Rectángulo 43639" width="12.721" height="9.946" rx="4.973" transform="translate(18.736 24.363)" fill="#fff"/>
        <path id="Trazado_191014" data-name="Trazado 191014" d="M90.9,79.076h16.807a.773.773,0,0,0,.771-.771V69.9a.773.773,0,0,0-.771-.771H90.9a.773.773,0,0,0-.771.771v8.4a.728.728,0,0,0,.771.771" transform="translate(-74.246 -56.948)" fill="#fff"/>
        <path id="Trazado_191015" data-name="Trazado 191015" d="M90.9,9.946h16.807a.773.773,0,0,0,.771-.771V.771A.773.773,0,0,0,107.706,0H90.9a.773.773,0,0,0-.771.771v8.4a.728.728,0,0,0,.771.771" transform="translate(-74.246)" fill="#fff"/>
        <path id="Trazado_191016" data-name="Trazado 191016" d="M7.879,39.976h7.555L13.2,42.212a.745.745,0,0,0,0,1.079.7.7,0,0,0,.54.231.833.833,0,0,0,.54-.231l3.469-3.469c.077-.077.154-.154.154-.231s.077-.154.077-.308a.582.582,0,0,0-.077-.308c0-.077-.077-.154-.154-.231L14.587,35.5a.763.763,0,0,0-1.079,1.079l1.928,1.928H7.879a1.186,1.186,0,0,1-1.156-1.156v-8.4a1.186,1.186,0,0,1,1.156-1.156h9.329a.773.773,0,0,0,.771-.771.728.728,0,0,0-.771-.771H7.879a2.6,2.6,0,0,0-2.621,2.621v8.4A2.618,2.618,0,0,0,7.879,39.976Z" transform="translate(-4.331 -21.627)" fill="#fff"/>
        <path id="Trazado_191017" data-name="Trazado 191017" d="M194.374,98.521H203.7a1.337,1.337,0,0,1,1.156,1.311v7.324a1.019,1.019,0,0,1-1.156,1H193.448l1.773-1.773a.763.763,0,1,0-1.079-1.079l-2.93,2.93a.674.674,0,0,0-.463.694v.385c0,.077.077.077.077.154s.077.077.077.154l3.469,3.392a.745.745,0,0,0,1.079,0,.745.745,0,0,0,0-1.079l-2.236-2.159h10.408a2.536,2.536,0,0,0,2.621-2.544V99.908a2.788,2.788,0,0,0-2.621-2.775h-9.252a.773.773,0,0,0-.771.771c0,.463.308.617.771.617Z" transform="translate(-157.136 -80.016)" fill="#fff"/>
      </g>
    </g>
    <g id="Grupo_144684" data-name="Grupo 144684" transform="translate(-764.406 -9108.883)">
      <g id="Grupo_144443" data-name="Grupo 144443" clip-path="url(#clip-path-4)">
        <path id="Trazado_191018" data-name="Trazado 191018" d="M94.949,0h22.667a1.74,1.74,0,0,1,1.619,1.619V4.857a1.62,1.62,0,0,1-1.619,1.619H94.949A1.74,1.74,0,0,1,93.33,4.857V1.619A1.619,1.619,0,0,1,94.949,0Z" transform="translate(-80.378)" fill="#fff"/>
        <path id="Trazado_191019" data-name="Trazado 191019" d="M94.949,420h22.667a1.74,1.74,0,0,1,1.619,1.619v3.238a1.62,1.62,0,0,1-1.619,1.619H94.949a1.74,1.74,0,0,1-1.619-1.619v-3.238A1.619,1.619,0,0,1,94.949,420Z" transform="translate(-80.378 -361.713)" fill="#fff"/>
        <path id="Trazado_191020" data-name="Trazado 191020" d="M96.574,326.662H116a3.479,3.479,0,0,1,3.238,3.238A3.238,3.238,0,0,1,116,333.138H96.574a3.479,3.479,0,0,1-3.238-3.238,3.238,3.238,0,0,1,3.238-3.238" transform="translate(-80.383 -281.327)" fill="#fff"/>
        <path id="Trazado_191021" data-name="Trazado 191021" d="M6.477,96.568A3.238,3.238,0,1,1,3.239,93.33a3.238,3.238,0,0,1,3.238,3.238" transform="translate(0 -80.378)" fill="#fff"/>
        <path id="Trazado_191022" data-name="Trazado 191022" d="M169.81,236.568a3.238,3.238,0,1,1-3.238-3.238,3.238,3.238,0,0,1,3.238,3.238" transform="translate(-140.666 -200.948)" fill="#fff"/>
        <path id="Trazado_191023" data-name="Trazado 191023" d="M152.955,99.811a6.477,6.477,0,1,1-6.477-6.477,6.476,6.476,0,0,1,6.477,6.477" transform="translate(-120.572 -80.381)" fill="#fff"/>
        <path id="Trazado_191024" data-name="Trazado 191024" d="M283.244,186.662h6.477a3.479,3.479,0,0,1,3.238,3.238v6.477a3.238,3.238,0,0,1-3.238,3.238h-6.477a3.479,3.479,0,0,1-3.238-3.238V189.9A3.238,3.238,0,0,1,283.244,186.662Z" transform="translate(-241.146 -160.757)" fill="#fff"/>
        <path id="Trazado_191025" data-name="Trazado 191025" d="M19.119,26.481V21.542a2.432,2.432,0,0,1,2.429-2.429h4.857V17.494H21.548A4.052,4.052,0,0,0,17.5,21.542v4.939A4.052,4.052,0,0,1,19.119,26.481Z" transform="translate(-15.071 -15.066)" fill="#fff"/>
        <path id="Trazado_191026" data-name="Trazado 191026" d="M181.642,61.568a7.957,7.957,0,0,1,.809.082V58.33h-1.619v3.32A7.956,7.956,0,0,1,181.642,61.568Z" transform="translate(-155.736 -50.235)" fill="#fff"/>
        <path id="Trazado_191027" data-name="Trazado 191027" d="M293.289,19.119a2.432,2.432,0,0,1,2.429,2.429V39.359h1.619V21.547a4.052,4.052,0,0,0-4.047-4.047H291.67v1.619Z" transform="translate(-251.192 -15.071)" fill="#fff"/>
        <path id="Trazado_191028" data-name="Trazado 191028" d="M181.645,197.824a7.96,7.96,0,0,1-.809-.082v3.4h0a4.049,4.049,0,0,1,1.619,0v-3.4A7.961,7.961,0,0,1,181.645,197.824Z" transform="translate(-155.739 -170.299)" fill="#fff"/>
        <path id="Trazado_191029" data-name="Trazado 191029" d="M182.453,291.072a4.03,4.03,0,0,1-1.619,0v3.32h1.619Z" transform="translate(-155.738 -250.677)" fill="#fff"/>
        <path id="Trazado_191030" data-name="Trazado 191030" d="M295.718,309.473a2.432,2.432,0,0,1-2.429,2.429H291.67v1.619h1.619a4.052,4.052,0,0,0,4.047-4.047V291.662h-1.619Z" transform="translate(-251.192 -251.185)" fill="#fff"/>
        <rect id="Rectángulo_43641" data-name="Rectángulo 43641" width="1.619" height="3.238" transform="translate(25.097 53.431)" fill="#fff"/>
        <path id="Trazado_191031" data-name="Trazado 191031" d="M36.2,164.919H21.548a2.432,2.432,0,0,1-2.429-2.429V151.074a4.032,4.032,0,0,1-1.619,0V162.49a4.052,4.052,0,0,0,4.048,4.048H36.2a4.052,4.052,0,0,1,0-1.619" transform="translate(-15.071 -130.108)" fill="#fff"/>
      </g>
    </g>
    <g id="Grupo_144685" data-name="Grupo 144685" transform="translate(-53.129 -9562.129)">
      <g id="Grupo_144445" data-name="Grupo 144445" clip-path="url(#clip-path-5)">
        <path id="Trazado_191032" data-name="Trazado 191032" d="M119.082,19.415H99.65V0a23.064,23.064,0,0,1,19.432,19.415" transform="translate(-75.824)" fill="#fff"/>
        <path id="Trazado_191033" data-name="Trazado 191033" d="M40.7,34.266v0A20.487,20.487,0,1,1,17.132,10.72V34.266Z" transform="translate(0 -8.157)" fill="#fff"/>
      </g>
    </g>
    <g id="Grupo_144686" data-name="Grupo 144686" transform="translate(-762 -9562.129)">
      <path id="Trazado_191034" data-name="Trazado 191034" d="M0,128.179l22.706,10.743V114.891L0,105.277Z" transform="translate(0 -93.666)" fill="#fff"/>
      <path id="Trazado_191035" data-name="Trazado 191035" d="M220.96,114.9v24.031l22.629-10.743v-22.9Z" transform="translate(-196.589 -93.67)" fill="#fff"/>
      <path id="Trazado_191036" data-name="Trazado 191036" d="M24.609,0,1.34,10.025l23.292,9.948L48.164,10Z" transform="translate(-1.192)" fill="#fff"/>
    </g>
    <circle id="Elipse_5202" data-name="Elipse 5202" cx="37.5" cy="37.5" r="37.5" transform="translate(-422 -9327)" fill="#12263f"/>
    <text id="Vs" transform="translate(-399 -9283)" fill="#fff" font-size="27" font-family="Roboto-Bold, Roboto" font-weight="700"><tspan x="0" y="0">Vs</tspan></text>
  </g>
</svg>
